SplineFontDB: 3.0
FontName: Alfphabet-IV
FullName: Alfphabet IV
FamilyName: Alfphabet
Weight: Book
Copyright: Copyright (c) 2007-2010, OSP (http://ospublish.constantvzw.org)\nThe Alfphabet family is based on the Belgian road signage (1945-1975, originally from 3M system working for the Marshall plan after the end of the war).\nAlfphabet IV was redrawn by Pierre Huyghebaert and Ludi at Speculoos studio in 2007.\n\n
Version: 001.000
ItalicAngle: 0
UnderlinePosition: -100
UnderlineWidth: 50
Ascent: 800
Descent: 200
InvalidEm: 0
sfntRevision: 0x00010000
LayerCount: 2
Layer: 0 0 "Arri+AOgA-re" 1
Layer: 1 0 "Avant" 0
XUID: [1021 962 1798745627 13162885]
StyleMap: 0x0040
FSType: 4
OS2Version: 3
OS2_WeightWidthSlopeOnly: 0
OS2_UseTypoMetrics: 0
CreationTime: 1232070292
ModificationTime: 1277918716
PfmFamily: 17
TTFWeight: 400
TTFWidth: 8
LineGap: 62
VLineGap: 0
Panose: 2 11 7 7 1 1 1 3 12 3
OS2TypoAscent: 712
OS2TypoAOffset: 0
OS2TypoDescent: -121
OS2TypoDOffset: 0
OS2TypoLinegap: 62
OS2WinAscent: 963
OS2WinAOffset: 0
OS2WinDescent: 224
OS2WinDOffset: 0
HheadAscent: 712
HheadAOffset: 0
HheadDescent: -121
HheadDOffset: 0
OS2SubXSize: 700
OS2SubYSize: 650
OS2SubXOff: 0
OS2SubYOff: 140
OS2SupXSize: 700
OS2SupYSize: 650
OS2SupXOff: 0
OS2SupYOff: 477
OS2StrikeYSize: 50
OS2StrikeYPos: 250
OS2CapHeight: 711
OS2XHeight: 711
OS2Vendor: 'pyrs'
OS2CodePages: 00000001.00000000
OS2UnicodeRanges: 00000001.00000000.00000000.00000000
Lookup: 4 0 0 "'clig' Contextual Ligatures in Latin lookup 0" { "'clig' Contextual Ligatures in Latin lookup 0 subtable"  } ['clig' ('latn' <'dflt' > ) ]
MarkAttachClasses: 1
DEI: 91125
LangName: 1033 "" "" "" "FontForge : Alfphabet IV : 30-6-2010" "" "Version 001.000" "" "" "OSP (from Hammerfonts)" "" "" "http://openfontlibrary.org" "http://ospublish.constantvzw.org/" "OFL-Open Font License" "http://scripts.sil.org/OFL"
Encoding: UnicodeBmp
UnicodeInterp: none
NameList: AGL For New Fonts
DisplaySize: -48
AntiAlias: 1
FitToEm: 0
WinInfo: 57 19 6

StartChar: exclam
Encoding: 33 33 2
Width: 273
GlyphClass: 2
Flags: W
LayerCount: 2
Fore
SplineSet
70 712 m 1
 211 712 l 1
 211 208 l 1
 80 208 l 1
 70 712 l 1
81 0 m 1
 81 119 l 1
 200 119 l 1
 200 0 l 1
 81 0 l 1
EndSplineSet
EndChar

StartChar: quotedbl
Encoding: 34 34 3
Width: 440
GlyphClass: 2
Flags: W
LayerCount: 2
Fore
SplineSet
368 712 m 1
 368 534 l 1
 249 534 l 1
 249 711 l 1
 368 712 l 1
190 711 m 1
 190 534 l 1
 71 534 l 1
 71 711 l 1
 190 711 l 1
EndSplineSet
EndChar

StartChar: numbersign
Encoding: 35 35 4
Width: 656
GlyphClass: 2
Flags: W
LayerCount: 2
Fore
SplineSet
387 428 m 1
 289 428 l 1
 268 284 l 1
 366 284 l 1
 387 428 l 1
358 198 m 1
 260 198 l 1
 230 0 l 1
 132 0 l 1
 162 198 l 1
 71 198 l 1
 71 284 l 1
 170 284 l 1
 191 428 l 1
 100 428 l 1
 100 514 l 1
 199 514 l 1
 230 712 l 1
 328 712 l 1
 297 514 l 1
 395 514 l 1
 426 712 l 1
 524 712 l 1
 493 514 l 1
 585 514 l 1
 585 428 l 1
 485 428 l 1
 464 284 l 1
 556 284 l 1
 556 198 l 1
 456 198 l 1
 426 0 l 1
 328 0 l 1
 358 198 l 1
EndSplineSet
EndChar

StartChar: dollar
Encoding: 36 36 5
Width: 855
GlyphClass: 2
Flags: W
LayerCount: 2
Fore
SplineSet
570 427 m 2
 598.666992188 427 626.001953125 421.500976562 652.001953125 410.500976562 c 0
 678.001953125 399.500976562 700.668945312 384.500976562 720.001953125 365.500976562 c 0
 739.334960938 346.500976562 754.834960938 324.000976562 766.501953125 298.000976562 c 0
 778.168945312 272.000976562 784.001953125 243.66796875 784.001953125 213.000976562 c 0
 784.001953125 181.66796875 778.168945312 153.000976562 766.501953125 127.000976562 c 0
 754.834960938 101.000976562 739.16796875 78.5009765625 719.500976562 59.5009765625 c 0
 699.833984375 40.5009765625 677.166992188 25.66796875 651.5 15.0009765625 c 0
 625.833007812 4.333984375 598.666015625 -0.9990234375 569.999023438 -0.9990234375 c 2
 482.999023438 -0.9990234375 l 1
 482.999023438 -107.999023438 l 1
 367.999023438 -107.999023438 l 1
 367.999023438 -0.9990234375 l 1
 281.999023438 -0.9990234375 l 2
 251.999023438 -0.9990234375 223.999023438 4.5009765625 197.999023438 15.5009765625 c 0
 171.999023438 26.5009765625 149.33203125 41.66796875 129.999023438 61.0009765625 c 0
 110.666015625 80.333984375 95.4990234375 103.000976562 84.4990234375 129.000976562 c 0
 73.4990234375 155.000976562 67.9990234375 183.000976562 67.9990234375 213.000976562 c 1
 209.999023438 213.000976562 l 1
 209.999023438 203.66796875 211.999023438 194.66796875 215.999023438 186.000976562 c 0
 219.999023438 177.333984375 225.33203125 169.666992188 231.999023438 163 c 0
 238.666015625 156.333007812 246.333007812 151 255 147 c 0
 263.666992188 143 272.666992188 141 282 141 c 2
 368 142 l 1
 368 284 l 1
 282 284 l 2
 251.333007812 284 222.833007812 289.666992188 196.5 301 c 0
 170.166992188 312.333007812 147.5 327.833007812 128.5 347.5 c 0
 109.5 367.166992188 94.6669921875 389.833984375 84 415.500976562 c 0
 73.3330078125 441.16796875 68 468.66796875 68 498.000976562 c 0
 68 528.66796875 73.6669921875 557.000976562 85 583.000976562 c 0
 96.3330078125 609.000976562 111.666015625 631.500976562 130.999023438 650.500976562 c 0
 150.33203125 669.500976562 172.999023438 684.500976562 198.999023438 695.500976562 c 0
 224.999023438 706.500976562 252.666015625 712.000976562 281.999023438 712.000976562 c 2
 367.999023438 712.000976562 l 1
 367.999023438 828.000976562 l 1
 482.999023438 828.000976562 l 1
 482.999023438 712.000976562 l 1
 569.999023438 712.000976562 l 2
 597.999023438 712.000976562 624.999023438 706.66796875 650.999023438 696.000976562 c 0
 676.999023438 685.333984375 699.83203125 670.500976562 719.499023438 651.500976562 c 0
 739.166015625 632.500976562 754.833007812 610.000976562 766.5 584.000976562 c 0
 778.166992188 558.000976562 784 529.333984375 784 498.000976562 c 1
 641 498.000976562 l 1
 641 508.66796875 638.833007812 518.66796875 634.5 528.000976562 c 0
 630.166992188 537.333984375 624.5 545.166992188 617.5 551.5 c 0
 610.5 557.833007812 602.833007812 562.833007812 594.5 566.5 c 0
 586.166992188 570.166992188 578 572 570 572 c 2
 483 572 l 1
 483 427 l 1
 570 427 l 2
233.001953125 449.000976562 m 0
 238.334960938 442.333984375 245.3359375 437.000976562 254.002929688 433.000976562 c 0
 262.669921875 429.000976562 272.002929688 427.000976562 282.002929688 427.000976562 c 2
 368.002929688 427.000976562 l 1
 368.002929688 572.000976562 l 1
 282.002929688 572.000976562 l 2
 272.669921875 572.000976562 263.669921875 569.833984375 255.002929688 565.500976562 c 0
 246.3359375 561.16796875 238.668945312 555.500976562 232.001953125 548.500976562 c 0
 225.334960938 541.500976562 220.001953125 533.66796875 216.001953125 525.000976562 c 0
 212.001953125 516.333984375 210.001953125 507.333984375 210.001953125 498.000976562 c 0
 210.001953125 488.000976562 212.168945312 478.66796875 216.501953125 470.000976562 c 0
 220.834960938 461.333984375 226.334960938 454.333984375 233.001953125 449.000976562 c 0
620.002929688 164.000976562 m 0
 626.002929688 169.333984375 631.001953125 176.333984375 635.001953125 185.000976562 c 0
 639.001953125 193.66796875 641.001953125 203.000976562 641.001953125 213.000976562 c 0
 641.001953125 234.333984375 633.501953125 251.500976562 618.501953125 264.500976562 c 0
 603.501953125 277.500976562 587.334960938 284.000976562 570.001953125 284.000976562 c 2
 483.001953125 284.000976562 l 1
 483.001953125 141.000976562 l 1
 570.001953125 141.000976562 l 2
 578.668945312 141.000976562 587.3359375 143.16796875 596.002929688 147.500976562 c 0
 604.669921875 151.833984375 612.669921875 157.333984375 620.002929688 164.000976562 c 0
EndSplineSet
EndChar

StartChar: percent
Encoding: 37 37 6
Width: 1040
GlyphClass: 2
Flags: W
LayerCount: 2
Fore
SplineSet
767 730 m 1
 337 -16 l 1
 270 -16 l 1
 701 730 l 1
 767 730 l 1
461 540 m 0
 461 512 455.833984375 486 445.500976562 462 c 0
 435.16796875 438 421.16796875 417.166992188 403.500976562 399.5 c 0
 385.833984375 381.833007812 365.166992188 368 341.5 358 c 0
 317.833007812 348 292.333007812 343 265 343 c 2
 264 343 l 2
 236.666992188 343 211.166992188 348 187.5 358 c 0
 163.833007812 368 143.166015625 381.833007812 125.499023438 399.5 c 0
 107.83203125 417.166992188 93.83203125 438 83.4990234375 462 c 0
 73.166015625 486 67.9990234375 512 67.9990234375 540 c 0
 67.9990234375 567.333007812 73.166015625 592.833007812 83.4990234375 616.5 c 0
 93.83203125 640.166992188 107.83203125 660.833984375 125.499023438 678.500976562 c 0
 143.166015625 696.16796875 163.833007812 710.16796875 187.5 720.500976562 c 0
 211.166992188 730.833984375 236.666992188 736.000976562 264 736.000976562 c 0
 291.333007812 736.000976562 317 730.833984375 341 720.500976562 c 0
 365 710.16796875 385.833007812 696.16796875 403.5 678.500976562 c 0
 421.166992188 660.833984375 435.166992188 640.166992188 445.5 616.5 c 0
 455.833007812 592.833007812 461 567.333007812 461 540 c 0
340.000976562 508 m 0
 344.000976562 516.666992188 346.002929688 527.330078125 346.002929688 539.997070312 c 0
 346.002929688 550.6640625 343.8359375 560.831054688 339.502929688 570.498046875 c 0
 335.169921875 580.165039062 329.336914062 588.83203125 322.00390625 596.499023438 c 0
 314.670898438 604.166015625 306.00390625 610.166015625 296.00390625 614.499023438 c 0
 286.00390625 618.83203125 275.336914062 620.999023438 264.00390625 620.999023438 c 0
 253.336914062 620.999023438 243.169921875 618.83203125 233.502929688 614.499023438 c 0
 223.8359375 610.166015625 215.168945312 604.333007812 207.501953125 597 c 0
 199.834960938 589.666992188 193.834960938 581.166992188 189.501953125 571.5 c 0
 185.168945312 561.833007812 183.001953125 551.333007812 183.001953125 540 c 0
 183.001953125 518.666992188 190.668945312 499.666992188 206.001953125 483 c 0
 221.334960938 466.333007812 240.66796875 458 264.000976562 458 c 0
 281.333984375 458 296.500976562 462.5 309.500976562 471.5 c 0
 322.500976562 480.5 332.66796875 492.666992188 340.000976562 508 c 0
913.002929688 311.99609375 m 0
 931.002929688 294.663085938 945.169921875 274.163085938 955.502929688 250.49609375 c 0
 965.8359375 226.829101562 971.002929688 200.99609375 971.002929688 172.99609375 c 0
 971.002929688 145.663085938 965.8359375 119.99609375 955.502929688 95.99609375 c 0
 945.169921875 71.99609375 931.169921875 51.1630859375 913.502929688 33.49609375 c 0
 895.8359375 15.8291015625 875.002929688 1.8291015625 851.002929688 -8.50390625 c 0
 827.002929688 -18.8369140625 801.3359375 -24.00390625 774.002929688 -24.00390625 c 0
 747.3359375 -24.00390625 722.002929688 -18.8369140625 698.002929688 -8.50390625 c 0
 674.002929688 1.8291015625 653.002929688 15.8291015625 635.002929688 33.49609375 c 0
 617.002929688 51.1630859375 602.8359375 71.99609375 592.502929688 95.99609375 c 0
 582.169921875 119.99609375 577.002929688 145.663085938 577.002929688 172.99609375 c 0
 577.002929688 200.329101562 582.169921875 225.99609375 592.502929688 249.99609375 c 0
 602.8359375 273.99609375 617.002929688 294.829101562 635.002929688 312.49609375 c 0
 653.002929688 330.163085938 674.002929688 344.163085938 698.002929688 354.49609375 c 0
 722.002929688 364.829101562 747.3359375 369.99609375 774.002929688 369.99609375 c 0
 802.002929688 369.99609375 827.8359375 364.829101562 851.502929688 354.49609375 c 0
 875.169921875 344.163085938 895.669921875 329.99609375 913.002929688 311.99609375 c 0
850.002929688 140.99609375 m 0
 854.002929688 150.99609375 856.00390625 161.663085938 856.00390625 172.99609375 c 0
 856.00390625 195.663085938 848.00390625 214.99609375 832.00390625 230.99609375 c 0
 816.00390625 246.99609375 796.670898438 254.99609375 774.00390625 254.99609375 c 0
 751.336914062 254.99609375 732.50390625 247.163085938 717.50390625 231.49609375 c 0
 702.50390625 215.829101562 694.00390625 196.329101562 692.00390625 172.99609375 c 0
 692.670898438 163.663085938 694.670898438 154.163085938 698.00390625 144.49609375 c 0
 701.336914062 134.829101562 706.50390625 125.99609375 713.50390625 117.99609375 c 0
 720.50390625 109.99609375 729.00390625 103.49609375 739.00390625 98.49609375 c 0
 749.00390625 93.49609375 760.670898438 90.99609375 774.00390625 90.99609375 c 0
 791.336914062 90.99609375 806.169921875 95.49609375 818.502929688 104.49609375 c 0
 830.8359375 113.49609375 841.3359375 125.663085938 850.002929688 140.99609375 c 0
EndSplineSet
EndChar

StartChar: ampersand
Encoding: 38 38 7
Width: 1040
GlyphClass: 2
Flags: W
LayerCount: 2
Fore
SplineSet
786 286 m 1
 785.993164062 212.999023438 l 2
 785.993164062 196.33203125 792.16015625 180.499023438 804.493164062 165.499023438 c 0
 816.826171875 150.499023438 833.993164062 142.999023438 855.993164062 142.999023438 c 1
 855.993164062 -1.0009765625 l 1
 829.326171875 -1.0009765625 803.826171875 4.166015625 779.493164062 14.4990234375 c 0
 755.16015625 24.83203125 733.327148438 38.33203125 713.994140625 54.9990234375 c 1
 693.994140625 37.666015625 671.994140625 24.166015625 647.994140625 14.4990234375 c 0
 623.994140625 4.83203125 598.661132812 -0.0009765625 571.994140625 -0.0009765625 c 2
 284.994140625 -0.0009765625 l 2
 255.661132812 -0.0009765625 227.828125 5.4990234375 201.495117188 16.4990234375 c 0
 175.162109375 27.4990234375 152.329101562 42.4990234375 132.99609375 61.4990234375 c 0
 113.663085938 80.4990234375 98.330078125 103.166015625 86.9970703125 129.499023438 c 0
 75.6640625 155.83203125 69.9970703125 183.999023438 69.9970703125 213.999023438 c 0
 69.9970703125 268.666015625 88.330078125 315.999023438 124.997070312 355.999023438 c 1
 106.997070312 374.666015625 93.330078125 396.333007812 83.9970703125 421 c 0
 74.6640625 445.666992188 69.9970703125 472 69.9970703125 500 c 0
 69.9970703125 528.666992188 75.4970703125 556 86.4970703125 582 c 0
 97.4970703125 608 112.6640625 630.666992188 131.997070312 650 c 0
 151.330078125 669.333007812 174.163085938 684.666015625 200.49609375 695.999023438 c 0
 226.829101562 707.33203125 254.99609375 712.999023438 284.99609375 712.999023438 c 2
 357.99609375 712.999023438 l 2
 386.663085938 712.999023438 413.830078125 707.499023438 439.497070312 696.499023438 c 0
 465.1640625 685.499023438 487.831054688 670.33203125 507.498046875 650.999023438 c 0
 527.165039062 631.666015625 542.83203125 608.999023438 554.499023438 582.999023438 c 0
 566.166015625 556.999023438 571.999023438 529.33203125 571.999023438 499.999023438 c 1
 427.999023438 499.999023438 l 1
 427.999023438 521.999023438 420.33203125 539.166015625 404.999023438 551.499023438 c 0
 389.666015625 563.83203125 373.999023438 569.999023438 357.999023438 569.999023438 c 2
 284.999023438 569.999023438 l 2
 263.666015625 569.999023438 246.333007812 563.33203125 233 549.999023438 c 0
 219.666992188 536.666015625 213 519.999023438 213 499.999023438 c 0
 213 477.999023438 219.833007812 460.666015625 233.5 447.999023438 c 0
 247.166992188 435.33203125 264.333984375 428.999023438 285.000976562 428.999023438 c 2
 428.000976562 428.999023438 l 1
 428.000976562 284.999023438 l 1
 285.000976562 284.999023438 l 2
 273.000976562 284.999023438 262.500976562 282.83203125 253.500976562 278.499023438 c 0
 244.500976562 274.166015625 237.000976562 268.499023438 231.000976562 261.499023438 c 0
 225.000976562 254.499023438 220.500976562 246.83203125 217.500976562 238.499023438 c 0
 214.500976562 230.166015625 213.000976562 221.999023438 213.000976562 213.999023438 c 0
 213.000976562 192.666015625 220.16796875 175.166015625 234.500976562 161.499023438 c 0
 248.833984375 147.83203125 265.666992188 140.999023438 285 140.999023438 c 2
 572 140.999023438 l 2
 580 140.999023438 588.166992188 142.666015625 596.5 145.999023438 c 0
 604.833007812 149.33203125 612.333007812 154.33203125 619 160.999023438 c 0
 625.666992188 167.666015625 631.166992188 175.333007812 635.5 184 c 0
 639.833007812 192.666992188 642 202.666992188 642 214 c 2
 642 629 l 1
 787 629 l 1
 787 429 l 1
 970 429 l 1
 970 286 l 1
 786 286 l 1
EndSplineSet
EndChar

StartChar: quotesingle
Encoding: 39 39 8
Width: 260
GlyphClass: 2
Flags: W
LayerCount: 2
Fore
SplineSet
71 534 m 1
 71 712 l 1
 190 712 l 1
 190 594 l 1
 71 534 l 1
EndSplineSet
EndChar

StartChar: parenleft
Encoding: 40 40 9
Width: 430
GlyphClass: 2
Flags: W
LayerCount: 2
Fore
SplineSet
214 327 m 0
 214 302.333007812 216.16796875 272.999023438 220.500976562 238.999023438 c 0
 224.833984375 204.999023438 232.333984375 168.999023438 243.000976562 130.999023438 c 0
 253.66796875 92.9990234375 268.16796875 54.33203125 286.500976562 14.9990234375 c 0
 304.833984375 -24.333984375 328.333984375 -61.6669921875 357.000976562 -97 c 1
 263.000976562 -97 l 1
 231.000976562 -72.3330078125 203.000976562 -43.166015625 179.000976562 -9.4990234375 c 0
 155.000976562 24.16796875 135.000976562 60.0009765625 119.000976562 98.0009765625 c 0
 103.000976562 136.000976562 90.833984375 174.833984375 82.5009765625 214.500976562 c 0
 74.16796875 254.16796875 70.0009765625 291.66796875 70.0009765625 327.000976562 c 0
 70.0009765625 361.66796875 74.16796875 398.66796875 82.5009765625 438.000976562 c 0
 90.833984375 477.333984375 103.166992188 516.166992188 119.5 554.5 c 0
 135.833007812 592.833007812 156 629 180 663 c 0
 204 697 231.666992188 726 263 750 c 1
 357 750 l 1
 327.666992188 715.333007812 303.666992188 678.666015625 285 639.999023438 c 0
 266.333007812 601.33203125 251.833007812 562.999023438 241.5 524.999023438 c 0
 231.166992188 486.999023438 224 450.83203125 220 416.499023438 c 0
 216 382.166015625 214 352.333007812 214 327 c 0
EndSplineSet
EndChar

StartChar: parenright
Encoding: 41 41 10
Width: 430
GlyphClass: 2
Flags: W
LayerCount: 2
Fore
SplineSet
70 -98 m 1
 98.6669921875 -62.6669921875 122.166992188 -25.3349609375 140.5 13.998046875 c 0
 158.833007812 53.3310546875 173.333007812 91.998046875 184 129.998046875 c 0
 194.666992188 167.998046875 202.166992188 203.998046875 206.5 237.998046875 c 0
 210.833007812 271.998046875 213 301.331054688 213 325.998046875 c 0
 213 351.331054688 211 381.1640625 207 415.497070312 c 0
 203 449.830078125 195.833007812 485.997070312 185.5 523.997070312 c 0
 175.166992188 561.997070312 160.666992188 600.330078125 142 638.997070312 c 0
 123.333007812 677.6640625 99.3330078125 714.331054688 70 748.998046875 c 1
 165 748.998046875 l 1
 196.333007812 724.998046875 224 695.998046875 248 661.998046875 c 0
 272 627.998046875 292 591.831054688 308 553.498046875 c 0
 324 515.165039062 336.166992188 476.33203125 344.5 436.999023438 c 0
 352.833007812 397.666015625 357 360.666015625 357 325.999023438 c 0
 357 290.666015625 352.833007812 253.333007812 344.5 214 c 0
 336.166992188 174.666992188 324 136 308 98 c 0
 292 60 272 24 248 -10 c 0
 224 -44 196.333007812 -73.3330078125 165 -98 c 1
 70 -98 l 1
EndSplineSet
EndChar

StartChar: asterisk
Encoding: 42 42 11
Width: 514
GlyphClass: 2
Flags: W
LayerCount: 2
Fore
SplineSet
393 665 m 1
 442 578 l 1
 325 531 l 1
 443 483 l 1
 393 397 l 1
 293 475 l 1
 310 349 l 1
 211 349 l 1
 227 475 l 1
 128 397 l 1
 78 483 l 1
 197 531 l 1
 78 578 l 1
 128 664 l 1
 228 587 l 1
 210 712 l 1
 310 712 l 1
 293 587 l 1
 393 665 l 1
EndSplineSet
EndChar

StartChar: plus
Encoding: 43 43 12
Width: 620
GlyphClass: 2
Flags: W
LayerCount: 2
Fore
SplineSet
362 263 m 1
 362 72 l 1
 262 72 l 1
 262 263 l 1
 70 263 l 1
 70 363 l 1
 261 363 l 1
 261 554 l 1
 361 554 l 1
 361 363 l 1
 552 363 l 1
 552 263 l 1
 362 263 l 1
EndSplineSet
EndChar

StartChar: comma
Encoding: 44 44 13
Width: 222
GlyphClass: 2
Flags: W
LayerCount: 2
Fore
SplineSet
70 -59 m 1
 70 119 l 1
 189 119 l 1
 189 0 l 1
 70 -59 l 1
EndSplineSet
EndChar

StartChar: hyphen
Encoding: 45 45 14
Width: 614
GlyphClass: 2
Flags: W
LayerCount: 2
Fore
SplineSet
70 256 m 1
 70 375 l 1
 545 375 l 1
 545 256 l 1
 70 256 l 1
EndSplineSet
EndChar

StartChar: period
Encoding: 46 46 15
Width: 257
GlyphClass: 2
Flags: W
LayerCount: 2
Fore
SplineSet
70 0 m 1
 70 119 l 1
 189 119 l 1
 189 0 l 1
 70 0 l 1
EndSplineSet
EndChar

StartChar: slash
Encoding: 47 47 16
Width: 592
GlyphClass: 2
Flags: W
LayerCount: 2
Fore
SplineSet
161 -17 m 1
 9 -17 l 1
 431 729 l 1
 583 729 l 1
 161 -17 l 1
EndSplineSet
EndChar

StartChar: zero
Encoding: 48 48 17
Width: 832
GlyphClass: 2
Flags: W
LayerCount: 2
Fore
SplineSet
309 0 m 2
 274.333007812 0 241.833007812 6.5 211.5 19.5 c 0
 181.166992188 32.5 154.833984375 50.1669921875 132.500976562 72.5 c 0
 110.16796875 94.8330078125 92.5009765625 121.166015625 79.5009765625 151.499023438 c 0
 66.5009765625 181.83203125 60.0009765625 214.33203125 60.0009765625 248.999023438 c 2
 60.0009765625 462.999023438 l 2
 60.0009765625 498.999023438 66.66796875 532.166015625 80.0009765625 562.499023438 c 0
 93.333984375 592.83203125 111.333984375 619.165039062 134.000976562 641.498046875 c 0
 156.66796875 663.831054688 183.16796875 681.1640625 213.500976562 693.497070312 c 0
 243.833984375 705.830078125 275.666992188 711.997070312 309 711.997070312 c 2
 523 711.997070312 l 2
 556.333007812 711.997070312 588 705.830078125 618 693.497070312 c 0
 648 681.1640625 674.5 663.831054688 697.5 641.498046875 c 0
 720.5 619.165039062 738.666992188 592.83203125 752 562.499023438 c 0
 765.333007812 532.166015625 772 498.999023438 772 462.999023438 c 2
 772 248.999023438 l 2
 772 214.33203125 765.5 181.83203125 752.5 151.499023438 c 0
 739.5 121.166015625 721.666992188 94.8330078125 699 72.5 c 0
 676.333007812 50.1669921875 650 32.5 620 19.5 c 0
 590 6.5 557.666992188 0 523 0 c 2
 309 0 l 2
234 538 m 0
 214 518 203.997070312 492.997070312 203.997070312 462.997070312 c 2
 203.997070312 248.997070312 l 2
 203.997070312 219.6640625 213.830078125 194.831054688 233.497070312 174.498046875 c 0
 253.1640625 154.165039062 278.331054688 143.998046875 308.998046875 143.998046875 c 2
 522.998046875 143.998046875 l 2
 537.665039062 143.998046875 551.665039062 146.831054688 564.998046875 152.498046875 c 0
 578.331054688 158.165039062 589.831054688 165.83203125 599.498046875 175.499023438 c 0
 609.165039062 185.166015625 616.83203125 196.333007812 622.499023438 209 c 0
 628.166015625 221.666992188 630.999023438 235 630.999023438 249 c 2
 630.999023438 463 l 2
 630.999023438 477 627.999023438 490.5 621.999023438 503.5 c 0
 615.999023438 516.5 607.999023438 528 597.999023438 538 c 0
 587.999023438 548 576.499023438 556 563.499023438 562 c 0
 550.499023438 568 536.999023438 571 522.999023438 571 c 2
 308.999023438 571 l 2
 293.666015625 571 279.833007812 568 267.5 562 c 0
 255.166992188 556 244 548 234 538 c 0
EndSplineSet
EndChar

StartChar: one
Encoding: 49 49 18
Width: 338
GlyphClass: 2
Flags: W
LayerCount: 2
Fore
SplineSet
127 712 m 1
 269 712 l 1
 269 0 l 1
 127 0 l 1
 127 510 l 1
 26 413 l 1
 26 614 l 1
 127 712 l 1
EndSplineSet
EndChar

StartChar: two
Encoding: 50 50 19
Width: 839
GlyphClass: 2
Flags: W
LayerCount: 2
Fore
SplineSet
63 534 m 1
 63 559.333007812 67.8310546875 582.831054688 77.498046875 604.498046875 c 0
 87.1650390625 626.165039062 100.33203125 644.998046875 116.999023438 660.998046875 c 0
 133.666015625 676.998046875 152.666015625 689.498046875 173.999023438 698.498046875 c 0
 195.33203125 707.498046875 217.665039062 711.998046875 240.998046875 711.998046875 c 2
 596.998046875 711.998046875 l 2
 619.665039062 711.998046875 641.83203125 707.498046875 663.499023438 698.498046875 c 0
 685.166015625 689.498046875 704.166015625 676.998046875 720.499023438 660.998046875 c 0
 736.83203125 644.998046875 749.999023438 626.165039062 759.999023438 604.498046875 c 0
 769.999023438 582.831054688 774.999023438 559.331054688 774.999023438 533.998046875 c 0
 774.999023438 502.665039062 767.499023438 474.33203125 752.499023438 448.999023438 c 0
 737.499023438 423.666015625 717.33203125 402.666015625 691.999023438 385.999023438 c 2
 319.999023438 141.999023438 l 1
 774.999023438 141.999023438 l 1
 774.999023438 -0.0009765625 l 1
 62.9990234375 -0.0009765625 l 1
 62.9990234375 141.999023438 l 1
 605.999023438 496.999023438 l 2
 613.33203125 502.33203125 619.499023438 507.499023438 624.499023438 512.499023438 c 0
 629.499023438 517.499023438 631.999023438 524.666015625 631.999023438 533.999023438 c 0
 631.999023438 543.999023438 628.499023438 552.499023438 621.499023438 559.499023438 c 0
 614.499023438 566.499023438 606.33203125 569.999023438 596.999023438 569.999023438 c 2
 240.999023438 569.999023438 l 2
 231.666015625 569.999023438 223.333007812 566.33203125 216 558.999023438 c 0
 208.666992188 551.666015625 205 543.333007812 205 534 c 1
 63 534 l 1
EndSplineSet
EndChar

StartChar: three
Encoding: 51 51 20
Width: 829
GlyphClass: 2
Flags: W
LayerCount: 2
Fore
SplineSet
769 214 m 0
 769 184 763.33203125 155.833984375 751.999023438 129.500976562 c 0
 740.666015625 103.16796875 725.166015625 80.5009765625 705.499023438 61.5009765625 c 0
 685.83203125 42.5009765625 662.999023438 27.5009765625 636.999023438 16.5009765625 c 0
 610.999023438 5.5009765625 583.33203125 0.0009765625 553.999023438 0.0009765625 c 2
 266.999023438 0.0009765625 l 2
 239.666015625 0.0009765625 213.166015625 5.333984375 187.499023438 16.0009765625 c 0
 161.83203125 26.66796875 138.999023438 41.5009765625 118.999023438 60.5009765625 c 0
 98.9990234375 79.5009765625 82.9990234375 102.16796875 70.9990234375 128.500976562 c 0
 58.9990234375 154.833984375 52.9990234375 183.333984375 52.9990234375 214.000976562 c 1
 196.999023438 214.000976562 l 1
 196.999023438 202.66796875 199.166015625 192.66796875 203.499023438 184.000976562 c 0
 207.83203125 175.333984375 213.33203125 167.666992188 219.999023438 161 c 0
 226.666015625 154.333007812 234.166015625 149.333007812 242.499023438 146 c 0
 250.83203125 142.666992188 258.999023438 141 266.999023438 141 c 2
 553.999023438 141 l 2
 573.33203125 141 590.165039062 147.833007812 604.498046875 161.5 c 0
 618.831054688 175.166992188 625.998046875 192.666992188 625.998046875 214 c 0
 625.998046875 222 624.498046875 230.166992188 621.498046875 238.5 c 0
 618.498046875 246.833007812 613.998046875 254.5 607.998046875 261.5 c 0
 601.998046875 268.5 594.498046875 274.166992188 585.498046875 278.5 c 0
 576.498046875 282.833007812 565.998046875 285 553.998046875 285 c 2
 410.998046875 285 l 1
 410.998046875 429 l 1
 553.998046875 429 l 2
 574.665039062 429 591.83203125 435.333007812 605.499023438 448 c 0
 619.166015625 460.666992188 625.999023438 478 625.999023438 500 c 0
 625.999023438 520 619.166015625 536.666992188 605.499023438 550 c 0
 591.83203125 563.333007812 574.665039062 570 553.998046875 570 c 2
 266.998046875 570 l 2
 250.331054688 570 234.498046875 563.833007812 219.498046875 551.5 c 0
 204.498046875 539.166992188 196.998046875 522 196.998046875 500 c 1
 52.998046875 500 l 1
 52.998046875 529.333007812 58.8310546875 557 70.498046875 583 c 0
 82.1650390625 609 97.83203125 631.666992188 117.499023438 651 c 0
 137.166015625 670.333007812 159.833007812 685.5 185.5 696.5 c 0
 211.166992188 707.5 238.333984375 713 267.000976562 713 c 2
 554.000976562 713 l 2
 584.000976562 713 612.16796875 707.333007812 638.500976562 696 c 0
 664.833984375 684.666992188 687.666992188 669.333984375 707 650.000976562 c 0
 726.333007812 630.66796875 741.5 608.000976562 752.5 582.000976562 c 0
 763.5 556.000976562 769 528.66796875 769 500.000976562 c 0
 769 472.000976562 764.333007812 445.66796875 755 421.000976562 c 0
 745.666992188 396.333984375 732 374.666992188 714 356 c 1
 750.666992188 316 769 268.666992188 769 214 c 0
EndSplineSet
EndChar

StartChar: four
Encoding: 52 52 21
Width: 780
GlyphClass: 2
Flags: W
LayerCount: 2
Fore
SplineSet
656 713 m 1
 656 216 l 1
 726 216 l 1
 726 73 l 1
 656 73 l 1
 656 0 l 1
 513 0 l 1
 513 73 l 1
 18 73 l 1
 16 73 l 1
 16 216 l 1
 513 713 l 1
 656 713 l 1
513 216 m 1
 513 513 l 1
 216 216 l 1
 513 216 l 1
EndSplineSet
EndChar

StartChar: five
Encoding: 53 53 22
Width: 831
GlyphClass: 2
Flags: W
LayerCount: 2
Fore
SplineSet
203 567 m 1
 203.000976562 497 l 1
 521.000976562 497 l 2
 555.000976562 497 587.000976562 490.666992188 617.000976562 478 c 0
 647.000976562 465.333007812 673.333984375 447.833007812 696.000976562 425.5 c 0
 718.66796875 403.166992188 736.66796875 376.666992188 750.000976562 346 c 0
 763.333984375 315.333007812 770.000976562 282 770.000976562 246 c 0
 770.000976562 212 763.500976562 180.166992188 750.500976562 150.5 c 0
 737.500976562 120.833007812 719.833984375 94.8330078125 697.500976562 72.5 c 0
 675.16796875 50.1669921875 649.000976562 32.5 619.000976562 19.5 c 0
 589.000976562 6.5 557.000976562 0 523.000976562 0 c 2
 307.000976562 0 l 2
 271.66796875 0 239.000976562 6.6669921875 209.000976562 20 c 0
 179.000976562 33.3330078125 153.000976562 51.166015625 131.000976562 73.4990234375 c 0
 109.000976562 95.83203125 91.833984375 121.83203125 79.5009765625 151.499023438 c 0
 67.16796875 181.166015625 61.0009765625 212.666015625 61.0009765625 245.999023438 c 1
 203.000976562 245.999023438 l 1
 203.000976562 231.33203125 205.66796875 217.665039062 211.000976562 204.998046875 c 0
 216.333984375 192.331054688 223.833984375 181.331054688 233.500976562 171.998046875 c 0
 243.16796875 162.665039062 254.334960938 155.33203125 267.001953125 149.999023438 c 0
 279.668945312 144.666015625 293.001953125 141.999023438 307.001953125 141.999023438 c 2
 521.001953125 141.999023438 l 2
 536.334960938 141.999023438 550.501953125 144.666015625 563.501953125 149.999023438 c 0
 576.501953125 155.33203125 587.668945312 162.83203125 597.001953125 172.499023438 c 0
 606.334960938 182.166015625 613.66796875 193.333007812 619.000976562 206 c 0
 624.333984375 218.666992188 627.000976562 232 627.000976562 246 c 0
 627.000976562 263.333007812 623.833984375 278.833007812 617.500976562 292.5 c 0
 611.16796875 306.166992188 603.000976562 317.666992188 593.000976562 327 c 0
 583.000976562 336.333007812 571.66796875 343.333007812 559.000976562 348 c 0
 546.333984375 352.666992188 533.666992188 355 521 355 c 2
 130 355 l 1
 61 424 l 1
 61 601 l 1
 61 709 l 1
 770 709 l 1
 770 567 l 1
 203 567 l 1
EndSplineSet
EndChar

StartChar: six
Encoding: 54 54 23
Width: 833
GlyphClass: 2
Flags: W
LayerCount: 2
Fore
SplineSet
562 430 m 2
 592 430 620.000976562 424.166015625 646.000976562 412.499023438 c 0
 672.000976562 400.83203125 694.66796875 384.999023438 714.000976562 364.999023438 c 0
 733.333984375 344.999023438 748.500976562 322.166015625 759.500976562 296.499023438 c 0
 770.500976562 270.83203125 776.000976562 243.999023438 776.000976562 215.999023438 c 0
 776.000976562 185.999023438 770.333984375 157.999023438 759.000976562 131.999023438 c 0
 747.66796875 105.999023438 732.334960938 83.166015625 713.001953125 63.4990234375 c 0
 693.668945312 43.83203125 671.001953125 28.33203125 645.001953125 16.9990234375 c 0
 619.001953125 5.666015625 591.334960938 -0.0009765625 562.001953125 -0.0009765625 c 2
 276.001953125 -0.0009765625 l 2
 246.668945312 -0.0009765625 219.001953125 5.666015625 193.001953125 16.9990234375 c 0
 167.001953125 28.33203125 144.334960938 43.83203125 125.001953125 63.4990234375 c 0
 105.668945312 83.166015625 90.501953125 105.999023438 79.501953125 131.999023438 c 0
 68.501953125 157.999023438 63.001953125 185.999023438 63.001953125 215.999023438 c 2
 63.001953125 499.999023438 l 2
 63.001953125 529.33203125 68.501953125 556.999023438 79.501953125 582.999023438 c 0
 90.501953125 608.999023438 105.668945312 631.666015625 125.001953125 650.999023438 c 0
 144.334960938 670.33203125 167.001953125 685.499023438 193.001953125 696.499023438 c 0
 219.001953125 707.499023438 246.668945312 712.999023438 276.001953125 712.999023438 c 2
 562.001953125 712.999023438 l 2
 591.334960938 712.999023438 619.001953125 707.33203125 645.001953125 695.999023438 c 0
 671.001953125 684.666015625 693.668945312 669.333007812 713.001953125 650 c 0
 732.334960938 630.666992188 747.66796875 608.166992188 759.000976562 582.5 c 0
 770.333984375 556.833007812 776.000976562 529.333007812 776.000976562 500 c 1
 632.000976562 500 l 1
 632.000976562 522.666992188 624.500976562 540 609.500976562 552 c 0
 594.500976562 564 578.66796875 570 562.000976562 570 c 2
 276.000976562 570 l 2
 256.66796875 570 240.16796875 563.5 226.500976562 550.5 c 0
 212.833984375 537.5 206.000976562 520.666992188 206.000976562 500 c 2
 206.000976562 417 l 1
 217.333984375 420.333007812 228.666992188 423.333007812 240 426 c 0
 251.333007812 428.666992188 263.333007812 430 276 430 c 2
 562 430 l 2
612.000976562 164.999023438 m 0
 625.333984375 178.33203125 632.000976562 195.331054688 632.000976562 215.998046875 c 0
 632.000976562 234.665039062 625.16796875 250.998046875 611.500976562 264.998046875 c 0
 597.833984375 278.998046875 581.333984375 285.998046875 562.000976562 285.998046875 c 2
 276.000976562 285.998046875 l 2
 254.000976562 285.998046875 236.833984375 278.665039062 224.500976562 263.998046875 c 0
 212.16796875 249.331054688 206.000976562 233.331054688 206.000976562 215.998046875 c 0
 206.000976562 196.665039062 212.500976562 179.83203125 225.500976562 165.499023438 c 0
 238.500976562 151.166015625 255.333984375 143.999023438 276.000976562 143.999023438 c 2
 562.000976562 143.999023438 l 2
 581.333984375 143.999023438 598.000976562 150.999023438 612.000976562 164.999023438 c 0
EndSplineSet
EndChar

StartChar: seven
Encoding: 55 55 24
Width: 790
GlyphClass: 2
Flags: W
LayerCount: 2
Fore
SplineSet
62 712 m 1
 774 712 l 1
 774 568 l 1
 255 0 l 1
 62 0 l 1
 583 568 l 1
 62 568 l 1
 62 712 l 1
EndSplineSet
EndChar

StartChar: eight
Encoding: 56 56 25
Width: 824
GlyphClass: 2
Flags: W
LayerCount: 2
Fore
SplineSet
707 365 m 0
 725.666992188 345 740.668945312 322.331054688 752.001953125 296.998046875 c 0
 763.334960938 271.665039062 769.001953125 243.998046875 769.001953125 213.998046875 c 0
 769.001953125 183.331054688 763.168945312 154.998046875 751.501953125 128.998046875 c 0
 739.834960938 102.998046875 724.334960938 80.498046875 705.001953125 61.498046875 c 0
 685.668945312 42.498046875 663.001953125 27.498046875 637.001953125 16.498046875 c 0
 611.001953125 5.498046875 584.001953125 -0.001953125 556.001953125 -0.001953125 c 2
 268.001953125 -0.001953125 l 2
 240.001953125 -0.001953125 213.168945312 5.3310546875 187.501953125 15.998046875 c 0
 161.834960938 26.6650390625 139.16796875 41.498046875 119.500976562 60.498046875 c 0
 99.833984375 79.498046875 84.1669921875 102.165039062 72.5 128.498046875 c 0
 60.8330078125 154.831054688 55 183.331054688 55 213.998046875 c 0
 55 243.998046875 60.6669921875 271.665039062 72 296.998046875 c 0
 83.3330078125 322.331054688 98.3330078125 344.998046875 117 364.998046875 c 0
 123.666992188 370.331054688 130.166992188 375.331054688 136.5 379.998046875 c 0
 142.833007812 384.665039062 149.666015625 389.998046875 156.999023438 395.998046875 c 1
 154.999023438 396.665039062 152.666015625 398.165039062 149.999023438 400.498046875 c 0
 147.33203125 402.831054688 144.999023438 404.998046875 142.999023438 406.998046875 c 0
 126.33203125 423.665039062 113.33203125 442.998046875 103.999023438 464.998046875 c 0
 94.666015625 486.998046875 89.9990234375 509.998046875 89.9990234375 533.998046875 c 0
 89.9990234375 557.998046875 94.666015625 580.831054688 103.999023438 602.498046875 c 0
 113.33203125 624.165039062 125.999023438 643.165039062 141.999023438 659.498046875 c 0
 157.999023438 675.831054688 176.83203125 688.6640625 198.499023438 697.997070312 c 0
 220.166015625 707.330078125 243.333007812 711.997070312 268 711.997070312 c 2
 553 711.997070312 l 2
 577.666992188 711.997070312 600.833984375 707.330078125 622.500976562 697.997070312 c 0
 644.16796875 688.6640625 663.000976562 675.831054688 679.000976562 659.498046875 c 0
 695.000976562 643.165039062 707.66796875 624.165039062 717.000976562 602.498046875 c 0
 726.333984375 580.831054688 731.000976562 557.998046875 731.000976562 533.998046875 c 0
 731.000976562 505.998046875 725.16796875 480.831054688 713.500976562 458.498046875 c 0
 701.833984375 436.165039062 686.333984375 415.33203125 667.000976562 395.999023438 c 1
 674.333984375 391.33203125 681.166992188 386.33203125 687.5 380.999023438 c 0
 693.833007812 375.666015625 700.333007812 370.333007812 707 365 c 0
244.001953125 557.998046875 m 0
 239.334960938 554.665039062 236.3359375 551.1640625 235.002929688 547.497070312 c 0
 233.669921875 543.830078125 233.002929688 539.330078125 233.002929688 533.997070312 c 0
 233.002929688 523.997070312 236.3359375 515.497070312 243.002929688 508.497070312 c 0
 249.669921875 501.497070312 258.002929688 497.997070312 268.002929688 497.997070312 c 2
 553.002929688 497.997070312 l 2
 564.3359375 497.997070312 573.168945312 501.330078125 579.501953125 507.997070312 c 0
 585.834960938 514.6640625 589.001953125 523.331054688 589.001953125 533.998046875 c 0
 589.001953125 543.998046875 585.501953125 552.165039062 578.501953125 558.498046875 c 0
 571.501953125 564.831054688 563.001953125 567.998046875 553.001953125 567.998046875 c 2
 268.001953125 567.998046875 l 2
 262.668945312 567.998046875 258.168945312 567.498046875 254.501953125 566.498046875 c 0
 250.834960938 565.498046875 247.334960938 562.665039062 244.001953125 557.998046875 c 0
606.002929688 163.997070312 m 0
 619.3359375 177.330078125 626.00390625 193.998046875 626.00390625 213.998046875 c 0
 626.00390625 221.331054688 624.50390625 229.1640625 621.50390625 237.497070312 c 0
 618.50390625 245.830078125 614.170898438 253.497070312 608.50390625 260.497070312 c 0
 602.836914062 267.497070312 595.669921875 273.330078125 587.002929688 277.997070312 c 0
 578.3359375 282.6640625 568.002929688 284.997070312 556.002929688 284.997070312 c 2
 268.002929688 284.997070312 l 2
 248.669921875 284.997070312 232.169921875 277.830078125 218.502929688 263.497070312 c 0
 204.8359375 249.1640625 198.002929688 232.6640625 198.002929688 213.997070312 c 0
 198.002929688 203.330078125 200.169921875 193.497070312 204.502929688 184.497070312 c 0
 208.8359375 175.497070312 214.3359375 167.830078125 221.002929688 161.497070312 c 0
 227.669921875 155.1640625 235.169921875 150.1640625 243.502929688 146.497070312 c 0
 251.8359375 142.830078125 260.002929688 140.997070312 268.002929688 140.997070312 c 2
 556.002929688 140.997070312 l 2
 576.002929688 140.997070312 592.669921875 148.6640625 606.002929688 163.997070312 c 0
EndSplineSet
EndChar

StartChar: nine
Encoding: 57 57 26
Width: 831
GlyphClass: 2
Flags: W
LayerCount: 2
Fore
SplineSet
706 652 m 0
 726 631.333007812 741.497070312 608.000976562 752.497070312 582.000976562 c 0
 763.497070312 556.000976562 768.997070312 528.000976562 768.997070312 498.000976562 c 2
 768.997070312 214.000976562 l 2
 768.997070312 186.000976562 763.497070312 159.000976562 752.497070312 133.000976562 c 0
 741.497070312 107.000976562 726.497070312 84.16796875 707.497070312 64.5009765625 c 0
 688.497070312 44.833984375 665.830078125 29.1669921875 639.497070312 17.5 c 0
 613.1640625 5.8330078125 584.997070312 0 554.997070312 0 c 2
 269.997070312 0 l 2
 240.6640625 0 213.1640625 5.6669921875 187.497070312 17 c 0
 161.830078125 28.3330078125 139.330078125 43.8330078125 119.997070312 63.5 c 0
 100.6640625 83.1669921875 85.3310546875 105.833984375 73.998046875 131.500976562 c 0
 62.6650390625 157.16796875 56.998046875 184.66796875 56.998046875 214.000976562 c 1
 199.998046875 214.000976562 l 1
 199.998046875 194.000976562 206.831054688 177.333984375 220.498046875 164.000976562 c 0
 234.165039062 150.66796875 250.665039062 144.000976562 269.998046875 144.000976562 c 2
 554.998046875 144.000976562 l 2
 574.331054688 144.000976562 591.331054688 150.833984375 605.998046875 164.500976562 c 0
 620.665039062 178.16796875 627.998046875 194.66796875 627.998046875 214.000976562 c 2
 627.998046875 296.000976562 l 1
 602.665039062 288.66796875 578.33203125 285.000976562 554.999023438 285.000976562 c 2
 269.999023438 285.000976562 l 2
 240.666015625 285.000976562 213.166015625 290.500976562 187.499023438 301.500976562 c 0
 161.83203125 312.500976562 139.33203125 327.66796875 119.999023438 347.000976562 c 0
 100.666015625 366.333984375 85.3330078125 388.833984375 74 414.500976562 c 0
 62.6669921875 440.16796875 57 468.000976562 57 498.000976562 c 0
 57 528.000976562 62.5 556.000976562 73.5 582.000976562 c 0
 84.5 608.000976562 99.5 630.66796875 118.5 650.000976562 c 0
 137.5 669.333984375 160 684.500976562 186 695.500976562 c 0
 212 706.500976562 240 712.000976562 270 712.000976562 c 2
 555 712.000976562 l 2
 585 712.000976562 612.833007812 706.66796875 638.5 696.000976562 c 0
 664.166992188 685.333984375 686.666992188 670.666992188 706 652 c 0
604.997070312 447.000976562 m 0
 620.330078125 462.333984375 627.997070312 479.333984375 627.997070312 498.000976562 c 0
 627.997070312 517.333984375 620.6640625 534.333984375 605.997070312 549.000976562 c 0
 591.330078125 563.66796875 574.330078125 571.000976562 554.997070312 571.000976562 c 2
 269.997070312 571.000976562 l 2
 250.6640625 571.000976562 234.1640625 563.833984375 220.497070312 549.500976562 c 0
 206.830078125 535.16796875 199.997070312 518.000976562 199.997070312 498.000976562 c 0
 199.997070312 480.66796875 206.1640625 464.500976562 218.497070312 449.500976562 c 0
 230.830078125 434.500976562 247.997070312 427.000976562 269.997070312 427.000976562 c 2
 554.997070312 427.000976562 l 2
 564.997070312 427.000976562 574.1640625 429.000976562 582.497070312 433.000976562 c 0
 590.830078125 437.000976562 598.330078125 441.66796875 604.997070312 447.000976562 c 0
EndSplineSet
EndChar

StartChar: colon
Encoding: 58 58 27
Width: 257
GlyphClass: 2
Flags: W
LayerCount: 2
Fore
SplineSet
70 0 m 1
 70 119 l 1
 189 119 l 1
 189 0 l 1
 70 0 l 1
70 257 m 1
 70 376 l 1
 189 376 l 1
 189 257 l 1
 70 257 l 1
EndSplineSet
EndChar

StartChar: semicolon
Encoding: 59 59 28
Width: 233
GlyphClass: 2
Flags: W
LayerCount: 2
Fore
SplineSet
70 257 m 1
 70 376 l 1
 189 376 l 1
 189 257 l 1
 70 257 l 1
70 -59 m 1
 70 119 l 1
 189 119 l 1
 189 0 l 1
 70 -59 l 1
EndSplineSet
EndChar

StartChar: less
Encoding: 60 60 29
Width: 610
GlyphClass: 2
Flags: W
LayerCount: 2
Fore
SplineSet
541 131 m 1
 541 29 l 1
 70 301 l 1
 70 402 l 1
 541 674 l 1
 541 571 l 1
 158 351 l 1
 541 131 l 1
EndSplineSet
EndChar

StartChar: equal
Encoding: 61 61 30
Width: 622
GlyphClass: 2
Flags: W
LayerCount: 2
Fore
SplineSet
362 363 m 1
 70 363 l 1
 70 463 l 1
 361 463 l 1
 552 463 l 1
 552 363 l 1
 362 363 l 1
362 163 m 1
 70 163 l 1
 70 263 l 1
 361 263 l 1
 552 263 l 1
 552 163 l 1
 362 163 l 1
EndSplineSet
EndChar

StartChar: greater
Encoding: 62 62 31
Width: 610
GlyphClass: 2
Flags: W
LayerCount: 2
Fore
SplineSet
70 130 m 1
 453 350 l 1
 70 570 l 1
 70 673 l 1
 541 401 l 1
 541 300 l 1
 70 28 l 1
 70 130 l 1
EndSplineSet
EndChar

StartChar: question
Encoding: 63 63 32
Width: 830
GlyphClass: 2
Flags: W
LayerCount: 2
Fore
SplineSet
724 650 m 0
 742.666992188 630.666992188 757.66796875 608.000976562 769.000976562 582.000976562 c 0
 780.333984375 556.000976562 786.000976562 528.000976562 786.000976562 498.000976562 c 0
 786.000976562 468.66796875 780.500976562 441.16796875 769.500976562 415.500976562 c 0
 758.500976562 389.833984375 743.333984375 367.166992188 724.000976562 347.5 c 0
 704.66796875 327.833007812 682.000976562 312.333007812 656.000976562 301 c 0
 630.000976562 289.666992188 602.000976562 284 572.000976562 284 c 0
 561.333984375 284 551.666992188 281.833007812 543 277.5 c 0
 534.333007812 273.166992188 527 267.666992188 521 261 c 0
 515 254.333007812 510.333007812 246.833007812 507 238.5 c 0
 503.666992188 230.166992188 502 222 502 214 c 2
 502 141 l 1
 358 141 l 1
 358 214 l 2
 358 242.666992188 363.5 270 374.5 296 c 0
 385.5 322 400.666992188 344.666992188 420 364 c 0
 439.333007812 383.333007812 462 398.833007812 488 410.5 c 0
 514 422.166992188 542 428 572 428 c 0
 590.666992188 428 607 434.333007812 621 447 c 0
 635 459.666992188 642 476.666992188 642 498 c 0
 642 520.666992188 634.833007812 538.166992188 620.5 550.5 c 0
 606.166992188 562.833007812 590 569 572 569 c 2
 285 569 l 2
 267 569 250.833007812 562.833007812 236.5 550.5 c 0
 222.166992188 538.166992188 215 520.666992188 215 498 c 1
 71 498 l 1
 71 528 76.5 556 87.5 582 c 0
 98.5 608 113.666992188 630.666992188 133 650 c 0
 152.333007812 669.333007812 175 684.5 201 695.5 c 0
 227 706.5 255 712 285 712 c 2
 572 712 l 2
 602 712 630 706.333007812 656 695 c 0
 682 683.666992188 704.666992188 668.666992188 724 650 c 0
499.000976562 0.0009765625 m 1
 355.000976562 0.0009765625 l 1
 355.000976562 43.0009765625 l 1
 499.000976562 43.0009765625 l 1
 499.000976562 0.0009765625 l 1
EndSplineSet
EndChar

StartChar: at
Encoding: 64 64 33
Width: 910
GlyphClass: 2
Flags: W
LayerCount: 2
Fore
SplineSet
553 -49 m 2
 597 -49 637.66015625 -40.8359375 674.993164062 -24.5029296875 c 0
 712.326171875 -8.169921875 744.993164062 13.9970703125 772.993164062 41.9970703125 c 1
 825.993164062 -10.0029296875 l 1
 789.993164062 -46.0029296875 748.993164062 -73.8359375 702.993164062 -93.5029296875 c 0
 656.993164062 -113.169921875 606.993164062 -123.002929688 552.993164062 -123.002929688 c 2
 454.993164062 -123.002929688 l 2
 400.993164062 -123.002929688 350.66015625 -112.8359375 303.993164062 -92.5029296875 c 0
 257.326171875 -72.169921875 216.659179688 -44.5029296875 181.9921875 -9.5029296875 c 0
 147.325195312 25.4970703125 119.9921875 66.330078125 99.9921875 112.997070312 c 0
 79.9921875 159.6640625 69.9921875 209.6640625 69.9921875 262.997070312 c 2
 69.9921875 456.997070312 l 2
 69.9921875 510.330078125 79.9921875 560.330078125 99.9921875 606.997070312 c 0
 119.9921875 653.6640625 147.4921875 694.497070312 182.4921875 729.497070312 c 0
 217.4921875 764.497070312 258.325195312 791.997070312 304.9921875 811.997070312 c 0
 351.659179688 831.997070312 401.659179688 841.997070312 454.9921875 841.997070312 c 0
 507.659179688 841.997070312 557.4921875 831.997070312 604.4921875 811.997070312 c 0
 651.4921875 791.997070312 692.4921875 764.6640625 727.4921875 729.997070312 c 0
 762.4921875 695.330078125 790.159179688 654.497070312 810.4921875 607.497070312 c 0
 830.825195312 560.497070312 840.9921875 510.330078125 840.9921875 456.997070312 c 0
 840.9921875 406.997070312 832.325195312 359.997070312 814.9921875 315.997070312 c 0
 797.659179688 271.997070312 773.826171875 233.1640625 743.493164062 199.497070312 c 0
 713.16015625 165.830078125 677.327148438 137.997070312 635.994140625 115.997070312 c 0
 594.661132812 93.9970703125 550.328125 79.9970703125 502.995117188 73.9970703125 c 0
 497.662109375 72.6640625 492.662109375 71.8310546875 487.995117188 71.498046875 c 0
 483.328125 71.1650390625 478.661132812 70.998046875 473.994140625 70.998046875 c 2
 454.994140625 70.998046875 l 1
 454.994140625 71.998046875 l 1
 432.327148438 74.6650390625 411.327148438 81.33203125 391.994140625 91.9990234375 c 0
 372.661132812 102.666015625 355.828125 116.333007812 341.495117188 133 c 0
 327.162109375 149.666992188 315.829101562 168.833984375 307.49609375 190.500976562 c 0
 299.163085938 212.16796875 294.99609375 235.66796875 294.99609375 261.000976562 c 0
 294.99609375 287.000976562 299.663085938 311.500976562 308.99609375 334.500976562 c 0
 318.329101562 357.500976562 331.162109375 377.500976562 347.495117188 394.500976562 c 0
 363.828125 411.500976562 382.828125 425.000976562 404.495117188 435.000976562 c 0
 426.162109375 445.000976562 449.329101562 450.000976562 473.99609375 450.000976562 c 0
 485.99609375 450.000976562 498.663085938 448.16796875 511.99609375 444.500976562 c 0
 525.329101562 440.833984375 543.329101562 434.333984375 565.99609375 425.000976562 c 1
 565.99609375 498.000976562 l 2
 565.99609375 521.333984375 558.329101562 541.166992188 542.99609375 557.5 c 0
 527.663085938 573.833007812 509.330078125 582 487.997070312 582 c 0
 469.330078125 582 452.997070312 575.833007812 438.997070312 563.5 c 0
 424.997070312 551.166992188 415.997070312 535.666992188 411.997070312 517 c 1
 324.997070312 517 l 1
 326.997070312 539 332.6640625 559.5 341.997070312 578.5 c 0
 351.330078125 597.5 363.330078125 614 377.997070312 628 c 0
 392.6640625 642 409.331054688 653 427.998046875 661 c 0
 446.665039062 669 466.665039062 673 487.998046875 673 c 0
 510.665039062 673 531.998046875 668.5 551.998046875 659.5 c 0
 571.998046875 650.5 589.331054688 638 603.998046875 622 c 0
 618.665039062 606 630.33203125 587.333007812 638.999023438 566 c 0
 647.666015625 544.666992188 651.999023438 522 651.999023438 498 c 2
 651.999023438 215 l 1
 675.999023438 236 l 2
 703.999023438 264.666992188 726.166015625 297.666992188 742.499023438 335 c 0
 758.83203125 372.333007812 766.999023438 413 766.999023438 457 c 0
 766.999023438 499.666992188 758.83203125 540 742.499023438 578 c 0
 726.166015625 616 703.833007812 649 675.5 677 c 0
 647.166992188 705 614 727.166992188 576 743.5 c 0
 538 759.833007812 497.666992188 768 455 768 c 0
 411.666992188 768 371.166992188 759.833007812 333.5 743.5 c 0
 295.833007812 727.166992188 263 705 235 677 c 0
 207 649 184.833007812 616 168.5 578 c 0
 152.166992188 540 144 499.666992188 144 457 c 2
 144 263 l 2
 144 219.666992188 152.166992188 179 168.5 141 c 0
 184.833007812 103 207 70 235 42 c 0
 263 14 295.833007812 -8.1669921875 333.5 -24.5 c 0
 371.166992188 -40.8330078125 411.666992188 -49 455 -49 c 2
 553 -49 l 2
380.993164062 260.997070312 m 0
 380.993164062 247.6640625 383.493164062 234.997070312 388.493164062 222.997070312 c 0
 393.493164062 210.997070312 400.16015625 200.497070312 408.493164062 191.497070312 c 0
 416.826171875 182.497070312 426.659179688 175.330078125 437.9921875 169.997070312 c 0
 449.325195312 164.6640625 461.325195312 161.997070312 473.9921875 161.997070312 c 0
 486.659179688 161.997070312 498.4921875 164.6640625 509.4921875 169.997070312 c 0
 520.4921875 175.330078125 530.159179688 182.497070312 538.4921875 191.497070312 c 0
 546.825195312 200.497070312 553.4921875 210.997070312 558.4921875 222.997070312 c 0
 563.4921875 234.997070312 565.9921875 247.6640625 565.9921875 260.997070312 c 0
 565.9921875 273.6640625 563.4921875 285.997070312 558.4921875 297.997070312 c 0
 553.4921875 309.997070312 546.825195312 320.497070312 538.4921875 329.497070312 c 0
 530.159179688 338.497070312 520.4921875 345.6640625 509.4921875 350.997070312 c 0
 498.4921875 356.330078125 486.659179688 358.997070312 473.9921875 358.997070312 c 0
 461.325195312 358.997070312 449.325195312 356.330078125 437.9921875 350.997070312 c 0
 426.659179688 345.6640625 416.826171875 338.497070312 408.493164062 329.497070312 c 0
 400.16015625 320.497070312 393.493164062 309.997070312 388.493164062 297.997070312 c 0
 383.493164062 285.997070312 380.993164062 273.6640625 380.993164062 260.997070312 c 0
EndSplineSet
EndChar

StartChar: A
Encoding: 65 65 34
Width: 777
GlyphClass: 2
Flags: W
LayerCount: 2
Fore
SplineSet
310 713 m 1
 465 713 l 1
 746 0 l 1
 592 0 l 1
 550 105 l 1
 228 105 l 1
 185 0 l 1
 31 0 l 1
 310 713 l 1
283 250 m 1
 494 250 l 1
 389 519 l 1
 283 250 l 1
EndSplineSet
EndChar

StartChar: B
Encoding: 66 66 35
Width: 841
GlyphClass: 2
Flags: W
LayerCount: 2
Fore
SplineSet
781 499 m 0
 781 471 776.166992188 445.166992188 766.5 421.5 c 0
 756.833007812 397.833007812 743.333007812 376.333007812 726 357 c 1
 743.333007812 338.333007812 756.833007812 316.833007812 766.5 292.5 c 0
 776.166992188 268.166992188 781 242 781 214 c 0
 781 184 775.5 156.166992188 764.5 130.5 c 0
 753.5 104.833007812 738.333007812 82.3330078125 719 63 c 0
 699.666992188 43.6669921875 677.166992188 28.5 651.5 17.5 c 0
 625.833007812 6.5 598 1 568 1 c 2
 70 1 l 1
 70 712 l 1
 568 712 l 2
 598 712 625.833007812 706.5 651.5 695.5 c 0
 677.166992188 684.5 699.666992188 669.333007812 719 650 c 0
 738.333007812 630.666992188 753.5 608.166992188 764.5 582.5 c 0
 775.5 556.833007812 781 529 781 499 c 0
618 164 m 0
 631.333007812 177.333007812 638 194 638 214 c 0
 638 234.666992188 631.333007812 251.666992188 618 265 c 0
 604.666992188 278.333007812 588 285 568 285 c 2
 210 285 l 1
 210 144 l 1
 568 144 l 2
 588 144 604.666992188 150.666992188 618 164 c 0
618 448 m 0
 631.333007812 465.333007812 638 482.333007812 638 499 c 0
 638 519 631 536.166992188 617 550.5 c 0
 603 564.833007812 586.666992188 572 568 572 c 2
 210 572 l 1
 210 428 l 1
 568 428 l 2
 588 428 604.666992188 434.666992188 618 448 c 0
EndSplineSet
EndChar

StartChar: C
Encoding: 67 67 36
Width: 830
GlyphClass: 2
Flags: W
LayerCount: 2
Fore
SplineSet
702 247 m 1
 776.002929688 246.999023438 l 1
 776.002929688 212.999023438 769.3359375 180.999023438 756.002929688 150.999023438 c 0
 742.669921875 120.999023438 724.669921875 94.83203125 702.002929688 72.4990234375 c 0
 679.3359375 50.166015625 653.002929688 32.4990234375 623.002929688 19.4990234375 c 0
 593.002929688 6.4990234375 561.002929688 -0.0009765625 527.002929688 -0.0009765625 c 2
 312.002929688 -0.0009765625 l 2
 276.669921875 -0.0009765625 243.669921875 6.4990234375 213.002929688 19.4990234375 c 0
 182.3359375 32.4990234375 155.668945312 50.166015625 133.001953125 72.4990234375 c 0
 110.334960938 94.83203125 92.501953125 121.165039062 79.501953125 151.498046875 c 0
 66.501953125 181.831054688 60.001953125 214.331054688 60.001953125 248.998046875 c 2
 60.001953125 463.998046875 l 2
 60.001953125 498.665039062 66.501953125 530.998046875 79.501953125 560.998046875 c 0
 92.501953125 590.998046875 110.334960938 617.331054688 133.001953125 639.998046875 c 0
 155.668945312 662.665039062 182.3359375 680.498046875 213.002929688 693.498046875 c 0
 243.669921875 706.498046875 276.669921875 712.998046875 312.002929688 712.998046875 c 2
 527.002929688 712.998046875 l 2
 560.3359375 712.998046875 592.168945312 706.498046875 622.501953125 693.498046875 c 0
 652.834960938 680.498046875 679.334960938 662.831054688 702.001953125 640.498046875 c 0
 724.668945312 618.165039062 742.668945312 592.165039062 756.001953125 562.498046875 c 0
 769.334960938 532.831054688 776.001953125 500.998046875 776.001953125 466.998046875 c 1
 632.001953125 466.998046875 l 1
 632.001953125 480.998046875 629.168945312 494.331054688 623.501953125 506.998046875 c 0
 617.834960938 519.665039062 610.16796875 530.83203125 600.500976562 540.499023438 c 0
 590.833984375 550.166015625 579.666992188 557.833007812 567 563.5 c 0
 554.333007812 569.166992188 541 572 527 572 c 2
 312 572 l 2
 296.666992188 572 282.5 569.333007812 269.5 564 c 0
 256.5 558.666992188 245.166992188 551.166992188 235.5 541.5 c 0
 225.833007812 531.833007812 218.166015625 520.333007812 212.499023438 507 c 0
 206.83203125 493.666992188 203.999023438 479.333984375 203.999023438 464.000976562 c 2
 203.999023438 249.000976562 l 2
 203.999023438 217.66796875 214.33203125 192.334960938 234.999023438 173.001953125 c 0
 255.666015625 153.668945312 281.333007812 144.001953125 312 144.001953125 c 2
 527 144.001953125 l 2
 541 144.001953125 554.5 146.668945312 567.5 152.001953125 c 0
 580.5 157.334960938 591.666992188 164.66796875 601 174.000976562 c 0
 610.333007812 183.333984375 617.833007812 194.166992188 623.5 206.5 c 0
 629.166992188 218.833007812 632 232.333007812 632 247 c 1
 702 247 l 1
EndSplineSet
EndChar

StartChar: D
Encoding: 68 68 37
Width: 838
GlyphClass: 2
Flags: W
LayerCount: 2
Fore
SplineSet
706 636 m 0
 728.666992188 614.666992188 746.499023438 589.166015625 759.499023438 559.499023438 c 0
 772.499023438 529.83203125 778.999023438 496.999023438 778.999023438 460.999023438 c 2
 778.999023438 247.999023438 l 2
 778.999023438 213.999023438 772.33203125 181.83203125 758.999023438 151.499023438 c 0
 745.666015625 121.166015625 727.833007812 94.8330078125 705.5 72.5 c 0
 683.166992188 50.1669921875 657 32.5 627 19.5 c 0
 597 6.5 565 0 531 0 c 2
 70 0 l 1
 70 712 l 1
 531 712 l 2
 565 712 597 705 627 691 c 0
 657 677 683.333007812 658.666992188 706 636 c 0
637.999023438 460.999023438 m 2
 637.999023438 474.999023438 634.998046875 488.499023438 628.998046875 501.499023438 c 0
 622.998046875 514.499023438 615.165039062 525.83203125 605.498046875 535.499023438 c 0
 595.831054688 545.166015625 584.498046875 552.999023438 571.498046875 558.999023438 c 0
 558.498046875 564.999023438 544.998046875 567.999023438 530.998046875 567.999023438 c 2
 211.998046875 567.999023438 l 1
 211.998046875 141.999023438 l 1
 530.998046875 141.999023438 l 2
 545.665039062 141.999023438 559.498046875 144.83203125 572.498046875 150.499023438 c 0
 585.498046875 156.166015625 596.831054688 163.999023438 606.498046875 173.999023438 c 0
 616.165039062 183.999023438 623.83203125 195.33203125 629.499023438 207.999023438 c 0
 635.166015625 220.666015625 637.999023438 233.999023438 637.999023438 247.999023438 c 2
 637.999023438 460.999023438 l 2
EndSplineSet
EndChar

StartChar: E
Encoding: 69 69 38
Width: 851
GlyphClass: 2
Flags: W
LayerCount: 2
Fore
SplineSet
781 571 m 1
 210 571 l 1
 210 430 l 1
 507 430 l 1
 507 287 l 1
 210 287 l 1
 210 143 l 1
 781 143 l 1
 781 0 l 1
 70 0 l 1
 70 571 l 1
 70 711 l 1
 781 711 l 1
 781 571 l 1
EndSplineSet
EndChar

StartChar: F
Encoding: 70 70 39
Width: 787
GlyphClass: 2
Flags: W
LayerCount: 2
Fore
SplineSet
781 570 m 1
 208 570 l 1
 208 428 l 1
 507 428 l 1
 507 285 l 1
 208 285 l 1
 208 0 l 1
 70 0 l 1
 70 711 l 1
 781 711 l 1
 781 570 l 1
EndSplineSet
EndChar

StartChar: G
Encoding: 71 71 40
Width: 828
GlyphClass: 2
Flags: W
LayerCount: 2
Fore
SplineSet
772 392 m 1
 772 248 l 2
 772 214 765.333007812 182 752 152 c 0
 738.666992188 122 720.666992188 95.6669921875 698 73 c 0
 675.333007812 50.3330078125 648.833007812 32.5 618.5 19.5 c 0
 588.166992188 6.5 556.333984375 0 523.000976562 0 c 2
 307.000976562 0 l 2
 273.000976562 0 241.000976562 6.5 211.000976562 19.5 c 0
 181.000976562 32.5 154.66796875 50.3330078125 132.000976562 73 c 0
 109.333984375 95.6669921875 91.5009765625 122 78.5009765625 152 c 0
 65.5009765625 182 59.0009765625 214 59.0009765625 248 c 2
 59.0009765625 464 l 2
 59.0009765625 497.333007812 65.5009765625 529.166015625 78.5009765625 559.499023438 c 0
 91.5009765625 589.83203125 109.333984375 616.33203125 132.000976562 638.999023438 c 0
 154.66796875 661.666015625 181.000976562 679.666015625 211.000976562 692.999023438 c 0
 241.000976562 706.33203125 273.000976562 712.999023438 307.000976562 712.999023438 c 2
 523.000976562 712.999023438 l 2
 556.333984375 712.999023438 588.166992188 706.33203125 618.5 692.999023438 c 0
 648.833007812 679.666015625 675.333007812 661.666015625 698 638.999023438 c 0
 720.666992188 616.33203125 738.666992188 589.83203125 752 559.499023438 c 0
 765.333007812 529.166015625 772 497.333007812 772 464 c 1
 631 464 l 1
 631 478.666992188 628.166992188 492.5 622.5 505.5 c 0
 616.833007812 518.5 609 530 599 540 c 0
 589 550 577.5 557.833007812 564.5 563.5 c 0
 551.5 569.166992188 537.666992188 572 523 572 c 2
 307 572 l 2
 293 572 279.5 569.166992188 266.5 563.5 c 0
 253.5 557.833007812 242 550 232 540 c 0
 222 530 214.166992188 518.5 208.5 505.5 c 0
 202.833007812 492.5 200 478.666992188 200 464 c 2
 200 248 l 2
 200 233.333007812 202.833007812 219.666015625 208.5 206.999023438 c 0
 214.166992188 194.33203125 222 183.165039062 232 173.498046875 c 0
 242 163.831054688 253.5 156.331054688 266.5 150.998046875 c 0
 279.5 145.665039062 293 142.998046875 307 142.998046875 c 2
 523 142.998046875 l 2
 537.666992188 142.998046875 551.5 145.665039062 564.5 150.998046875 c 0
 577.5 156.331054688 589 163.831054688 599 173.498046875 c 0
 609 183.165039062 616.833007812 194.33203125 622.5 206.999023438 c 0
 628.166992188 219.666015625 631 233.333007812 631 248 c 1
 415 248 l 1
 415 392 l 1
 772 392 l 1
EndSplineSet
EndChar

StartChar: H
Encoding: 72 72 41
Width: 852
GlyphClass: 2
Flags: W
LayerCount: 2
Fore
SplineSet
640 711 m 1
 782 711 l 1
 782 0 l 1
 640 0 l 1
 640 286 l 1
 214 286 l 1
 214 0 l 1
 70 0 l 1
 70 711 l 1
 214 711 l 1
 214 429 l 1
 640 429 l 1
 640 711 l 1
EndSplineSet
EndChar

StartChar: I
Encoding: 73 73 42
Width: 279
GlyphClass: 2
Flags: W
LayerCount: 2
Fore
SplineSet
70 0 m 1
 70 712 l 1
 211 712 l 1
 211 0 l 1
 70 0 l 1
EndSplineSet
EndChar

StartChar: J
Encoding: 74 74 43
Width: 780
GlyphClass: 2
Flags: W
LayerCount: 2
Fore
SplineSet
253 0 m 2
 219 0 186.997070312 6.6669921875 156.997070312 20 c 0
 126.997070312 33.3330078125 100.830078125 51.166015625 78.4970703125 73.4990234375 c 0
 56.1640625 95.83203125 38.3310546875 121.999023438 24.998046875 151.999023438 c 0
 11.6650390625 181.999023438 4.998046875 213.999023438 4.998046875 247.999023438 c 1
 145.998046875 247.999023438 l 1
 145.998046875 233.33203125 148.831054688 219.499023438 154.498046875 206.499023438 c 0
 160.165039062 193.499023438 167.83203125 182.33203125 177.499023438 172.999023438 c 0
 187.166015625 163.666015625 198.499023438 156.166015625 211.499023438 150.499023438 c 0
 224.499023438 144.83203125 238.33203125 141.999023438 252.999023438 141.999023438 c 2
 466.999023438 141.999023438 l 2
 481.666015625 141.999023438 495.666015625 144.83203125 508.999023438 150.499023438 c 0
 522.33203125 156.166015625 533.665039062 163.666015625 542.998046875 172.999023438 c 0
 552.331054688 182.33203125 559.831054688 193.499023438 565.498046875 206.499023438 c 0
 571.165039062 219.499023438 573.998046875 233.33203125 573.998046875 247.999023438 c 2
 573.998046875 710.999023438 l 1
 715.998046875 710.999023438 l 1
 715.998046875 247.999023438 l 2
 715.998046875 213.999023438 709.331054688 181.999023438 695.998046875 151.999023438 c 0
 682.665039062 121.999023438 664.83203125 95.83203125 642.499023438 73.4990234375 c 0
 620.166015625 51.166015625 593.833007812 33.3330078125 563.5 20 c 0
 533.166992188 6.6669921875 501 0 467 0 c 2
 253 0 l 2
EndSplineSet
EndChar

StartChar: K
Encoding: 75 75 44
Width: 830
GlyphClass: 2
Flags: W
LayerCount: 2
Fore
SplineSet
780 710 m 1
 401 473 l 1
 781 0 l 1
 598 0 l 1
 280 398 l 1
 213 355 l 1
 213 0 l 1
 70 0 l 1
 70 710 l 1
 213 710 l 1
 213 523 l 1
 510 710 l 1
 780 710 l 1
EndSplineSet
EndChar

StartChar: L
Encoding: 76 76 45
Width: 789
GlyphClass: 2
Flags: W
LayerCount: 2
Fore
SplineSet
782 144 m 1
 782 0 l 1
 70 0 l 1
 70 712 l 1
 211 712 l 1
 211 144 l 1
 782 144 l 1
EndSplineSet
EndChar

StartChar: M
Encoding: 77 77 46
Width: 851
GlyphClass: 2
Flags: W
LayerCount: 2
Fore
SplineSet
638 711 m 1
 781 711 l 1
 781 0 l 1
 638 0 l 1
 638 509 l 1
 524 397 l 1
 527 397 l 1
 425 297 l 1
 210 509 l 1
 210 0 l 1
 70 0 l 1
 70 711 l 1
 213 711 l 1
 425 498 l 1
 638 711 l 1
EndSplineSet
EndChar

StartChar: N
Encoding: 78 78 47
Width: 854
GlyphClass: 2
Flags: W
LayerCount: 2
Fore
SplineSet
165 711 m 1
 213 711 l 1
 641 465 l 1
 641 711 l 1
 784 711 l 1
 784 0 l 1
 641 0 l 1
 641 302 l 1
 213 548 l 1
 213 0 l 1
 70 0 l 1
 70 711 l 1
 165 711 l 1
EndSplineSet
EndChar

StartChar: O
Encoding: 79 79 48
Width: 829
GlyphClass: 2
Flags: W
LayerCount: 2
Fore
SplineSet
308 0 m 2
 274 0 241.833007812 6.5 211.5 19.5 c 0
 181.166992188 32.5 154.833984375 50.1669921875 132.500976562 72.5 c 0
 110.16796875 94.8330078125 92.5009765625 121.166015625 79.5009765625 151.499023438 c 0
 66.5009765625 181.83203125 60.0009765625 213.999023438 60.0009765625 247.999023438 c 2
 60.0009765625 461.999023438 l 2
 60.0009765625 495.999023438 66.5009765625 528.166015625 79.5009765625 558.499023438 c 0
 92.5009765625 588.83203125 110.16796875 615.165039062 132.500976562 637.498046875 c 0
 154.833984375 659.831054688 181.166992188 677.498046875 211.5 690.498046875 c 0
 241.833007812 703.498046875 274 709.998046875 308 709.998046875 c 2
 522 709.998046875 l 2
 556 709.998046875 588.166992188 703.498046875 618.5 690.498046875 c 0
 648.833007812 677.498046875 675.166015625 659.831054688 697.499023438 637.498046875 c 0
 719.83203125 615.165039062 737.499023438 588.83203125 750.499023438 558.499023438 c 0
 763.499023438 528.166015625 769.999023438 495.999023438 769.999023438 461.999023438 c 2
 769.999023438 247.999023438 l 2
 769.999023438 213.999023438 763.499023438 181.83203125 750.499023438 151.499023438 c 0
 737.499023438 121.166015625 719.83203125 94.8330078125 697.499023438 72.5 c 0
 675.166015625 50.1669921875 648.833007812 32.5 618.5 19.5 c 0
 588.166992188 6.5 556 0 522 0 c 2
 308 0 l 2
233 537 m 0
 223 527 215.000976562 515.833984375 209.000976562 503.500976562 c 0
 203.000976562 491.16796875 200.000976562 477.334960938 200.000976562 462.001953125 c 2
 200.000976562 248.001953125 l 2
 200.000976562 233.334960938 202.833984375 219.66796875 208.500976562 207.000976562 c 0
 214.16796875 194.333984375 222.000976562 183.166992188 232.000976562 173.5 c 0
 242.000976562 163.833007812 253.500976562 156.333007812 266.500976562 151 c 0
 279.500976562 145.666992188 293.333984375 143 308.000976562 143 c 2
 522.000976562 143 l 2
 552.000976562 143 577.000976562 153 597.000976562 173 c 0
 617.000976562 193 627.000976562 218 627.000976562 248 c 2
 627.000976562 462 l 2
 627.000976562 476.666992188 624.333984375 490.5 619.000976562 503.5 c 0
 613.66796875 516.5 606.16796875 528 596.500976562 538 c 0
 586.833984375 548 575.666992188 555.833007812 563 561.5 c 0
 550.333007812 567.166992188 536.666015625 570 521.999023438 570 c 2
 307.999023438 570 l 2
 292.666015625 570 278.833007812 567 266.5 561 c 0
 254.166992188 555 243 547 233 537 c 0
EndSplineSet
EndChar

StartChar: P
Encoding: 80 80 49
Width: 800
GlyphClass: 2
Flags: W
LayerCount: 2
Fore
SplineSet
708 638 m 0
 730.666992188 614.666992188 748.33203125 588.000976562 760.999023438 558.000976562 c 0
 773.666015625 528.000976562 779.999023438 495.66796875 779.999023438 461.000976562 c 0
 779.999023438 427.000976562 773.499023438 395.000976562 760.499023438 365.000976562 c 0
 747.499023438 335.000976562 729.83203125 308.66796875 707.499023438 286.000976562 c 0
 685.166015625 263.333984375 658.833007812 245.500976562 628.5 232.500976562 c 0
 598.166992188 219.500976562 565.666992188 213.000976562 531 213.000976562 c 2
 211 213.000976562 l 1
 211 0.0009765625 l 1
 70 0.0009765625 l 1
 70 710.000976562 l 1
 531 710.000976562 l 2
 565.666992188 710.000976562 598 703.66796875 628 691.000976562 c 0
 658 678.333984375 684.666992188 660.666992188 708 638 c 0
606.998046875 386.000976562 m 0
 626.998046875 406.000976562 636.998046875 431.000976562 636.998046875 461.000976562 c 0
 636.998046875 477.000976562 634.165039062 491.500976562 628.498046875 504.500976562 c 0
 622.831054688 517.500976562 614.998046875 528.833984375 604.998046875 538.500976562 c 0
 594.998046875 548.16796875 583.665039062 555.66796875 570.998046875 561.000976562 c 0
 558.331054688 566.333984375 544.998046875 569.000976562 530.998046875 569.000976562 c 2
 210.998046875 569.000976562 l 1
 210.998046875 356.000976562 l 1
 530.998046875 356.000976562 l 2
 561.665039062 356.000976562 586.998046875 366.000976562 606.998046875 386.000976562 c 0
EndSplineSet
EndChar

StartChar: Q
Encoding: 81 81 50
Width: 832
GlyphClass: 2
Flags: W
LayerCount: 2
Fore
SplineSet
770 249 m 2
 770 220.333007812 765.166992188 192.5 755.5 165.5 c 0
 745.833007812 138.5 732.333007812 115 715 95 c 1
 770 0 l 1
 608 0 l 1
 599 13 l 1
 586.333007812 9.6669921875 573.5 6.6669921875 560.5 4 c 0
 547.5 1.3330078125 534.333007812 0 521 0 c 2
 308 0 l 2
 273.333007812 0 240.833007812 6.5 210.5 19.5 c 0
 180.166992188 32.5 153.833984375 50.1669921875 131.500976562 72.5 c 0
 109.16796875 94.8330078125 91.5009765625 121.166015625 78.5009765625 151.499023438 c 0
 65.5009765625 181.83203125 59.0009765625 214.33203125 59.0009765625 248.999023438 c 2
 59.0009765625 461.999023438 l 2
 59.0009765625 497.33203125 65.66796875 530.33203125 79.0009765625 560.999023438 c 0
 92.333984375 591.666015625 110.333984375 618.333007812 133.000976562 641 c 0
 155.66796875 663.666992188 182.16796875 681.5 212.500976562 694.5 c 0
 242.833984375 707.5 274.666992188 714 308 714 c 2
 521 714 l 2
 553.666992188 714 585 707.666992188 615 695 c 0
 645 682.333007812 671.5 664.833007812 694.5 642.5 c 0
 717.5 620.166992188 735.833007812 593.5 749.5 562.5 c 0
 763.166992188 531.5 770 498 770 462 c 2
 770 249 l 2
628 249 m 1
 628 462.000976562 l 2
 628 478.66796875 625 493.66796875 619 507.000976562 c 0
 613 520.333984375 605.166992188 531.666992188 595.5 541 c 0
 585.833007812 550.333007812 574.5 557.5 561.5 562.5 c 0
 548.5 567.5 535 570 521 570 c 2
 308 570 l 2
 293.333007812 570 279.5 567.333007812 266.5 562 c 0
 253.5 556.666992188 242 549.166992188 232 539.5 c 0
 222 529.833007812 214.166992188 518.5 208.5 505.5 c 0
 202.833007812 492.5 200 478 200 462 c 2
 200 249 l 2
 200 235 202.5 221.666992188 207.5 209 c 0
 212.5 196.333007812 219.833007812 185 229.5 175 c 0
 239.166992188 165 250.666992188 157 264 151 c 0
 277.333007812 145 292 142 308 142 c 2
 524 142 l 1
 462 249 l 1
 628 249 l 1
EndSplineSet
EndChar

StartChar: R
Encoding: 82 82 51
Width: 843
GlyphClass: 2
Flags: W
LayerCount: 2
Fore
SplineSet
70 712 m 1
 568 712.00390625 l 1
 598 708.00390625 626.166992188 699.00390625 652.5 685.00390625 c 0
 678.833007812 671.00390625 701.5 653.170898438 720.5 631.50390625 c 0
 739.5 609.836914062 754.5 585.669921875 765.5 559.002929688 c 0
 776.5 532.3359375 782 504.668945312 782 476.001953125 c 2
 782 466.001953125 l 1
 782 456.001953125 l 2
 782 436.668945312 779.333007812 417.168945312 774 397.501953125 c 0
 768.666992188 377.834960938 761 359.16796875 751 341.500976562 c 0
 741 323.833984375 729.166992188 307.666992188 715.5 293 c 0
 701.833007812 278.333007812 687 266 671 256 c 1
 785 0 l 1
 628 0 l 1
 533 216 l 1
 214 216 l 1
 214 0 l 1
 70 0 l 1
 70 712 l 1
214 360.00390625 m 1
 533 360.002929688 l 2
 547.666992188 360.002929688 561.5 362.669921875 574.5 368.002929688 c 0
 587.5 373.3359375 599 380.8359375 609 390.502929688 c 0
 619 400.169921875 626.833007812 411.336914062 632.5 424.00390625 c 0
 638.166992188 436.670898438 641 450.670898438 641 466.00390625 c 0
 641 480.00390625 638 493.50390625 632 506.50390625 c 0
 626 519.50390625 618 531.00390625 608 541.00390625 c 0
 598 551.00390625 586.5 559.00390625 573.5 565.00390625 c 0
 560.5 571.00390625 547 574.00390625 533 574.00390625 c 2
 214 574.00390625 l 1
 214 360.00390625 l 1
EndSplineSet
EndChar

StartChar: S
Encoding: 83 83 52
Width: 830
GlyphClass: 2
Flags: W
LayerCount: 2
Fore
SplineSet
559 428 m 2
 587.666992188 428 615.004882812 422.501953125 641.004882812 411.501953125 c 0
 667.004882812 400.501953125 689.671875 385.501953125 709.004882812 366.501953125 c 0
 728.337890625 347.501953125 743.837890625 325.001953125 755.504882812 299.001953125 c 0
 767.171875 273.001953125 773.004882812 244.668945312 773.004882812 214.001953125 c 0
 773.004882812 182.668945312 767.171875 154.001953125 755.504882812 128.001953125 c 0
 743.837890625 102.001953125 728.170898438 79.501953125 708.50390625 60.501953125 c 0
 688.836914062 41.501953125 666.169921875 26.6689453125 640.502929688 16.001953125 c 0
 614.8359375 5.3349609375 587.668945312 0.001953125 559.001953125 0.001953125 c 2
 271.001953125 0.001953125 l 2
 241.001953125 0.001953125 213.001953125 5.501953125 187.001953125 16.501953125 c 0
 161.001953125 27.501953125 138.334960938 42.6689453125 119.001953125 62.001953125 c 0
 99.6689453125 81.3349609375 84.501953125 104.001953125 73.501953125 130.001953125 c 0
 62.501953125 156.001953125 57.001953125 184.001953125 57.001953125 214.001953125 c 1
 199.001953125 214.001953125 l 1
 199.001953125 195.334960938 206.334960938 178.66796875 221.001953125 164.000976562 c 0
 235.668945312 149.333984375 252.3359375 142.000976562 271.002929688 142.000976562 c 2
 559.002929688 142.000976562 l 2
 566.3359375 142.000976562 574.168945312 143.66796875 582.501953125 147.000976562 c 0
 590.834960938 150.333984375 598.501953125 155.166992188 605.501953125 161.5 c 0
 612.501953125 167.833007812 618.334960938 175.5 623.001953125 184.5 c 0
 627.668945312 193.5 630.001953125 203.333007812 630.001953125 214 c 0
 630.001953125 235.333007812 622.501953125 252.5 607.501953125 265.5 c 0
 592.501953125 278.5 576.334960938 285 559.001953125 285 c 2
 271.001953125 285 l 2
 240.334960938 285 211.834960938 290.666992188 185.501953125 302 c 0
 159.168945312 313.333007812 136.501953125 328.833007812 117.501953125 348.5 c 0
 98.501953125 368.166992188 83.6689453125 390.833984375 73.001953125 416.500976562 c 0
 62.3349609375 442.16796875 57.001953125 469.66796875 57.001953125 499.000976562 c 0
 57.001953125 529.66796875 62.6689453125 558.000976562 74.001953125 584.000976562 c 0
 85.3349609375 610.000976562 100.66796875 632.500976562 120.000976562 651.500976562 c 0
 139.333984375 670.500976562 162.000976562 685.500976562 188.000976562 696.500976562 c 0
 214.000976562 707.500976562 241.66796875 713.000976562 271.000976562 713.000976562 c 2
 559.000976562 713.000976562 l 2
 587.000976562 713.000976562 614.000976562 707.66796875 640.000976562 697.000976562 c 0
 666.000976562 686.333984375 688.833984375 671.500976562 708.500976562 652.500976562 c 0
 728.16796875 633.500976562 743.834960938 611.000976562 755.501953125 585.000976562 c 0
 767.168945312 559.000976562 773.001953125 530.333984375 773.001953125 499.000976562 c 1
 630.001953125 499.000976562 l 1
 630.001953125 509.66796875 627.834960938 519.66796875 623.501953125 529.000976562 c 0
 619.168945312 538.333984375 613.501953125 546.166992188 606.501953125 552.5 c 0
 599.501953125 558.833007812 591.834960938 563.833007812 583.501953125 567.5 c 0
 575.168945312 571.166992188 567.001953125 573 559.001953125 573 c 2
 271.001953125 573 l 2
 261.668945312 573 252.668945312 570.833007812 244.001953125 566.5 c 0
 235.334960938 562.166992188 227.66796875 556.5 221.000976562 549.5 c 0
 214.333984375 542.5 209.000976562 534.666992188 205.000976562 526 c 0
 201.000976562 517.333007812 199.000976562 508.333007812 199.000976562 499 c 0
 199.000976562 479.666992188 206.16796875 463 220.500976562 449 c 0
 234.833984375 435 251.666992188 428 271 428 c 2
 559 428 l 2
EndSplineSet
EndChar

StartChar: T
Encoding: 84 84 53
Width: 768
GlyphClass: 2
Flags: W
LayerCount: 2
Fore
SplineSet
739 710 m 1
 739 571 l 1
 455 571 l 1
 455 0 l 1
 313 0 l 1
 313 571 l 1
 29 571 l 1
 29 710 l 1
 739 710 l 1
EndSplineSet
EndChar

StartChar: U
Encoding: 85 85 54
Width: 841
GlyphClass: 2
Flags: W
LayerCount: 2
Fore
SplineSet
315 0 m 2
 280.333007812 0 247.834960938 6.5 217.501953125 19.5 c 0
 187.168945312 32.5 160.668945312 50.3330078125 138.001953125 73 c 0
 115.334960938 95.6669921875 97.501953125 122.166992188 84.501953125 152.5 c 0
 71.501953125 182.833007812 65.001953125 215.333007812 65.001953125 250 c 2
 65.001953125 712 l 1
 205.001953125 712 l 1
 205.001953125 250 l 2
 205.001953125 234.666992188 207.834960938 220.5 213.501953125 207.5 c 0
 219.168945312 194.5 227.001953125 183.166992188 237.001953125 173.5 c 0
 247.001953125 163.833007812 258.668945312 156.333007812 272.001953125 151 c 0
 285.334960938 145.666992188 299.66796875 143 315.000976562 143 c 2
 527.000976562 143 l 2
 542.333984375 143 556.666992188 145.666992188 570 151 c 0
 583.333007812 156.333007812 595 163.833007812 605 173.5 c 0
 615 183.166992188 622.833007812 194.5 628.5 207.5 c 0
 634.166992188 220.5 637 234.666992188 637 250 c 2
 637 712 l 1
 777 712 l 1
 777 250 l 2
 777 215.333007812 770.5 182.833007812 757.5 152.5 c 0
 744.5 122.166992188 726.666992188 95.6669921875 704 73 c 0
 681.333007812 50.3330078125 654.833007812 32.5 624.5 19.5 c 0
 594.166992188 6.5 561.666992188 0 527 0 c 2
 315 0 l 2
EndSplineSet
EndChar

StartChar: V
Encoding: 86 86 55
Width: 767
GlyphClass: 2
Flags: W
LayerCount: 2
Fore
SplineSet
585 711 m 1
 737 711 l 1
 454 0 l 1
 312 0 l 1
 29 711 l 1
 181 711 l 1
 384 208 l 1
 585 711 l 1
EndSplineSet
EndChar

StartChar: W
Encoding: 87 87 56
Width: 811
GlyphClass: 2
Flags: W
LayerCount: 2
Fore
SplineSet
615 0 m 1
 470 0 l 1
 406 126 l 1
 326 0 l 1
 182 0 l 1
 49 712 l 1
 195 712 l 1
 293 214 l 1
 406 410 l 1
 520 214 l 1
 618 712 l 1
 764 712 l 1
 615 0 l 1
EndSplineSet
EndChar

StartChar: X
Encoding: 88 88 57
Width: 829
GlyphClass: 2
Flags: W
LayerCount: 2
Fore
SplineSet
767 711 m 1
 504 357 l 1
 773 0 l 1
 594 0 l 1
 413 239 l 1
 234 0 l 1
 56 0 l 1
 325 357 l 1
 59 711 l 1
 237 711 l 1
 413 478 l 1
 589 711 l 1
 767 711 l 1
EndSplineSet
EndChar

StartChar: Y
Encoding: 89 89 58
Width: 756
GlyphClass: 2
Flags: W
LayerCount: 2
Fore
SplineSet
552 712 m 1
 732 712 l 1
 448 337 l 1
 448 0 l 1
 306 0 l 1
 306 337 l 1
 24 712 l 1
 203 712 l 1
 380 480 l 1
 552 712 l 1
EndSplineSet
EndChar

StartChar: Z
Encoding: 90 90 59
Width: 854
GlyphClass: 2
Flags: W
LayerCount: 2
Fore
SplineSet
784 570 m 1
 289 144 l 1
 784 144 l 1
 784 0 l 1
 73 0 l 1
 73 141 l 1
 70 141 l 1
 565 570 l 1
 73 570 l 1
 73 711 l 1
 784 711 l 1
 784 616 l 1
 784 570 l 1
EndSplineSet
EndChar

StartChar: bracketleft
Encoding: 91 91 60
Width: 320
GlyphClass: 2
Flags: W
LayerCount: 2
Fore
SplineSet
70 -62 m 1
 70 750 l 1
 252 750 l 1
 252 700 l 1
 185 700 l 1
 185 -12 l 1
 252 -12 l 1
 252 -62 l 1
 70 -62 l 1
EndSplineSet
EndChar

StartChar: backslash
Encoding: 92 92 61
Width: 710
GlyphClass: 2
Flags: W
LayerCount: 2
Fore
SplineSet
70 729 m 1
 222 729 l 1
 644 -17 l 1
 492 -17 l 1
 70 729 l 1
EndSplineSet
EndChar

StartChar: bracketright
Encoding: 93 93 62
Width: 320
GlyphClass: 2
Flags: W
LayerCount: 2
Fore
SplineSet
70 -62 m 1
 70 -12 l 1
 137 -12 l 1
 137 700 l 1
 70 700 l 1
 70 750 l 1
 252 750 l 1
 252 -62 l 1
 70 -62 l 1
EndSplineSet
EndChar

StartChar: asciicircum
Encoding: 94 94 63
Width: 833
GlyphClass: 2
Flags: W
LayerCount: 2
Fore
SplineSet
407 897 m 1
 528 778 l 1
 498 748 l 1
 407 837 l 1
 317 748 l 1
 285 778 l 1
 407 897 l 1
407 897 m 1
 528 778 l 1
 498 748 l 1
 407 837 l 1
 317 748 l 1
 285 778 l 1
 407 897 l 1
EndSplineSet
EndChar

StartChar: underscore
Encoding: 95 95 64
Width: 500
GlyphClass: 2
Flags: W
LayerCount: 2
Fore
SplineSet
0 -75 m 1
 500 -75 l 1
 500 -125 l 1
 0 -125 l 1
 0 -75 l 1
EndSplineSet
EndChar

StartChar: grave
Encoding: 96 96 65
Width: 208
GlyphClass: 2
Flags: W
LayerCount: 2
Fore
SplineSet
31 824 m 1
 81 874 l 1
 177 780 l 1
 140 745 l 1
 31 824 l 1
EndSplineSet
EndChar

StartChar: a
Encoding: 97 97 66
Width: 776
GlyphClass: 2
Flags: W
LayerCount: 2
Fore
SplineSet
465 713 m 1
 746 0 l 1
 592 0 l 1
 550 105 l 1
 228 105 l 1
 185 0 l 1
 31 0 l 1
 310 713 l 1
 465 713 l 1
494 250 m 1
 389 519 l 1
 283 250 l 1
 494 250 l 1
EndSplineSet
EndChar

StartChar: b
Encoding: 98 98 67
Width: 841
GlyphClass: 2
Flags: W
LayerCount: 2
Fore
SplineSet
781 499 m 0
 781 471 776.166992188 445.166992188 766.5 421.5 c 0
 756.833007812 397.833007812 743.333007812 376.333007812 726 357 c 1
 743.333007812 338.333007812 756.833007812 316.833007812 766.5 292.5 c 0
 776.166992188 268.166992188 781 242 781 214 c 0
 781 184 775.5 156.166992188 764.5 130.5 c 0
 753.5 104.833007812 738.333007812 82.3330078125 719 63 c 0
 699.666992188 43.6669921875 677.166992188 28.5 651.5 17.5 c 0
 625.833007812 6.5 598 1 568 1 c 2
 70 1 l 1
 70 712 l 1
 568 712 l 2
 598 712 625.833007812 706.5 651.5 695.5 c 0
 677.166992188 684.5 699.666992188 669.333007812 719 650 c 0
 738.333007812 630.666992188 753.5 608.166992188 764.5 582.5 c 0
 775.5 556.833007812 781 529 781 499 c 0
618 164 m 0
 631.333007812 177.333007812 638 194 638 214 c 0
 638 234.666992188 631.333007812 251.666992188 618 265 c 0
 604.666992188 278.333007812 588 285 568 285 c 2
 210 285 l 1
 210 144 l 1
 568 144 l 2
 588 144 604.666992188 150.666992188 618 164 c 0
618 448 m 0
 631.333007812 465.333007812 638 482.333007812 638 499 c 0
 638 519 631 536.166992188 617 550.5 c 0
 603 564.833007812 586.666992188 572 568 572 c 2
 210 572 l 1
 210 428 l 1
 568 428 l 2
 588 428 604.666992188 434.666992188 618 448 c 0
EndSplineSet
EndChar

StartChar: c
Encoding: 99 99 68
Width: 830
GlyphClass: 2
Flags: W
LayerCount: 2
Fore
SplineSet
706 248 m 1
 780.001953125 247.99609375 l 1
 780.001953125 213.99609375 773.334960938 181.99609375 760.001953125 151.99609375 c 0
 746.668945312 121.99609375 728.668945312 95.8291015625 706.001953125 73.49609375 c 0
 683.334960938 51.1630859375 656.834960938 33.330078125 626.501953125 19.9970703125 c 0
 596.168945312 6.6640625 564.001953125 -0.0029296875 530.001953125 -0.0029296875 c 2
 313.001953125 -0.0029296875 l 2
 277.668945312 -0.0029296875 244.668945312 6.4970703125 214.001953125 19.4970703125 c 0
 183.334960938 32.4970703125 156.501953125 50.330078125 133.501953125 72.9970703125 c 0
 110.501953125 95.6640625 92.501953125 122.1640625 79.501953125 152.497070312 c 0
 66.501953125 182.830078125 60.001953125 215.330078125 60.001953125 249.997070312 c 2
 60.001953125 466.997070312 l 2
 60.001953125 501.6640625 66.501953125 534.1640625 79.501953125 564.497070312 c 0
 92.501953125 594.830078125 110.501953125 621.330078125 133.501953125 643.997070312 c 0
 156.501953125 666.6640625 183.334960938 684.497070312 214.001953125 697.497070312 c 0
 244.668945312 710.497070312 277.668945312 716.997070312 313.001953125 716.997070312 c 2
 530.001953125 716.997070312 l 2
 564.001953125 716.997070312 596.168945312 710.330078125 626.501953125 696.997070312 c 0
 656.834960938 683.6640625 683.334960938 665.831054688 706.001953125 643.498046875 c 0
 728.668945312 621.165039062 746.668945312 594.998046875 760.001953125 564.998046875 c 0
 773.334960938 534.998046875 780.001953125 503.331054688 780.001953125 469.998046875 c 1
 635.001953125 469.998046875 l 1
 635.001953125 483.998046875 632.168945312 497.331054688 626.501953125 509.998046875 c 0
 620.834960938 522.665039062 613.16796875 533.83203125 603.500976562 543.499023438 c 0
 593.833984375 553.166015625 582.666992188 560.833007812 570 566.5 c 0
 557.333007812 572.166992188 544 575 530 575 c 2
 313 575 l 2
 297.666992188 575 283.5 572.333007812 270.5 567 c 0
 257.5 561.666992188 246.166992188 554.166992188 236.5 544.5 c 0
 226.833007812 534.833007812 219.166015625 523.333007812 213.499023438 510 c 0
 207.83203125 496.666992188 204.999023438 482.333984375 204.999023438 467.000976562 c 2
 204.999023438 250.000976562 l 2
 204.999023438 218.66796875 215.33203125 193.334960938 235.999023438 174.001953125 c 0
 256.666015625 154.668945312 282.333007812 145.001953125 313 145.001953125 c 2
 530 145.001953125 l 2
 544 145.001953125 557.5 147.668945312 570.5 153.001953125 c 0
 583.5 158.334960938 594.666992188 165.66796875 604 175.000976562 c 0
 613.333007812 184.333984375 620.833007812 195.166992188 626.5 207.5 c 0
 632.166992188 219.833007812 635 233.333007812 635 248 c 1
 706 248 l 1
EndSplineSet
EndChar

StartChar: d
Encoding: 100 100 69
Width: 838
GlyphClass: 2
Flags: W
LayerCount: 2
Fore
SplineSet
706 636 m 0
 728.666992188 614.666992188 746.499023438 589.166015625 759.499023438 559.499023438 c 0
 772.499023438 529.83203125 778.999023438 496.999023438 778.999023438 460.999023438 c 2
 778.999023438 247.999023438 l 2
 778.999023438 213.999023438 772.33203125 181.83203125 758.999023438 151.499023438 c 0
 745.666015625 121.166015625 727.833007812 94.8330078125 705.5 72.5 c 0
 683.166992188 50.1669921875 657 32.5 627 19.5 c 0
 597 6.5 565 0 531 0 c 2
 70 0 l 1
 70 712 l 1
 531 712 l 2
 565 712 597 705 627 691 c 0
 657 677 683.333007812 658.666992188 706 636 c 0
637.999023438 460.999023438 m 2
 637.999023438 474.999023438 634.998046875 488.499023438 628.998046875 501.499023438 c 0
 622.998046875 514.499023438 615.165039062 525.83203125 605.498046875 535.499023438 c 0
 595.831054688 545.166015625 584.498046875 552.999023438 571.498046875 558.999023438 c 0
 558.498046875 564.999023438 544.998046875 567.999023438 530.998046875 567.999023438 c 2
 211.998046875 567.999023438 l 1
 211.998046875 141.999023438 l 1
 530.998046875 141.999023438 l 2
 545.665039062 141.999023438 559.498046875 144.83203125 572.498046875 150.499023438 c 0
 585.498046875 156.166015625 596.831054688 163.999023438 606.498046875 173.999023438 c 0
 616.165039062 183.999023438 623.83203125 195.33203125 629.499023438 207.999023438 c 0
 635.166015625 220.666015625 637.999023438 233.999023438 637.999023438 247.999023438 c 2
 637.999023438 460.999023438 l 2
EndSplineSet
EndChar

StartChar: e
Encoding: 101 101 70
Width: 851
GlyphClass: 2
Flags: W
LayerCount: 2
Fore
SplineSet
210 571 m 1
 210 430 l 1
 507 430 l 1
 507 287 l 1
 210 287 l 1
 210 143 l 1
 781 143 l 1
 781 0 l 1
 70 0 l 1
 70 571 l 1
 70 711 l 1
 781 711 l 1
 781 571 l 1
 210 571 l 1
EndSplineSet
EndChar

StartChar: f
Encoding: 102 102 71
Width: 787
GlyphClass: 2
Flags: W
LayerCount: 2
Fore
SplineSet
208 570 m 1
 208 428 l 1
 507 428 l 1
 507 285 l 1
 208 285 l 1
 208 0 l 1
 70 0 l 1
 70 711 l 1
 781 711 l 1
 781 570 l 1
 208 570 l 1
EndSplineSet
EndChar

StartChar: g
Encoding: 103 103 72
Width: 828
GlyphClass: 2
Flags: W
LayerCount: 2
Fore
SplineSet
772 392 m 1
 772 248 l 2
 772 214 765.333007812 182 752 152 c 0
 738.666992188 122 720.666992188 95.6669921875 698 73 c 0
 675.333007812 50.3330078125 648.833007812 32.5 618.5 19.5 c 0
 588.166992188 6.5 556.333984375 0 523.000976562 0 c 2
 307.000976562 0 l 2
 273.000976562 0 241.000976562 6.5 211.000976562 19.5 c 0
 181.000976562 32.5 154.66796875 50.3330078125 132.000976562 73 c 0
 109.333984375 95.6669921875 91.5009765625 122 78.5009765625 152 c 0
 65.5009765625 182 59.0009765625 214 59.0009765625 248 c 2
 59.0009765625 464 l 2
 59.0009765625 497.333007812 65.5009765625 529.166015625 78.5009765625 559.499023438 c 0
 91.5009765625 589.83203125 109.333984375 616.33203125 132.000976562 638.999023438 c 0
 154.66796875 661.666015625 181.000976562 679.666015625 211.000976562 692.999023438 c 0
 241.000976562 706.33203125 273.000976562 712.999023438 307.000976562 712.999023438 c 2
 523.000976562 712.999023438 l 2
 556.333984375 712.999023438 588.166992188 706.33203125 618.5 692.999023438 c 0
 648.833007812 679.666015625 675.333007812 661.666015625 698 638.999023438 c 0
 720.666992188 616.33203125 738.666992188 589.83203125 752 559.499023438 c 0
 765.333007812 529.166015625 772 497.333007812 772 464 c 1
 631 464 l 1
 631 478.666992188 628.166992188 492.5 622.5 505.5 c 0
 616.833007812 518.5 609 530 599 540 c 0
 589 550 577.5 557.833007812 564.5 563.5 c 0
 551.5 569.166992188 537.666992188 572 523 572 c 2
 307 572 l 2
 293 572 279.5 569.166992188 266.5 563.5 c 0
 253.5 557.833007812 242 550 232 540 c 0
 222 530 214.166992188 518.5 208.5 505.5 c 0
 202.833007812 492.5 200 478.666992188 200 464 c 2
 200 248 l 2
 200 233.333007812 202.833007812 219.666015625 208.5 206.999023438 c 0
 214.166992188 194.33203125 222 183.165039062 232 173.498046875 c 0
 242 163.831054688 253.5 156.331054688 266.5 150.998046875 c 0
 279.5 145.665039062 293 142.998046875 307 142.998046875 c 2
 523 142.998046875 l 2
 537.666992188 142.998046875 551.5 145.665039062 564.5 150.998046875 c 0
 577.5 156.331054688 589 163.831054688 599 173.498046875 c 0
 609 183.165039062 616.833007812 194.33203125 622.5 206.999023438 c 0
 628.166992188 219.666015625 631 233.333007812 631 248 c 1
 415 248 l 1
 415 392 l 1
 772 392 l 1
EndSplineSet
EndChar

StartChar: h
Encoding: 104 104 73
Width: 852
GlyphClass: 2
Flags: W
LayerCount: 2
Fore
SplineSet
782 711 m 1
 782 0 l 1
 640 0 l 1
 640 286 l 1
 214 286 l 1
 214 0 l 1
 70 0 l 1
 70 711 l 1
 214 711 l 1
 214 429 l 1
 640 429 l 1
 640 711 l 1
 782 711 l 1
EndSplineSet
EndChar

StartChar: i
Encoding: 105 105 74
Width: 279
GlyphClass: 2
Flags: W
LayerCount: 2
Fore
SplineSet
70 712 m 1
 211 712 l 1
 211 0 l 1
 70 0 l 1
 70 712 l 1
EndSplineSet
EndChar

StartChar: j
Encoding: 106 106 75
Width: 780
GlyphClass: 2
Flags: W
LayerCount: 2
Fore
SplineSet
253 0 m 2
 219 0 186.997070312 6.6669921875 156.997070312 20 c 0
 126.997070312 33.3330078125 100.830078125 51.166015625 78.4970703125 73.4990234375 c 0
 56.1640625 95.83203125 38.3310546875 121.999023438 24.998046875 151.999023438 c 0
 11.6650390625 181.999023438 4.998046875 213.999023438 4.998046875 247.999023438 c 1
 145.998046875 247.999023438 l 1
 145.998046875 233.33203125 148.831054688 219.499023438 154.498046875 206.499023438 c 0
 160.165039062 193.499023438 167.83203125 182.33203125 177.499023438 172.999023438 c 0
 187.166015625 163.666015625 198.499023438 156.166015625 211.499023438 150.499023438 c 0
 224.499023438 144.83203125 238.33203125 141.999023438 252.999023438 141.999023438 c 2
 466.999023438 141.999023438 l 2
 481.666015625 141.999023438 495.666015625 144.83203125 508.999023438 150.499023438 c 0
 522.33203125 156.166015625 533.665039062 163.666015625 542.998046875 172.999023438 c 0
 552.331054688 182.33203125 559.831054688 193.499023438 565.498046875 206.499023438 c 0
 571.165039062 219.499023438 573.998046875 233.33203125 573.998046875 247.999023438 c 2
 573.998046875 710.999023438 l 1
 715.998046875 710.999023438 l 1
 715.998046875 247.999023438 l 2
 715.998046875 213.999023438 709.331054688 181.999023438 695.998046875 151.999023438 c 0
 682.665039062 121.999023438 664.83203125 95.83203125 642.499023438 73.4990234375 c 0
 620.166015625 51.166015625 593.833007812 33.3330078125 563.5 20 c 0
 533.166992188 6.6669921875 501 0 467 0 c 2
 253 0 l 2
EndSplineSet
EndChar

StartChar: k
Encoding: 107 107 76
Width: 830
GlyphClass: 2
Flags: W
LayerCount: 2
Fore
SplineSet
401 473 m 1
 781 0 l 1
 598 0 l 1
 280 398 l 1
 213 355 l 1
 213 0 l 1
 70 0 l 1
 70 710 l 1
 213 710 l 1
 213 523 l 1
 510 710 l 1
 780 710 l 1
 401 473 l 1
EndSplineSet
EndChar

StartChar: l
Encoding: 108 108 77
Width: 789
GlyphClass: 2
Flags: W
LayerCount: 2
Fore
SplineSet
782 0 m 1
 70 0 l 1
 70 712 l 1
 211 712 l 1
 211 144 l 1
 782 144 l 1
 782 0 l 1
EndSplineSet
EndChar

StartChar: m
Encoding: 109 109 78
Width: 851
GlyphClass: 2
Flags: W
LayerCount: 2
Fore
SplineSet
781 711 m 1
 781 0 l 1
 638 0 l 1
 638 509 l 1
 524 397 l 1
 527 397 l 1
 425 297 l 1
 210 509 l 1
 210 0 l 1
 70 0 l 1
 70 711 l 1
 213 711 l 1
 425 498 l 1
 638 711 l 1
 781 711 l 1
EndSplineSet
EndChar

StartChar: n
Encoding: 110 110 79
Width: 854
GlyphClass: 2
Flags: W
LayerCount: 2
Fore
SplineSet
213 711 m 1
 641 465 l 1
 641 711 l 1
 784 711 l 1
 784 0 l 1
 641 0 l 1
 641 302 l 1
 213 548 l 1
 213 0 l 1
 70 0 l 1
 70 711 l 1
 165 711 l 1
 213 711 l 1
EndSplineSet
EndChar

StartChar: o
Encoding: 111 111 80
Width: 830
GlyphClass: 2
Flags: W
LayerCount: 2
Fore
SplineSet
308 0 m 2
 274 0 241.833007812 6.5 211.5 19.5 c 0
 181.166992188 32.5 154.833984375 50.1669921875 132.500976562 72.5 c 0
 110.16796875 94.8330078125 92.5009765625 121.166015625 79.5009765625 151.499023438 c 0
 66.5009765625 181.83203125 60.0009765625 213.999023438 60.0009765625 247.999023438 c 2
 60.0009765625 461.999023438 l 2
 60.0009765625 495.999023438 66.5009765625 528.166015625 79.5009765625 558.499023438 c 0
 92.5009765625 588.83203125 110.16796875 615.165039062 132.500976562 637.498046875 c 0
 154.833984375 659.831054688 181.166992188 677.498046875 211.5 690.498046875 c 0
 241.833007812 703.498046875 274 709.998046875 308 709.998046875 c 2
 522 709.998046875 l 2
 556 709.998046875 588.166992188 703.498046875 618.5 690.498046875 c 0
 648.833007812 677.498046875 675.166015625 659.831054688 697.499023438 637.498046875 c 0
 719.83203125 615.165039062 737.499023438 588.83203125 750.499023438 558.499023438 c 0
 763.499023438 528.166015625 769.999023438 495.999023438 769.999023438 461.999023438 c 2
 769.999023438 247.999023438 l 2
 769.999023438 213.999023438 763.499023438 181.83203125 750.499023438 151.499023438 c 0
 737.499023438 121.166015625 719.83203125 94.8330078125 697.499023438 72.5 c 0
 675.166015625 50.1669921875 648.833007812 32.5 618.5 19.5 c 0
 588.166992188 6.5 556 0 522 0 c 2
 308 0 l 2
233 537 m 0
 223 527 215.000976562 515.833984375 209.000976562 503.500976562 c 0
 203.000976562 491.16796875 200.000976562 477.334960938 200.000976562 462.001953125 c 2
 200.000976562 248.001953125 l 2
 200.000976562 233.334960938 202.833984375 219.66796875 208.500976562 207.000976562 c 0
 214.16796875 194.333984375 222.000976562 183.166992188 232.000976562 173.5 c 0
 242.000976562 163.833007812 253.500976562 156.333007812 266.500976562 151 c 0
 279.500976562 145.666992188 293.333984375 143 308.000976562 143 c 2
 522.000976562 143 l 2
 552.000976562 143 577.000976562 153 597.000976562 173 c 0
 617.000976562 193 627.000976562 218 627.000976562 248 c 2
 627.000976562 462 l 2
 627.000976562 476.666992188 624.333984375 490.5 619.000976562 503.5 c 0
 613.66796875 516.5 606.16796875 528 596.500976562 538 c 0
 586.833984375 548 575.666992188 555.833007812 563 561.5 c 0
 550.333007812 567.166992188 536.666015625 570 521.999023438 570 c 2
 307.999023438 570 l 2
 292.666015625 570 278.833007812 567 266.5 561 c 0
 254.166992188 555 243 547 233 537 c 0
EndSplineSet
EndChar

StartChar: p
Encoding: 112 112 81
Width: 800
GlyphClass: 2
Flags: W
LayerCount: 2
Fore
SplineSet
708 638 m 0
 730.666992188 614.666992188 748.33203125 588.000976562 760.999023438 558.000976562 c 0
 773.666015625 528.000976562 779.999023438 495.66796875 779.999023438 461.000976562 c 0
 779.999023438 427.000976562 773.499023438 395.000976562 760.499023438 365.000976562 c 0
 747.499023438 335.000976562 729.83203125 308.66796875 707.499023438 286.000976562 c 0
 685.166015625 263.333984375 658.833007812 245.500976562 628.5 232.500976562 c 0
 598.166992188 219.500976562 565.666992188 213.000976562 531 213.000976562 c 2
 211 213.000976562 l 1
 211 0.0009765625 l 1
 70 0.0009765625 l 1
 70 710.000976562 l 1
 531 710.000976562 l 2
 565.666992188 710.000976562 598 703.66796875 628 691.000976562 c 0
 658 678.333984375 684.666992188 660.666992188 708 638 c 0
606.998046875 386.000976562 m 0
 626.998046875 406.000976562 636.998046875 431.000976562 636.998046875 461.000976562 c 0
 636.998046875 477.000976562 634.165039062 491.500976562 628.498046875 504.500976562 c 0
 622.831054688 517.500976562 614.998046875 528.833984375 604.998046875 538.500976562 c 0
 594.998046875 548.16796875 583.665039062 555.66796875 570.998046875 561.000976562 c 0
 558.331054688 566.333984375 544.998046875 569.000976562 530.998046875 569.000976562 c 2
 210.998046875 569.000976562 l 1
 210.998046875 356.000976562 l 1
 530.998046875 356.000976562 l 2
 561.665039062 356.000976562 586.998046875 366.000976562 606.998046875 386.000976562 c 0
EndSplineSet
EndChar

StartChar: q
Encoding: 113 113 82
Width: 833
GlyphClass: 2
Flags: W
LayerCount: 2
Fore
SplineSet
771 249 m 2
 771 220.333007812 766.166992188 192.5 756.5 165.5 c 0
 746.833007812 138.5 733.333007812 115 716 95 c 1
 771 0 l 1
 609 0 l 1
 600 13 l 1
 587.333007812 9.6669921875 574.5 6.6669921875 561.5 4 c 0
 548.5 1.3330078125 535.333007812 0 522 0 c 2
 309 0 l 2
 274.333007812 0 241.833007812 6.5 211.5 19.5 c 0
 181.166992188 32.5 154.833984375 50.1669921875 132.500976562 72.5 c 0
 110.16796875 94.8330078125 92.5009765625 121.166015625 79.5009765625 151.499023438 c 0
 66.5009765625 181.83203125 60.0009765625 214.33203125 60.0009765625 248.999023438 c 2
 60.0009765625 461.999023438 l 2
 60.0009765625 497.33203125 66.66796875 530.33203125 80.0009765625 560.999023438 c 0
 93.333984375 591.666015625 111.333984375 618.333007812 134.000976562 641 c 0
 156.66796875 663.666992188 183.16796875 681.5 213.500976562 694.5 c 0
 243.833984375 707.5 275.666992188 714 309 714 c 2
 522 714 l 2
 554.666992188 714 586 707.666992188 616 695 c 0
 646 682.333007812 672.5 664.833007812 695.5 642.5 c 0
 718.5 620.166992188 736.833007812 593.5 750.5 562.5 c 0
 764.166992188 531.5 771 498 771 462 c 2
 771 249 l 2
629 249 m 1
 629 462.000976562 l 2
 629 478.66796875 626 493.66796875 620 507.000976562 c 0
 614 520.333984375 606.166992188 531.666992188 596.5 541 c 0
 586.833007812 550.333007812 575.5 557.5 562.5 562.5 c 0
 549.5 567.5 536 570 522 570 c 2
 309 570 l 2
 294.333007812 570 280.5 567.333007812 267.5 562 c 0
 254.5 556.666992188 243 549.166992188 233 539.5 c 0
 223 529.833007812 215.166992188 518.5 209.5 505.5 c 0
 203.833007812 492.5 201 478 201 462 c 2
 201 249 l 2
 201 235 203.5 221.666992188 208.5 209 c 0
 213.5 196.333007812 220.833007812 185 230.5 175 c 0
 240.166992188 165 251.666992188 157 265 151 c 0
 278.333007812 145 293 142 309 142 c 2
 525 142 l 1
 463 249 l 1
 629 249 l 1
EndSplineSet
EndChar

StartChar: r
Encoding: 114 114 83
Width: 843
GlyphClass: 2
Flags: W
LayerCount: 2
Fore
SplineSet
70 712 m 1
 568 712.00390625 l 1
 598 708.00390625 626.166992188 699.00390625 652.5 685.00390625 c 0
 678.833007812 671.00390625 701.5 653.170898438 720.5 631.50390625 c 0
 739.5 609.836914062 754.5 585.669921875 765.5 559.002929688 c 0
 776.5 532.3359375 782 504.668945312 782 476.001953125 c 2
 782 466.001953125 l 1
 782 456.001953125 l 2
 782 436.668945312 779.333007812 417.168945312 774 397.501953125 c 0
 768.666992188 377.834960938 761 359.16796875 751 341.500976562 c 0
 741 323.833984375 729.166992188 307.666992188 715.5 293 c 0
 701.833007812 278.333007812 687 266 671 256 c 1
 785 0 l 1
 628 0 l 1
 533 216 l 1
 214 216 l 1
 214 0 l 1
 70 0 l 1
 70 712 l 1
214 360.00390625 m 1
 533 360.002929688 l 2
 547.666992188 360.002929688 561.5 362.669921875 574.5 368.002929688 c 0
 587.5 373.3359375 599 380.8359375 609 390.502929688 c 0
 619 400.169921875 626.833007812 411.336914062 632.5 424.00390625 c 0
 638.166992188 436.670898438 641 450.670898438 641 466.00390625 c 0
 641 480.00390625 638 493.50390625 632 506.50390625 c 0
 626 519.50390625 618 531.00390625 608 541.00390625 c 0
 598 551.00390625 586.5 559.00390625 573.5 565.00390625 c 0
 560.5 571.00390625 547 574.00390625 533 574.00390625 c 2
 214 574.00390625 l 1
 214 360.00390625 l 1
EndSplineSet
EndChar

StartChar: s
Encoding: 115 115 84
Width: 830
GlyphClass: 2
Flags: W
LayerCount: 2
Fore
SplineSet
559 428 m 2
 587.666992188 428 615.004882812 422.501953125 641.004882812 411.501953125 c 0
 667.004882812 400.501953125 689.671875 385.501953125 709.004882812 366.501953125 c 0
 728.337890625 347.501953125 743.837890625 325.001953125 755.504882812 299.001953125 c 0
 767.171875 273.001953125 773.004882812 244.668945312 773.004882812 214.001953125 c 0
 773.004882812 182.668945312 767.171875 154.001953125 755.504882812 128.001953125 c 0
 743.837890625 102.001953125 728.170898438 79.501953125 708.50390625 60.501953125 c 0
 688.836914062 41.501953125 666.169921875 26.6689453125 640.502929688 16.001953125 c 0
 614.8359375 5.3349609375 587.668945312 0.001953125 559.001953125 0.001953125 c 2
 271.001953125 0.001953125 l 2
 241.001953125 0.001953125 213.001953125 5.501953125 187.001953125 16.501953125 c 0
 161.001953125 27.501953125 138.334960938 42.6689453125 119.001953125 62.001953125 c 0
 99.6689453125 81.3349609375 84.501953125 104.001953125 73.501953125 130.001953125 c 0
 62.501953125 156.001953125 57.001953125 184.001953125 57.001953125 214.001953125 c 1
 199.001953125 214.001953125 l 1
 199.001953125 195.334960938 206.334960938 178.66796875 221.001953125 164.000976562 c 0
 235.668945312 149.333984375 252.3359375 142.000976562 271.002929688 142.000976562 c 2
 559.002929688 142.000976562 l 2
 566.3359375 142.000976562 574.168945312 143.66796875 582.501953125 147.000976562 c 0
 590.834960938 150.333984375 598.501953125 155.166992188 605.501953125 161.5 c 0
 612.501953125 167.833007812 618.334960938 175.5 623.001953125 184.5 c 0
 627.668945312 193.5 630.001953125 203.333007812 630.001953125 214 c 0
 630.001953125 235.333007812 622.501953125 252.5 607.501953125 265.5 c 0
 592.501953125 278.5 576.334960938 285 559.001953125 285 c 2
 271.001953125 285 l 2
 240.334960938 285 211.834960938 290.666992188 185.501953125 302 c 0
 159.168945312 313.333007812 136.501953125 328.833007812 117.501953125 348.5 c 0
 98.501953125 368.166992188 83.6689453125 390.833984375 73.001953125 416.500976562 c 0
 62.3349609375 442.16796875 57.001953125 469.66796875 57.001953125 499.000976562 c 0
 57.001953125 529.66796875 62.6689453125 558.000976562 74.001953125 584.000976562 c 0
 85.3349609375 610.000976562 100.66796875 632.500976562 120.000976562 651.500976562 c 0
 139.333984375 670.500976562 162.000976562 685.500976562 188.000976562 696.500976562 c 0
 214.000976562 707.500976562 241.66796875 713.000976562 271.000976562 713.000976562 c 2
 559.000976562 713.000976562 l 2
 587.000976562 713.000976562 614.000976562 707.66796875 640.000976562 697.000976562 c 0
 666.000976562 686.333984375 688.833984375 671.500976562 708.500976562 652.500976562 c 0
 728.16796875 633.500976562 743.834960938 611.000976562 755.501953125 585.000976562 c 0
 767.168945312 559.000976562 773.001953125 530.333984375 773.001953125 499.000976562 c 1
 630.001953125 499.000976562 l 1
 630.001953125 509.66796875 627.834960938 519.66796875 623.501953125 529.000976562 c 0
 619.168945312 538.333984375 613.501953125 546.166992188 606.501953125 552.5 c 0
 599.501953125 558.833007812 591.834960938 563.833007812 583.501953125 567.5 c 0
 575.168945312 571.166992188 567.001953125 573 559.001953125 573 c 2
 271.001953125 573 l 2
 261.668945312 573 252.668945312 570.833007812 244.001953125 566.5 c 0
 235.334960938 562.166992188 227.66796875 556.5 221.000976562 549.5 c 0
 214.333984375 542.5 209.000976562 534.666992188 205.000976562 526 c 0
 201.000976562 517.333007812 199.000976562 508.333007812 199.000976562 499 c 0
 199.000976562 479.666992188 206.16796875 463 220.500976562 449 c 0
 234.833984375 435 251.666992188 428 271 428 c 2
 559 428 l 2
EndSplineSet
EndChar

StartChar: t
Encoding: 116 116 85
Width: 768
GlyphClass: 2
Flags: W
LayerCount: 2
Fore
SplineSet
739 571 m 1
 455 571 l 1
 455 0 l 1
 313 0 l 1
 313 571 l 1
 29 571 l 1
 29 710 l 1
 739 710 l 1
 739 571 l 1
EndSplineSet
EndChar

StartChar: u
Encoding: 117 117 86
Width: 841
GlyphClass: 2
Flags: W
LayerCount: 2
Fore
SplineSet
315 0 m 2
 280.333007812 0 247.834960938 6.5 217.501953125 19.5 c 0
 187.168945312 32.5 160.668945312 50.3330078125 138.001953125 73 c 0
 115.334960938 95.6669921875 97.501953125 122.166992188 84.501953125 152.5 c 0
 71.501953125 182.833007812 65.001953125 215.333007812 65.001953125 250 c 2
 65.001953125 712 l 1
 205.001953125 712 l 1
 205.001953125 250 l 2
 205.001953125 234.666992188 207.834960938 220.5 213.501953125 207.5 c 0
 219.168945312 194.5 227.001953125 183.166992188 237.001953125 173.5 c 0
 247.001953125 163.833007812 258.668945312 156.333007812 272.001953125 151 c 0
 285.334960938 145.666992188 299.66796875 143 315.000976562 143 c 2
 527.000976562 143 l 2
 542.333984375 143 556.666992188 145.666992188 570 151 c 0
 583.333007812 156.333007812 595 163.833007812 605 173.5 c 0
 615 183.166992188 622.833007812 194.5 628.5 207.5 c 0
 634.166992188 220.5 637 234.666992188 637 250 c 2
 637 712 l 1
 777 712 l 1
 777 250 l 2
 777 215.333007812 770.5 182.833007812 757.5 152.5 c 0
 744.5 122.166992188 726.666992188 95.6669921875 704 73 c 0
 681.333007812 50.3330078125 654.833007812 32.5 624.5 19.5 c 0
 594.166992188 6.5 561.666992188 0 527 0 c 2
 315 0 l 2
EndSplineSet
EndChar

StartChar: v
Encoding: 118 118 87
Width: 767
GlyphClass: 2
Flags: W
LayerCount: 2
Fore
SplineSet
738 711 m 1
 455 0 l 1
 313 0 l 1
 30 711 l 1
 182 711 l 1
 385 208 l 1
 586 711 l 1
 738 711 l 1
EndSplineSet
EndChar

StartChar: w
Encoding: 119 119 88
Width: 811
GlyphClass: 2
Flags: W
LayerCount: 2
Fore
SplineSet
615 0 m 1
 470 0 l 1
 406 126 l 1
 326 0 l 1
 182 0 l 1
 49 712 l 1
 195 712 l 1
 293 214 l 1
 406 410 l 1
 520 214 l 1
 618 712 l 1
 764 712 l 1
 615 0 l 1
EndSplineSet
EndChar

StartChar: x
Encoding: 120 120 89
Width: 829
GlyphClass: 2
Flags: W
LayerCount: 2
Fore
SplineSet
504 357 m 1
 773 0 l 1
 594 0 l 1
 413 239 l 1
 234 0 l 1
 56 0 l 1
 325 357 l 1
 59 711 l 1
 237 711 l 1
 413 478 l 1
 589 711 l 1
 767 711 l 1
 504 357 l 1
EndSplineSet
EndChar

StartChar: y
Encoding: 121 121 90
Width: 756
GlyphClass: 2
Flags: W
LayerCount: 2
Fore
SplineSet
732 712 m 1
 448 337 l 1
 448 0 l 1
 306 0 l 1
 306 337 l 1
 24 712 l 1
 203 712 l 1
 380 480 l 1
 552 712 l 1
 732 712 l 1
EndSplineSet
EndChar

StartChar: z
Encoding: 122 122 91
Width: 853
GlyphClass: 2
Flags: W
LayerCount: 2
Fore
SplineSet
288 144 m 1
 783 144 l 1
 783 0 l 1
 72 0 l 1
 72 141 l 1
 69 141 l 1
 564 570 l 1
 72 570 l 1
 72 711 l 1
 783 711 l 1
 783 570 l 1
 288 144 l 1
EndSplineSet
EndChar

StartChar: braceleft
Encoding: 123 123 92
Width: 370
GlyphClass: 2
Flags: W
LayerCount: 2
Fore
SplineSet
158 326 m 1
 160.666992188 324 166.166992188 319.163085938 174.5 311.49609375 c 0
 182.833007812 303.829101562 191.166015625 293.329101562 199.499023438 279.99609375 c 0
 207.83203125 266.663085938 215.33203125 249.99609375 221.999023438 229.99609375 c 0
 228.666015625 209.99609375 231.999023438 185.99609375 231.999023438 157.99609375 c 2
 231.999023438 -43.00390625 l 2
 231.999023438 -51.00390625 233.666015625 -58.8369140625 236.999023438 -66.50390625 c 0
 240.33203125 -74.1708984375 244.999023438 -81.337890625 250.999023438 -88.0048828125 c 0
 256.999023438 -94.671875 263.999023438 -100.004882812 271.999023438 -104.004882812 c 0
 279.999023438 -108.004882812 288.999023438 -110.004882812 298.999023438 -110.004882812 c 1
 298.999023438 -202.004882812 l 1
 276.999023438 -202.004882812 256.499023438 -197.671875 237.499023438 -189.004882812 c 0
 218.499023438 -180.337890625 201.999023438 -168.670898438 187.999023438 -154.00390625 c 0
 173.999023438 -139.336914062 162.83203125 -122.50390625 154.499023438 -103.50390625 c 0
 146.166015625 -84.50390625 141.999023438 -64.3369140625 141.999023438 -43.00390625 c 2
 141.999023438 141.99609375 l 2
 141.999023438 179.99609375 135.999023438 211.329101562 123.999023438 235.99609375 c 0
 111.999023438 260.663085938 93.666015625 278.330078125 68.9990234375 288.997070312 c 1
 68.9990234375 362.997070312 l 1
 93.666015625 373.6640625 111.999023438 391.331054688 123.999023438 415.998046875 c 0
 135.999023438 440.665039062 141.999023438 471.998046875 141.999023438 509.998046875 c 2
 141.999023438 694.998046875 l 2
 141.999023438 715.665039062 146.166015625 735.665039062 154.499023438 754.998046875 c 0
 162.83203125 774.331054688 173.999023438 791.331054688 187.999023438 805.998046875 c 0
 201.999023438 820.665039062 218.499023438 832.33203125 237.499023438 840.999023438 c 0
 256.499023438 849.666015625 276.999023438 853.999023438 298.999023438 853.999023438 c 1
 298.999023438 761.999023438 l 1
 288.999023438 761.999023438 279.999023438 759.83203125 271.999023438 755.499023438 c 0
 263.999023438 751.166015625 256.999023438 745.833007812 250.999023438 739.5 c 0
 244.999023438 733.166992188 240.33203125 726 236.999023438 718 c 0
 233.666015625 710 231.999023438 702.333007812 231.999023438 695 c 2
 231.999023438 494 l 2
 231.999023438 466 228.666015625 442 221.999023438 422 c 0
 215.33203125 402 207.83203125 385.166992188 199.499023438 371.5 c 0
 191.166015625 357.833007812 182.833007812 347.333007812 174.5 340 c 0
 166.166992188 332.666992188 160.666992188 328 158 326 c 1
EndSplineSet
EndChar

StartChar: bar
Encoding: 124 124 93
Width: 852
GlyphClass: 2
Flags: W
LayerCount: 2
Fore
SplineSet
366 0 m 1
 366 750 l 1
 481 750 l 1
 481 0 l 1
 366 0 l 1
EndSplineSet
EndChar

StartChar: braceright
Encoding: 125 125 94
Width: 370
GlyphClass: 2
Flags: W
LayerCount: 2
Fore
SplineSet
210 326 m 1
 206.666992188 328 201 332.670898438 193 340.00390625 c 0
 185 347.336914062 176.666992188 357.836914062 168 371.50390625 c 0
 159.333007812 385.170898438 151.833007812 402.00390625 145.5 422.00390625 c 0
 139.166992188 442.00390625 136 466.00390625 136 494.00390625 c 2
 136 695.00390625 l 2
 136 702.336914062 134.333007812 710.00390625 131 718.00390625 c 0
 127.666992188 726.00390625 123 733.170898438 117 739.50390625 c 0
 111 745.836914062 104 751.169921875 96 755.502929688 c 0
 88 759.8359375 79 762.002929688 69 762.002929688 c 1
 69 854.002929688 l 1
 91 854.002929688 111.5 849.669921875 130.5 841.002929688 c 0
 149.5 832.3359375 166 820.668945312 180 806.001953125 c 0
 194 791.334960938 205.166992188 774.334960938 213.5 755.001953125 c 0
 221.833007812 735.668945312 226 715.668945312 226 695.001953125 c 2
 226 510.001953125 l 2
 226 472.001953125 232 440.668945312 244 416.001953125 c 0
 256 391.334960938 274.333007812 373.66796875 299 363.000976562 c 1
 299 289.000976562 l 1
 274.333007812 278.333984375 256 260.666992188 244 236 c 0
 232 211.333007812 226 180 226 142 c 2
 226 -43 l 2
 226 -64.3330078125 221.833007812 -84.5 213.5 -103.5 c 0
 205.166992188 -122.5 194 -139.333007812 180 -154 c 0
 166 -168.666992188 149.5 -180.333984375 130.5 -189.000976562 c 0
 111.5 -197.66796875 91 -202.000976562 69 -202.000976562 c 1
 69 -110.000976562 l 1
 79 -110.000976562 88 -108.000976562 96 -104.000976562 c 0
 104 -100.000976562 111 -94.66796875 117 -88.0009765625 c 0
 123 -81.333984375 127.666992188 -74.1669921875 131 -66.5 c 0
 134.333007812 -58.8330078125 136 -51 136 -43 c 2
 136 158 l 2
 136 186 139.166992188 210 145.5 230 c 0
 151.833007812 250 159.333007812 266.833007812 168 280.5 c 0
 176.666992188 294.166992188 185 304.666992188 193 312 c 0
 201 319.333007812 206.666992188 324 210 326 c 1
EndSplineSet
EndChar

StartChar: dieresis
Encoding: 168 168 96
Width: 830
GlyphClass: 2
Flags: W
LayerCount: 2
Fore
SplineSet
205 746 m 1
 205 796 l 1
 346 796 l 1
 346 746 l 1
 205 746 l 1
447 746 m 1
 447 796 l 1
 588 796 l 1
 588 746 l 1
 447 746 l 1
EndSplineSet
EndChar

StartChar: copyright
Encoding: 169 169 97
Width: 518
GlyphClass: 2
Flags: W
LayerCount: 2
Fore
SplineSet
393 657 m 0
 410.333007812 639.666992188 423.833007812 619.66796875 433.5 597.000976562 c 0
 443.166992188 574.333984375 448 549.666992188 448 523 c 0
 448 497 443 472.5 433 449.5 c 0
 423 426.5 409.5 406.5 392.5 389.5 c 0
 375.5 372.5 355.5 359 332.5 349 c 0
 309.5 339 285 334 259 334 c 0
 232.333007812 334 207.5 339 184.5 349 c 0
 161.5 359 141.5 372.5 124.5 389.5 c 0
 107.5 406.5 94 426.5 84 449.5 c 0
 74 472.5 69 497 69 523 c 0
 69 549 74 573.666992188 84 597 c 0
 94 620.333007812 107.5 640.5 124.5 657.5 c 0
 141.5 674.5 161.666992188 688 185 698 c 0
 208.333007812 708 233 713 259 713 c 0
 285 713 309.5 708 332.5 698 c 0
 355.5 688 375.666992188 674.333007812 393 657 c 0
367 415.000976562 m 0
 396.333007812 443.000976562 411.001953125 479.001953125 411.001953125 523.001953125 c 0
 411.001953125 544.334960938 407.168945312 564.334960938 399.501953125 583.001953125 c 0
 391.834960938 601.668945312 381.16796875 617.8359375 367.500976562 631.502929688 c 0
 353.833984375 645.169921875 337.666992188 656.002929688 319 664.002929688 c 0
 300.333007812 672.002929688 280.333007812 676.002929688 259 676.002929688 c 0
 237 676.002929688 216.666992188 672.002929688 198 664.002929688 c 0
 179.333007812 656.002929688 163.166015625 645.169921875 149.499023438 631.502929688 c 0
 135.83203125 617.8359375 125.165039062 601.668945312 117.498046875 583.001953125 c 0
 109.831054688 564.334960938 105.998046875 544.334960938 105.998046875 523.001953125 c 0
 105.998046875 501.668945312 109.831054688 481.668945312 117.498046875 463.001953125 c 0
 125.165039062 444.334960938 135.83203125 428.16796875 149.499023438 414.500976562 c 0
 163.166015625 400.833984375 179.333007812 390.000976562 198 382.000976562 c 0
 216.666992188 374.000976562 237 370.000976562 259 370.000976562 c 0
 280.333007812 370.000976562 300.333007812 374.000976562 319 382.000976562 c 0
 337.666992188 390.000976562 353.666992188 401.000976562 367 415.000976562 c 0
211.001953125 571.001953125 m 0
 206.334960938 566.334960938 204.00390625 559.668945312 204.00390625 551.001953125 c 2
 204.00390625 495.001953125 l 2
 204.00390625 487.668945312 206.170898438 481.501953125 210.50390625 476.501953125 c 0
 214.836914062 471.501953125 221.669921875 469.001953125 231.002929688 469.001953125 c 2
 287.002929688 469.001953125 l 2
 294.3359375 469.001953125 300.502929688 471.334960938 305.502929688 476.001953125 c 0
 310.502929688 480.668945312 313.002929688 487.001953125 313.002929688 495.001953125 c 1
 351.002929688 495.001953125 l 1
 351.002929688 477.668945312 344.669921875 462.8359375 332.002929688 450.502929688 c 0
 319.3359375 438.169921875 304.3359375 432.002929688 287.002929688 432.002929688 c 2
 231.002929688 432.002929688 l 2
 212.3359375 432.002929688 196.8359375 438.169921875 184.502929688 450.502929688 c 0
 172.169921875 462.8359375 166.002929688 477.668945312 166.002929688 495.001953125 c 2
 166.002929688 551.001953125 l 2
 166.002929688 570.334960938 172.669921875 585.834960938 186.002929688 597.501953125 c 0
 199.3359375 609.168945312 214.3359375 615.001953125 231.002929688 615.001953125 c 2
 287.002929688 615.001953125 l 2
 303.669921875 615.001953125 318.502929688 609.001953125 331.502929688 597.001953125 c 0
 344.502929688 585.001953125 351.002929688 570.001953125 351.002929688 552.001953125 c 1
 313.002929688 552.001953125 l 1
 313.002929688 559.334960938 310.502929688 565.501953125 305.502929688 570.501953125 c 0
 300.502929688 575.501953125 294.3359375 578.001953125 287.002929688 578.001953125 c 2
 231.002929688 578.001953125 l 2
 222.3359375 578.001953125 215.668945312 575.668945312 211.001953125 571.001953125 c 0
EndSplineSet
EndChar

StartChar: guillemotleft
Encoding: 171 171 98
Width: 613
GlyphClass: 2
Flags: W
LayerCount: 2
Fore
SplineSet
278 435 m 1
 153 310 l 1
 278 185 l 1
 278 60 l 1
 28 310 l 1
 278 560 l 1
 278 435 l 1
544 435 m 1
 419 310 l 1
 544 185 l 1
 544 60 l 1
 294 310 l 1
 544 560 l 1
 544 435 l 1
EndSplineSet
EndChar

StartChar: registered
Encoding: 174 174 99
Width: 516
GlyphClass: 2
Flags: W
LayerCount: 2
Fore
SplineSet
391 656 m 0
 408.333007812 638.666992188 421.833007812 618.666992188 431.5 596 c 0
 441.166992188 573.333007812 446 549 446 523 c 0
 446 497 441 472.666992188 431 450 c 0
 421 427.333007812 407.5 407.5 390.5 390.5 c 0
 373.5 373.5 353.666992188 360 331 350 c 0
 308.333007812 340 284 335 258 335 c 0
 232 335 207.5 340 184.5 350 c 0
 161.5 360 141.5 373.5 124.5 390.5 c 0
 107.5 407.5 94.1669921875 427.333007812 84.5 450 c 0
 74.8330078125 472.666992188 70 497 70 523 c 0
 70 549 74.8330078125 573.333007812 84.5 596 c 0
 94.1669921875 618.666992188 107.5 638.5 124.5 655.5 c 0
 141.5 672.5 161.5 686 184.5 696 c 0
 207.5 706 232 711 258 711 c 0
 284 711 308.333007812 706.166992188 331 696.5 c 0
 353.666992188 686.833007812 373.666992188 673.333007812 391 656 c 0
366 416 m 0
 379.333007812 430 390 445.999023438 398 463.999023438 c 0
 406 481.999023438 410 501.666015625 410 522.999023438 c 0
 410 544.33203125 406 564.165039062 398 582.498046875 c 0
 390 600.831054688 379.166992188 616.831054688 365.5 630.498046875 c 0
 351.833007812 644.165039062 335.833007812 654.998046875 317.5 662.998046875 c 0
 299.166992188 670.998046875 279.333984375 674.998046875 258.000976562 674.998046875 c 0
 236.66796875 674.998046875 216.834960938 670.998046875 198.501953125 662.998046875 c 0
 180.168945312 654.998046875 164.168945312 644.165039062 150.501953125 630.498046875 c 0
 136.834960938 616.831054688 126.001953125 600.831054688 118.001953125 582.498046875 c 0
 110.001953125 564.165039062 106.001953125 544.33203125 106.001953125 522.999023438 c 0
 106.001953125 501.666015625 110.001953125 481.833007812 118.001953125 463.5 c 0
 126.001953125 445.166992188 136.834960938 429.166992188 150.501953125 415.5 c 0
 164.168945312 401.833007812 180.168945312 391 198.501953125 383 c 0
 216.834960938 375 236.66796875 371 258.000976562 371 c 0
 279.333984375 371 299.166992188 375 317.5 383 c 0
 335.833007812 391 352 402 366 416 c 0
330 505.999023438 m 2
 320 497.999023438 l 1
 348 432.999023438 l 1
 309 432.999023438 l 1
 285 487.999023438 l 1
 203 487.999023438 l 1
 203 432.999023438 l 1
 168 432.999023438 l 1
 168 613.999023438 l 1
 294 613.999023438 l 2
 310 610.666015625 323 603.499023438 333 592.499023438 c 0
 343 581.499023438 348 567.666015625 348 550.999023438 c 0
 348 533.666015625 342 518.666015625 330 505.999023438 c 2
304 531.999023438 m 0
 309.333007812 537.33203125 312 543.666992188 312 551 c 0
 312 558.333007812 309.333007812 564.666015625 304 569.999023438 c 0
 298.666992188 575.33203125 292.333984375 577.999023438 285.000976562 577.999023438 c 2
 203.000976562 577.999023438 l 1
 203.000976562 523.999023438 l 1
 285.000976562 523.999023438 l 2
 292.333984375 523.999023438 298.666992188 526.666015625 304 531.999023438 c 0
EndSplineSet
EndChar

StartChar: degree
Encoding: 176 176 100
Width: 403
GlyphClass: 2
Flags: W
LayerCount: 2
Fore
SplineSet
353 575 m 0
 353 554.333007812 349 534.833007812 341 516.5 c 0
 333 498.166992188 322.166992188 482.166992188 308.5 468.5 c 0
 294.833007812 454.833007812 278.666015625 444 259.999023438 436 c 0
 241.33203125 428 221.665039062 424 200.998046875 424 c 0
 180.331054688 424 160.831054688 428 142.498046875 436 c 0
 124.165039062 444 108.165039062 454.833007812 94.498046875 468.5 c 0
 80.8310546875 482.166992188 69.998046875 498.166992188 61.998046875 516.5 c 0
 53.998046875 534.833007812 49.998046875 554.333007812 49.998046875 575 c 0
 49.998046875 595.666992188 53.998046875 615.333984375 61.998046875 634.000976562 c 0
 69.998046875 652.66796875 80.8310546875 668.834960938 94.498046875 682.501953125 c 0
 108.165039062 696.168945312 124.165039062 707.001953125 142.498046875 715.001953125 c 0
 160.831054688 723.001953125 180.331054688 727.001953125 200.998046875 727.001953125 c 0
 221.665039062 727.001953125 241.33203125 723.001953125 259.999023438 715.001953125 c 0
 278.666015625 707.001953125 294.833007812 696.168945312 308.5 682.501953125 c 0
 322.166992188 668.834960938 333 652.66796875 341 634.000976562 c 0
 349 615.333984375 353 595.666992188 353 575 c 0
288 575 m 0
 288 599 279.498046875 619.501953125 262.498046875 636.501953125 c 0
 245.498046875 653.501953125 224.998046875 662.001953125 200.998046875 662.001953125 c 0
 188.998046875 662.001953125 177.831054688 659.668945312 167.498046875 655.001953125 c 0
 157.165039062 650.334960938 148.165039062 644.16796875 140.498046875 636.500976562 c 0
 132.831054688 628.833984375 126.6640625 619.666992188 121.997070312 609 c 0
 117.330078125 598.333007812 114.997070312 587 114.997070312 575 c 0
 114.997070312 563 117.330078125 551.833007812 121.997070312 541.5 c 0
 126.6640625 531.166992188 132.831054688 522.166992188 140.498046875 514.5 c 0
 148.165039062 506.833007812 157.165039062 500.666015625 167.498046875 495.999023438 c 0
 177.831054688 491.33203125 188.998046875 488.999023438 200.998046875 488.999023438 c 0
 212.998046875 488.999023438 224.331054688 491.33203125 234.998046875 495.999023438 c 0
 245.665039062 500.666015625 254.83203125 506.833007812 262.499023438 514.5 c 0
 270.166015625 522.166992188 276.333007812 531.166992188 281 541.5 c 0
 285.666992188 551.833007812 288 563 288 575 c 0
EndSplineSet
EndChar

StartChar: acute
Encoding: 180 180 101
Width: 790
GlyphClass: 2
Flags: W
LayerCount: 2
Fore
SplineSet
404 743 m 1
 370 780 l 1
 464 877 l 1
 514 827 l 1
 404 743 l 1
EndSplineSet
EndChar

StartChar: guillemotright
Encoding: 187 187 102
Width: 613
GlyphClass: 2
Flags: W
LayerCount: 2
Fore
SplineSet
337 560 m 1
 587 310 l 1
 337 60 l 1
 337 185 l 1
 462 310 l 1
 337 435 l 1
 337 560 l 1
71 560 m 1
 321 310 l 1
 71 60 l 1
 71 185 l 1
 196 310 l 1
 71 435 l 1
 71 560 l 1
EndSplineSet
EndChar

StartChar: Agrave
Encoding: 192 192 103
Width: 752
GlyphClass: 2
Flags: W
LayerCount: 2
Fore
SplineSet
301 711 m 1
 454 711 l 1
 731 0 l 1
 579 0 l 1
 536 107 l 1
 216 107 l 1
 176 0 l 1
 24 0 l 1
 301 711 l 1
271 249 m 1
 482 249 l 1
 375 515 l 1
 271 249 l 1
375 745 m 1
 266 824 l 1
 316 874 l 1
 412 780 l 1
 375 745 l 1
EndSplineSet
EndChar

StartChar: Aacute
Encoding: 193 193 104
Width: 750
GlyphClass: 2
Flags: W
LayerCount: 2
Fore
SplineSet
299 711 m 1
 448 711 l 1
 727 0 l 1
 574 0 l 1
 531 108 l 1
 213 108 l 1
 173 0 l 1
 20 0 l 1
 299 711 l 1
267 249 m 1
 478 249 l 1
 371 514 l 1
 267 249 l 1
339 783 m 1
 433 877 l 1
 481 827 l 1
 371 748 l 1
 339 783 l 1
EndSplineSet
EndChar

StartChar: Acircumflex
Encoding: 194 194 105
Width: 764
GlyphClass: 2
Flags: W
LayerCount: 2
Fore
SplineSet
305 712 m 1
 458 712 l 1
 738 0 l 1
 587 0 l 1
 544 105 l 1
 222 105 l 1
 179 0 l 1
 26 0 l 1
 305 712 l 1
278 249 m 1
 488 249 l 1
 383 518 l 1
 278 249 l 1
262 782 m 1
 383 903 l 1
 504 782 l 1
 473 752 l 1
 383 843 l 1
 292 752 l 1
 262 782 l 1
EndSplineSet
EndChar

StartChar: Atilde
Encoding: 195 195 106
Width: 777
GlyphClass: 2
Flags: W
LayerCount: 2
Fore
SplineSet
561 831 m 1
 551 810.333007812 537.998046875 791.66796875 521.998046875 775.000976562 c 0
 505.998046875 758.333984375 485.665039062 750.000976562 460.998046875 750.000976562 c 0
 444.998046875 750.000976562 430.331054688 752.833984375 416.998046875 758.500976562 c 0
 403.665039062 764.16796875 391.498046875 770.500976562 380.498046875 777.500976562 c 0
 369.498046875 784.500976562 359.165039062 790.833984375 349.498046875 796.500976562 c 0
 339.831054688 802.16796875 330.998046875 805.000976562 322.998046875 805.000976562 c 0
 310.331054688 805.000976562 300.331054688 801.333984375 292.998046875 794.000976562 c 0
 285.665039062 786.66796875 279.33203125 778.334960938 273.999023438 769.001953125 c 1
 206.999023438 805.001953125 l 1
 212.999023438 815.001953125 219.499023438 824.668945312 226.499023438 834.001953125 c 0
 233.499023438 843.334960938 241.166015625 851.66796875 249.499023438 859.000976562 c 0
 257.83203125 866.333984375 267.33203125 872.166992188 277.999023438 876.5 c 0
 288.666015625 880.833007812 300.333007812 883 313 883 c 0
 327 883 340.333007812 880 353 874 c 0
 365.666992188 868 377.666992188 861.5 389 854.5 c 0
 400.333007812 847.5 411.166015625 841.166992188 421.499023438 835.5 c 0
 431.83203125 829.833007812 441.999023438 827 451.999023438 827 c 0
 462.666015625 827 471.333007812 831 478 839 c 0
 484.666992188 847 490 855.333007812 494 864 c 1
 561 831 l 1
464.998046875 713.001953125 m 1
 745.998046875 0.001953125 l 1
 591.998046875 0.001953125 l 1
 549.998046875 105.001953125 l 1
 227.998046875 105.001953125 l 1
 184.998046875 0.001953125 l 1
 30.998046875 0.001953125 l 1
 309.998046875 713.001953125 l 1
 464.998046875 713.001953125 l 1
493.998046875 250.001953125 m 1
 388.998046875 519.001953125 l 1
 282.998046875 250.001953125 l 1
 493.998046875 250.001953125 l 1
EndSplineSet
EndChar

StartChar: Adieresis
Encoding: 196 196 107
Width: 769
GlyphClass: 2
Flags: W
LayerCount: 2
Fore
SplineSet
311 749 m 1
 168 749 l 1
 168 797 l 1
 311 797 l 1
 311 749 l 1
597 749 m 1
 454 749 l 1
 454 797 l 1
 597 797 l 1
 597 749 l 1
307 713 m 1
 462 713 l 1
 743 0 l 1
 589 0 l 1
 547 105 l 1
 225 105 l 1
 182 0 l 1
 28 0 l 1
 307 713 l 1
280 250 m 1
 491 250 l 1
 386 519 l 1
 280 250 l 1
EndSplineSet
EndChar

StartChar: Aring
Encoding: 197 197 108
Width: 777
GlyphClass: 2
Flags: W
LayerCount: 2
Fore
SplineSet
282 845 m 0
 282 859 284.666992188 872.333007812 290 885 c 0
 295.333007812 897.666992188 302.666015625 908.666992188 311.999023438 918 c 0
 321.33203125 927.333007812 332.33203125 934.666015625 344.999023438 939.999023438 c 0
 357.666015625 945.33203125 370.999023438 947.999023438 384.999023438 947.999023438 c 0
 398.999023438 947.999023438 412.33203125 945.33203125 424.999023438 939.999023438 c 0
 437.666015625 934.666015625 448.666015625 927.333007812 457.999023438 918 c 0
 467.33203125 908.666992188 474.665039062 897.666992188 479.998046875 885 c 0
 485.331054688 872.333007812 487.998046875 859 487.998046875 845 c 0
 487.998046875 831 485.331054688 817.666992188 479.998046875 805 c 0
 474.665039062 792.333007812 467.33203125 781.333007812 457.999023438 772 c 0
 448.666015625 762.666992188 437.666015625 755.333984375 424.999023438 750.000976562 c 0
 412.33203125 744.66796875 398.999023438 742.000976562 384.999023438 742.000976562 c 0
 370.999023438 742.000976562 357.666015625 744.66796875 344.999023438 750.000976562 c 0
 332.33203125 755.333984375 321.33203125 762.666992188 311.999023438 772 c 0
 302.666015625 781.333007812 295.333007812 792.333007812 290 805 c 0
 284.666992188 817.666992188 282 831 282 845 c 0
322 845 m 0
 322 827.666992188 328.166992188 812.833984375 340.5 800.500976562 c 0
 352.833007812 788.16796875 367.666015625 782.000976562 384.999023438 782.000976562 c 0
 402.33203125 782.000976562 417.165039062 788.16796875 429.498046875 800.500976562 c 0
 441.831054688 812.833984375 447.998046875 827.666992188 447.998046875 845 c 0
 447.998046875 862.333007812 441.831054688 877.166015625 429.498046875 889.499023438 c 0
 417.165039062 901.83203125 402.33203125 907.999023438 384.999023438 907.999023438 c 0
 367.666015625 907.999023438 352.833007812 901.83203125 340.5 889.499023438 c 0
 328.166992188 877.166015625 322 862.333007812 322 845 c 0
465 713 m 1
 746 0 l 1
 592 0 l 1
 550 105 l 1
 228 105 l 1
 185 0 l 1
 31 0 l 1
 310 713 l 1
 465 713 l 1
494 250 m 1
 389 519 l 1
 283 250 l 1
 494 250 l 1
EndSplineSet
EndChar

StartChar: AE
Encoding: 198 198 109
Width: 1262
GlyphClass: 2
Flags: W
LayerCount: 2
Fore
SplineSet
323 711 m 1
 1192 711 l 1
 1192 570 l 1
 622 570 l 1
 622 430 l 1
 916 430 l 1
 916 286 l 1
 622 286 l 1
 622 143 l 1
 1192 143 l 1
 1192 0 l 1
 479 0 l 1
 479 106 l 1
 240 106 l 1
 197 0 l 1
 44 0 l 1
 323 711 l 1
479 570 m 1
 421 570 l 1
 295 249 l 1
 479 249 l 1
 479 570 l 1
EndSplineSet
EndChar

StartChar: Ccedilla
Encoding: 199 199 110
Width: 830
GlyphClass: 2
Flags: W
LayerCount: 2
Fore
SplineSet
452 -1 m 1
 451.999023438 -134.995117188 l 1
 380.999023438 -134.995117188 l 1
 401.999023438 -0.9951171875 l 1
 310.999023438 -0.9951171875 l 2
 276.999023438 -0.9951171875 244.83203125 5.5048828125 214.499023438 18.5048828125 c 0
 184.166015625 31.5048828125 157.499023438 49.337890625 134.499023438 72.0048828125 c 0
 111.499023438 94.671875 93.33203125 121.171875 79.9990234375 151.504882812 c 0
 66.666015625 181.837890625 59.9990234375 214.337890625 59.9990234375 249.004882812 c 2
 59.9990234375 463.004882812 l 2
 59.9990234375 497.671875 66.4990234375 530.171875 79.4990234375 560.504882812 c 0
 92.4990234375 590.837890625 110.33203125 617.170898438 132.999023438 639.50390625 c 0
 155.666015625 661.836914062 182.333007812 679.50390625 213 692.50390625 c 0
 243.666992188 705.50390625 276.333984375 712.00390625 311.000976562 712.00390625 c 2
 526.000976562 712.00390625 l 2
 558.000976562 712.00390625 589.000976562 705.670898438 619.000976562 693.00390625 c 0
 649.000976562 680.336914062 675.500976562 663.00390625 698.500976562 641.00390625 c 0
 721.500976562 619.00390625 739.833984375 593.00390625 753.500976562 563.00390625 c 0
 767.16796875 533.00390625 774.000976562 500.670898438 774.000976562 466.00390625 c 1
 629.000976562 466.00390625 l 1
 629.000976562 479.336914062 626.16796875 492.336914062 620.500976562 505.00390625 c 0
 614.833984375 517.670898438 607.166992188 529.00390625 597.5 539.00390625 c 0
 587.833007812 549.00390625 576.833007812 557.170898438 564.5 563.50390625 c 0
 552.166992188 569.836914062 539.333984375 573.00390625 526.000976562 573.00390625 c 2
 311.000976562 573.00390625 l 2
 295.000976562 573.00390625 280.500976562 569.836914062 267.500976562 563.50390625 c 0
 254.500976562 557.170898438 243.333984375 549.00390625 234.000976562 539.00390625 c 0
 224.66796875 529.00390625 217.500976562 517.336914062 212.500976562 504.00390625 c 0
 207.500976562 490.670898438 205.000976562 477.00390625 205.000976562 463.00390625 c 2
 205.000976562 249.00390625 l 2
 205.000976562 235.00390625 207.500976562 221.670898438 212.500976562 209.00390625 c 0
 217.500976562 196.336914062 224.500976562 185.169921875 233.500976562 175.502929688 c 0
 242.500976562 165.8359375 253.500976562 158.168945312 266.500976562 152.501953125 c 0
 279.500976562 146.834960938 294.333984375 144.001953125 311.000976562 144.001953125 c 2
 526.000976562 144.001953125 l 2
 540.000976562 144.001953125 553.333984375 146.668945312 566.000976562 152.001953125 c 0
 578.66796875 157.334960938 589.66796875 164.66796875 599.000976562 174.000976562 c 0
 608.333984375 183.333984375 615.666992188 194.166992188 621 206.5 c 0
 626.333007812 218.833007812 629 232 629 246 c 1
 774 246 l 1
 774 211.333007812 767 179 753 149 c 0
 739 119 720.333007812 92.8330078125 697 70.5 c 0
 673.666992188 48.1669921875 647.166992188 30.6669921875 617.5 18 c 0
 587.833007812 5.3330078125 557.333007812 -1 526 -1 c 2
 452 -1 l 1
451.999023438 -0.9951171875 m 1
 451.998046875 -134.990234375 l 1
 380.998046875 -134.990234375 l 1
 401.998046875 -0.990234375 l 1
 310.998046875 -0.990234375 l 2
 276.998046875 -0.990234375 244.831054688 5.509765625 214.498046875 18.509765625 c 0
 184.165039062 31.509765625 157.498046875 49.3427734375 134.498046875 72.009765625 c 0
 111.498046875 94.6767578125 93.3310546875 121.176757812 79.998046875 151.509765625 c 0
 66.6650390625 181.842773438 59.998046875 214.342773438 59.998046875 249.009765625 c 2
 59.998046875 463.009765625 l 2
 59.998046875 497.676757812 66.498046875 530.176757812 79.498046875 560.509765625 c 0
 92.498046875 590.842773438 110.331054688 617.17578125 132.998046875 639.508789062 c 0
 155.665039062 661.841796875 182.33203125 679.508789062 212.999023438 692.508789062 c 0
 243.666015625 705.508789062 276.333007812 712.008789062 311 712.008789062 c 2
 526 712.008789062 l 2
 558 712.008789062 589 705.67578125 619 693.008789062 c 0
 649 680.341796875 675.5 663.008789062 698.5 641.008789062 c 0
 721.5 619.008789062 739.833007812 593.008789062 753.5 563.008789062 c 0
 767.166992188 533.008789062 774 500.67578125 774 466.008789062 c 1
 629 466.008789062 l 1
 629 479.341796875 626.166992188 492.341796875 620.5 505.008789062 c 0
 614.833007812 517.67578125 607.166015625 529.008789062 597.499023438 539.008789062 c 0
 587.83203125 549.008789062 576.83203125 557.17578125 564.499023438 563.508789062 c 0
 552.166015625 569.841796875 539.333007812 573.008789062 526 573.008789062 c 2
 311 573.008789062 l 2
 295 573.008789062 280.5 569.841796875 267.5 563.508789062 c 0
 254.5 557.17578125 243.333007812 549.008789062 234 539.008789062 c 0
 224.666992188 529.008789062 217.5 517.341796875 212.5 504.008789062 c 0
 207.5 490.67578125 205 477.008789062 205 463.008789062 c 2
 205 249.008789062 l 2
 205 235.008789062 207.5 221.67578125 212.5 209.008789062 c 0
 217.5 196.341796875 224.5 185.174804688 233.5 175.5078125 c 0
 242.5 165.840820312 253.5 158.173828125 266.5 152.506835938 c 0
 279.5 146.83984375 294.333007812 144.006835938 311 144.006835938 c 2
 526 144.006835938 l 2
 540 144.006835938 553.333007812 146.673828125 566 152.006835938 c 0
 578.666992188 157.33984375 589.666992188 164.672851562 599 174.005859375 c 0
 608.333007812 183.338867188 615.666015625 194.171875 620.999023438 206.504882812 c 0
 626.33203125 218.837890625 628.999023438 232.004882812 628.999023438 246.004882812 c 1
 773.999023438 246.004882812 l 1
 773.999023438 211.337890625 766.999023438 179.004882812 752.999023438 149.004882812 c 0
 738.999023438 119.004882812 720.33203125 92.837890625 696.999023438 70.5048828125 c 0
 673.666015625 48.171875 647.166015625 30.671875 617.499023438 18.0048828125 c 0
 587.83203125 5.337890625 557.33203125 -0.9951171875 525.999023438 -0.9951171875 c 2
 451.999023438 -0.9951171875 l 1
EndSplineSet
EndChar

StartChar: Egrave
Encoding: 200 200 111
Width: 788
GlyphClass: 2
Flags: W
LayerCount: 2
Fore
SplineSet
407 745 m 1
 298 826 l 1
 347 876 l 1
 443 780 l 1
 407 745 l 1
760 568 m 1
 195 568 l 1
 195 427 l 1
 488 427 l 1
 488 288 l 1
 195 288 l 1
 195 142 l 1
 760 142 l 1
 760 0 l 1
 53 0 l 1
 53 568 l 1
 53 711 l 1
 760 711 l 1
 760 568 l 1
EndSplineSet
EndChar

StartChar: Eacute
Encoding: 201 201 112
Width: 791
GlyphClass: 2
Flags: W
LayerCount: 2
Fore
SplineSet
756 567 m 1
 192 567 l 1
 192 427 l 1
 483 427 l 1
 483 288 l 1
 192 288 l 1
 192 144 l 1
 756 144 l 1
 756 0 l 1
 49 0 l 1
 49 567 l 1
 49 711 l 1
 756 711 l 1
 756 567 l 1
369 780 m 1
 463 877 l 1
 513 827 l 1
 403 743 l 1
 369 780 l 1
EndSplineSet
EndChar

StartChar: Ecircumflex
Encoding: 202 202 113
Width: 796
GlyphClass: 2
Flags: W
LayerCount: 2
Fore
SplineSet
760 568 m 1
 195 568 l 1
 195 427 l 1
 488 427 l 1
 488 288 l 1
 195 288 l 1
 195 142 l 1
 760 142 l 1
 760 0 l 1
 53 0 l 1
 53 568 l 1
 53 711 l 1
 760 711 l 1
 760 568 l 1
285 778 m 1
 407 897 l 1
 528 778 l 1
 498 748 l 1
 407 837 l 1
 317 748 l 1
 285 778 l 1
EndSplineSet
EndChar

StartChar: Edieresis
Encoding: 203 203 114
Width: 851
GlyphClass: 2
Flags: W
LayerCount: 2
Fore
SplineSet
204 749 m 1
 204 797 l 1
 347 797 l 1
 347 749 l 1
 204 749 l 1
490 749 m 1
 490 797 l 1
 633 797 l 1
 633 749 l 1
 490 749 l 1
781 571 m 1
 210 571 l 1
 210 430 l 1
 507 430 l 1
 507 287 l 1
 210 287 l 1
 210 143 l 1
 781 143 l 1
 781 0 l 1
 70 0 l 1
 70 571 l 1
 70 711 l 1
 781 711 l 1
 781 571 l 1
EndSplineSet
EndChar

StartChar: Igrave
Encoding: 204 204 115
Width: 258
GlyphClass: 2
Flags: W
LayerCount: 2
Fore
SplineSet
65 0 m 1
 65 711 l 1
 207 711 l 1
 207 0 l 1
 65 0 l 1
134 746 m 1
 25 827 l 1
 75 874 l 1
 169 779 l 1
 134 746 l 1
EndSplineSet
EndChar

StartChar: Iacute
Encoding: 205 205 116
Width: 260
GlyphClass: 2
Flags: W
LayerCount: 2
Fore
SplineSet
54 712 m 1
 197 712 l 1
 197 0 l 1
 54 0 l 1
 54 712 l 1
88 780 m 1
 186 876 l 1
 234 829 l 1
 126 746 l 1
 88 780 l 1
EndSplineSet
EndChar

StartChar: Icircumflex
Encoding: 206 206 117
Width: 299
GlyphClass: 2
Flags: W
LayerCount: 2
Fore
SplineSet
79 0 m 1
 79 711 l 1
 220 711 l 1
 220 0 l 1
 79 0 l 1
29 778 m 1
 150 899 l 1
 270 778 l 1
 240 748 l 1
 150 839 l 1
 59 748 l 1
 29 778 l 1
EndSplineSet
EndChar

StartChar: Idieresis
Encoding: 207 207 118
Width: 279
GlyphClass: 2
Flags: W
LayerCount: 2
Fore
SplineSet
277 711 m 1
 277 0 l 1
 134 0 l 1
 134 711 l 1
 277 711 l 1
14 769 m 1
 14 818 l 1
 155 818 l 1
 155 769 l 1
 14 769 l 1
256 766 m 1
 256 815 l 1
 397 815 l 1
 397 766 l 1
 256 766 l 1
EndSplineSet
EndChar

StartChar: Ntilde
Encoding: 209 209 119
Width: 854
GlyphClass: 2
Flags: W
LayerCount: 2
Fore
SplineSet
599 831 m 1
 589 810.333007812 575.998046875 791.66796875 559.998046875 775.000976562 c 0
 543.998046875 758.333984375 523.665039062 750.000976562 498.998046875 750.000976562 c 0
 482.998046875 750.000976562 468.331054688 752.833984375 454.998046875 758.500976562 c 0
 441.665039062 764.16796875 429.498046875 770.500976562 418.498046875 777.500976562 c 0
 407.498046875 784.500976562 397.165039062 790.833984375 387.498046875 796.500976562 c 0
 377.831054688 802.16796875 368.998046875 805.000976562 360.998046875 805.000976562 c 0
 348.331054688 805.000976562 338.331054688 801.333984375 330.998046875 794.000976562 c 0
 323.665039062 786.66796875 317.33203125 778.334960938 311.999023438 769.001953125 c 1
 244.999023438 805.001953125 l 1
 250.999023438 815.001953125 257.499023438 824.668945312 264.499023438 834.001953125 c 0
 271.499023438 843.334960938 279.166015625 851.66796875 287.499023438 859.000976562 c 0
 295.83203125 866.333984375 305.33203125 872.166992188 315.999023438 876.5 c 0
 326.666015625 880.833007812 338.333007812 883 351 883 c 0
 365 883 378.333007812 880 391 874 c 0
 403.666992188 868 415.666992188 861.5 427 854.5 c 0
 438.333007812 847.5 449.166015625 841.166992188 459.499023438 835.5 c 0
 469.83203125 829.833007812 479.999023438 827 489.999023438 827 c 0
 500.666015625 827 509.333007812 831 516 839 c 0
 522.666992188 847 528 855.333007812 532 864 c 1
 599 831 l 1
212.998046875 711.001953125 m 1
 640.998046875 465.001953125 l 1
 640.998046875 711.001953125 l 1
 783.998046875 711.001953125 l 1
 783.998046875 0.001953125 l 1
 640.998046875 0.001953125 l 1
 640.998046875 302.001953125 l 1
 212.998046875 548.001953125 l 1
 212.998046875 0.001953125 l 1
 69.998046875 0.001953125 l 1
 69.998046875 711.001953125 l 1
 164.998046875 711.001953125 l 1
 212.998046875 711.001953125 l 1
EndSplineSet
EndChar

StartChar: Ograve
Encoding: 210 210 120
Width: 829
GlyphClass: 2
Flags: W
LayerCount: 2
Fore
SplineSet
291 826 m 1
 341 876 l 1
 436 780 l 1
 402 745 l 1
 291 826 l 1
308 0 m 2
 274 0 241.833007812 6.5 211.5 19.5 c 0
 181.166992188 32.5 154.833984375 50.1669921875 132.500976562 72.5 c 0
 110.16796875 94.8330078125 92.5009765625 121.166015625 79.5009765625 151.499023438 c 0
 66.5009765625 181.83203125 60.0009765625 213.999023438 60.0009765625 247.999023438 c 2
 60.0009765625 461.999023438 l 2
 60.0009765625 495.999023438 66.5009765625 528.166015625 79.5009765625 558.499023438 c 0
 92.5009765625 588.83203125 110.16796875 615.165039062 132.500976562 637.498046875 c 0
 154.833984375 659.831054688 181.166992188 677.498046875 211.5 690.498046875 c 0
 241.833007812 703.498046875 274 709.998046875 308 709.998046875 c 2
 522 709.998046875 l 2
 556 709.998046875 588.166992188 703.498046875 618.5 690.498046875 c 0
 648.833007812 677.498046875 675.166015625 659.831054688 697.499023438 637.498046875 c 0
 719.83203125 615.165039062 737.499023438 588.83203125 750.499023438 558.499023438 c 0
 763.499023438 528.166015625 769.999023438 495.999023438 769.999023438 461.999023438 c 2
 769.999023438 247.999023438 l 2
 769.999023438 213.999023438 763.499023438 181.83203125 750.499023438 151.499023438 c 0
 737.499023438 121.166015625 719.83203125 94.8330078125 697.499023438 72.5 c 0
 675.166015625 50.1669921875 648.833007812 32.5 618.5 19.5 c 0
 588.166992188 6.5 556 0 522 0 c 2
 308 0 l 2
233 537 m 0
 223 527 215.000976562 515.833984375 209.000976562 503.500976562 c 0
 203.000976562 491.16796875 200.000976562 477.334960938 200.000976562 462.001953125 c 2
 200.000976562 248.001953125 l 2
 200.000976562 233.334960938 202.833984375 219.66796875 208.500976562 207.000976562 c 0
 214.16796875 194.333984375 222.000976562 183.166992188 232.000976562 173.5 c 0
 242.000976562 163.833007812 253.500976562 156.333007812 266.500976562 151 c 0
 279.500976562 145.666992188 293.333984375 143 308.000976562 143 c 2
 522.000976562 143 l 2
 552.000976562 143 577.000976562 153 597.000976562 173 c 0
 617.000976562 193 627.000976562 218 627.000976562 248 c 2
 627.000976562 462 l 2
 627.000976562 476.666992188 624.333984375 490.5 619.000976562 503.5 c 0
 613.66796875 516.5 606.16796875 528 596.500976562 538 c 0
 586.833984375 548 575.666992188 555.833007812 563 561.5 c 0
 550.333007812 567.166992188 536.666015625 570 521.999023438 570 c 2
 307.999023438 570 l 2
 292.666015625 570 278.833007812 567 266.5 561 c 0
 254.166992188 555 243 547 233 537 c 0
EndSplineSet
EndChar

StartChar: Oacute
Encoding: 211 211 121
Width: 829
GlyphClass: 2
Flags: W
LayerCount: 2
Fore
SplineSet
339 783 m 1
 433 877 l 1
 481 827 l 1
 371 748 l 1
 339 783 l 1
308 0 m 2
 274 0 241.833007812 6.5 211.5 19.5 c 0
 181.166992188 32.5 154.833984375 50.1669921875 132.500976562 72.5 c 0
 110.16796875 94.8330078125 92.5009765625 121.166015625 79.5009765625 151.499023438 c 0
 66.5009765625 181.83203125 60.0009765625 213.999023438 60.0009765625 247.999023438 c 2
 60.0009765625 461.999023438 l 2
 60.0009765625 495.999023438 66.5009765625 528.166015625 79.5009765625 558.499023438 c 0
 92.5009765625 588.83203125 110.16796875 615.165039062 132.500976562 637.498046875 c 0
 154.833984375 659.831054688 181.166992188 677.498046875 211.5 690.498046875 c 0
 241.833007812 703.498046875 274 709.998046875 308 709.998046875 c 2
 522 709.998046875 l 2
 556 709.998046875 588.166992188 703.498046875 618.5 690.498046875 c 0
 648.833007812 677.498046875 675.166015625 659.831054688 697.499023438 637.498046875 c 0
 719.83203125 615.165039062 737.499023438 588.83203125 750.499023438 558.499023438 c 0
 763.499023438 528.166015625 769.999023438 495.999023438 769.999023438 461.999023438 c 2
 769.999023438 247.999023438 l 2
 769.999023438 213.999023438 763.499023438 181.83203125 750.499023438 151.499023438 c 0
 737.499023438 121.166015625 719.83203125 94.8330078125 697.499023438 72.5 c 0
 675.166015625 50.1669921875 648.833007812 32.5 618.5 19.5 c 0
 588.166992188 6.5 556 0 522 0 c 2
 308 0 l 2
233 537 m 0
 223 527 215.000976562 515.833984375 209.000976562 503.500976562 c 0
 203.000976562 491.16796875 200.000976562 477.334960938 200.000976562 462.001953125 c 2
 200.000976562 248.001953125 l 2
 200.000976562 233.334960938 202.833984375 219.66796875 208.500976562 207.000976562 c 0
 214.16796875 194.333984375 222.000976562 183.166992188 232.000976562 173.5 c 0
 242.000976562 163.833007812 253.500976562 156.333007812 266.500976562 151 c 0
 279.500976562 145.666992188 293.333984375 143 308.000976562 143 c 2
 522.000976562 143 l 2
 552.000976562 143 577.000976562 153 597.000976562 173 c 0
 617.000976562 193 627.000976562 218 627.000976562 248 c 2
 627.000976562 462 l 2
 627.000976562 476.666992188 624.333984375 490.5 619.000976562 503.5 c 0
 613.66796875 516.5 606.16796875 528 596.500976562 538 c 0
 586.833984375 548 575.666992188 555.833007812 563 561.5 c 0
 550.333007812 567.166992188 536.666015625 570 521.999023438 570 c 2
 307.999023438 570 l 2
 292.666015625 570 278.833007812 567 266.5 561 c 0
 254.166992188 555 243 547 233 537 c 0
EndSplineSet
EndChar

StartChar: Ocircumflex
Encoding: 212 212 122
Width: 829
GlyphClass: 2
Flags: W
LayerCount: 2
Fore
SplineSet
308 0 m 2
 274 0 241.833007812 6.5 211.5 19.5 c 0
 181.166992188 32.5 154.833984375 50.1669921875 132.500976562 72.5 c 0
 110.16796875 94.8330078125 92.5009765625 121.166015625 79.5009765625 151.499023438 c 0
 66.5009765625 181.83203125 60.0009765625 213.999023438 60.0009765625 247.999023438 c 2
 60.0009765625 461.999023438 l 2
 60.0009765625 495.999023438 66.5009765625 528.166015625 79.5009765625 558.499023438 c 0
 92.5009765625 588.83203125 110.16796875 615.165039062 132.500976562 637.498046875 c 0
 154.833984375 659.831054688 181.166992188 677.498046875 211.5 690.498046875 c 0
 241.833007812 703.498046875 274 709.998046875 308 709.998046875 c 2
 522 709.998046875 l 2
 556 709.998046875 588.166992188 703.498046875 618.5 690.498046875 c 0
 648.833007812 677.498046875 675.166015625 659.831054688 697.499023438 637.498046875 c 0
 719.83203125 615.165039062 737.499023438 588.83203125 750.499023438 558.499023438 c 0
 763.499023438 528.166015625 769.999023438 495.999023438 769.999023438 461.999023438 c 2
 769.999023438 247.999023438 l 2
 769.999023438 213.999023438 763.499023438 181.83203125 750.499023438 151.499023438 c 0
 737.499023438 121.166015625 719.83203125 94.8330078125 697.499023438 72.5 c 0
 675.166015625 50.1669921875 648.833007812 32.5 618.5 19.5 c 0
 588.166992188 6.5 556 0 522 0 c 2
 308 0 l 2
233 537 m 0
 223 527 215.000976562 515.833984375 209.000976562 503.500976562 c 0
 203.000976562 491.16796875 200.000976562 477.334960938 200.000976562 462.001953125 c 2
 200.000976562 248.001953125 l 2
 200.000976562 233.334960938 202.833984375 219.66796875 208.500976562 207.000976562 c 0
 214.16796875 194.333984375 222.000976562 183.166992188 232.000976562 173.5 c 0
 242.000976562 163.833007812 253.500976562 156.333007812 266.500976562 151 c 0
 279.500976562 145.666992188 293.333984375 143 308.000976562 143 c 2
 522.000976562 143 l 2
 552.000976562 143 577.000976562 153 597.000976562 173 c 0
 617.000976562 193 627.000976562 218 627.000976562 248 c 2
 627.000976562 462 l 2
 627.000976562 476.666992188 624.333984375 490.5 619.000976562 503.5 c 0
 613.66796875 516.5 606.16796875 528 596.500976562 538 c 0
 586.833984375 548 575.666992188 555.833007812 563 561.5 c 0
 550.333007812 567.166992188 536.666015625 570 521.999023438 570 c 2
 307.999023438 570 l 2
 292.666015625 570 278.833007812 567 266.5 561 c 0
 254.166992188 555 243 547 233 537 c 0
407.000976562 897.000976562 m 1
 528.000976562 778.000976562 l 1
 498.000976562 748.000976562 l 1
 407.000976562 837.000976562 l 1
 317.000976562 748.000976562 l 1
 285.000976562 778.000976562 l 1
 407.000976562 897.000976562 l 1
EndSplineSet
EndChar

StartChar: Otilde
Encoding: 213 213 123
Width: 829
GlyphClass: 2
Flags: W
LayerCount: 2
Fore
SplineSet
586 831 m 1
 576 810.333007812 562.998046875 791.66796875 546.998046875 775.000976562 c 0
 530.998046875 758.333984375 510.665039062 750.000976562 485.998046875 750.000976562 c 0
 469.998046875 750.000976562 455.331054688 752.833984375 441.998046875 758.500976562 c 0
 428.665039062 764.16796875 416.498046875 770.500976562 405.498046875 777.500976562 c 0
 394.498046875 784.500976562 384.165039062 790.833984375 374.498046875 796.500976562 c 0
 364.831054688 802.16796875 355.998046875 805.000976562 347.998046875 805.000976562 c 0
 335.331054688 805.000976562 325.331054688 801.333984375 317.998046875 794.000976562 c 0
 310.665039062 786.66796875 304.33203125 778.334960938 298.999023438 769.001953125 c 1
 231.999023438 805.001953125 l 1
 237.999023438 815.001953125 244.499023438 824.668945312 251.499023438 834.001953125 c 0
 258.499023438 843.334960938 266.166015625 851.66796875 274.499023438 859.000976562 c 0
 282.83203125 866.333984375 292.33203125 872.166992188 302.999023438 876.5 c 0
 313.666015625 880.833007812 325.333007812 883 338 883 c 0
 352 883 365.333007812 880 378 874 c 0
 390.666992188 868 402.666992188 861.5 414 854.5 c 0
 425.333007812 847.5 436.166015625 841.166992188 446.499023438 835.5 c 0
 456.83203125 829.833007812 466.999023438 827 476.999023438 827 c 0
 487.666015625 827 496.333007812 831 503 839 c 0
 509.666992188 847 515 855.333007812 519 864 c 1
 586 831 l 1
307.998046875 0.001953125 m 2
 273.998046875 0.001953125 241.831054688 6.501953125 211.498046875 19.501953125 c 0
 181.165039062 32.501953125 154.83203125 50.1689453125 132.499023438 72.501953125 c 0
 110.166015625 94.8349609375 92.4990234375 121.16796875 79.4990234375 151.500976562 c 0
 66.4990234375 181.833984375 59.9990234375 214.000976562 59.9990234375 248.000976562 c 2
 59.9990234375 462.000976562 l 2
 59.9990234375 496.000976562 66.4990234375 528.16796875 79.4990234375 558.500976562 c 0
 92.4990234375 588.833984375 110.166015625 615.166992188 132.499023438 637.5 c 0
 154.83203125 659.833007812 181.165039062 677.5 211.498046875 690.5 c 0
 241.831054688 703.5 273.998046875 710 307.998046875 710 c 2
 521.998046875 710 l 2
 555.998046875 710 588.165039062 703.5 618.498046875 690.5 c 0
 648.831054688 677.5 675.1640625 659.833007812 697.497070312 637.5 c 0
 719.830078125 615.166992188 737.497070312 588.833984375 750.497070312 558.500976562 c 0
 763.497070312 528.16796875 769.997070312 496.000976562 769.997070312 462.000976562 c 2
 769.997070312 248.000976562 l 2
 769.997070312 214.000976562 763.497070312 181.833984375 750.497070312 151.500976562 c 0
 737.497070312 121.16796875 719.830078125 94.8349609375 697.497070312 72.501953125 c 0
 675.1640625 50.1689453125 648.831054688 32.501953125 618.498046875 19.501953125 c 0
 588.165039062 6.501953125 555.998046875 0.001953125 521.998046875 0.001953125 c 2
 307.998046875 0.001953125 l 2
232.998046875 537.001953125 m 0
 222.998046875 527.001953125 214.999023438 515.8359375 208.999023438 503.502929688 c 0
 202.999023438 491.169921875 199.999023438 477.336914062 199.999023438 462.00390625 c 2
 199.999023438 248.00390625 l 2
 199.999023438 233.336914062 202.83203125 219.669921875 208.499023438 207.002929688 c 0
 214.166015625 194.3359375 221.999023438 183.168945312 231.999023438 173.501953125 c 0
 241.999023438 163.834960938 253.499023438 156.334960938 266.499023438 151.001953125 c 0
 279.499023438 145.668945312 293.33203125 143.001953125 307.999023438 143.001953125 c 2
 521.999023438 143.001953125 l 2
 551.999023438 143.001953125 576.999023438 153.001953125 596.999023438 173.001953125 c 0
 616.999023438 193.001953125 626.999023438 218.001953125 626.999023438 248.001953125 c 2
 626.999023438 462.001953125 l 2
 626.999023438 476.668945312 624.33203125 490.501953125 618.999023438 503.501953125 c 0
 613.666015625 516.501953125 606.166015625 528.001953125 596.499023438 538.001953125 c 0
 586.83203125 548.001953125 575.665039062 555.834960938 562.998046875 561.501953125 c 0
 550.331054688 567.168945312 536.6640625 570.001953125 521.997070312 570.001953125 c 2
 307.997070312 570.001953125 l 2
 292.6640625 570.001953125 278.831054688 567.001953125 266.498046875 561.001953125 c 0
 254.165039062 555.001953125 242.998046875 547.001953125 232.998046875 537.001953125 c 0
EndSplineSet
EndChar

StartChar: Odieresis
Encoding: 214 214 124
Width: 829
GlyphClass: 2
Flags: W
LayerCount: 2
Fore
SplineSet
204 749 m 1
 204 797 l 1
 347 797 l 1
 347 749 l 1
 204 749 l 1
490 749 m 1
 490 797 l 1
 633 797 l 1
 633 749 l 1
 490 749 l 1
308 0 m 2
 274 0 241.833007812 6.5 211.5 19.5 c 0
 181.166992188 32.5 154.833984375 50.1669921875 132.500976562 72.5 c 0
 110.16796875 94.8330078125 92.5009765625 121.166015625 79.5009765625 151.499023438 c 0
 66.5009765625 181.83203125 60.0009765625 213.999023438 60.0009765625 247.999023438 c 2
 60.0009765625 461.999023438 l 2
 60.0009765625 495.999023438 66.5009765625 528.166015625 79.5009765625 558.499023438 c 0
 92.5009765625 588.83203125 110.16796875 615.165039062 132.500976562 637.498046875 c 0
 154.833984375 659.831054688 181.166992188 677.498046875 211.5 690.498046875 c 0
 241.833007812 703.498046875 274 709.998046875 308 709.998046875 c 2
 522 709.998046875 l 2
 556 709.998046875 588.166992188 703.498046875 618.5 690.498046875 c 0
 648.833007812 677.498046875 675.166015625 659.831054688 697.499023438 637.498046875 c 0
 719.83203125 615.165039062 737.499023438 588.83203125 750.499023438 558.499023438 c 0
 763.499023438 528.166015625 769.999023438 495.999023438 769.999023438 461.999023438 c 2
 769.999023438 247.999023438 l 2
 769.999023438 213.999023438 763.499023438 181.83203125 750.499023438 151.499023438 c 0
 737.499023438 121.166015625 719.83203125 94.8330078125 697.499023438 72.5 c 0
 675.166015625 50.1669921875 648.833007812 32.5 618.5 19.5 c 0
 588.166992188 6.5 556 0 522 0 c 2
 308 0 l 2
233 537 m 0
 223 527 215.000976562 515.833984375 209.000976562 503.500976562 c 0
 203.000976562 491.16796875 200.000976562 477.334960938 200.000976562 462.001953125 c 2
 200.000976562 248.001953125 l 2
 200.000976562 233.334960938 202.833984375 219.66796875 208.500976562 207.000976562 c 0
 214.16796875 194.333984375 222.000976562 183.166992188 232.000976562 173.5 c 0
 242.000976562 163.833007812 253.500976562 156.333007812 266.500976562 151 c 0
 279.500976562 145.666992188 293.333984375 143 308.000976562 143 c 2
 522.000976562 143 l 2
 552.000976562 143 577.000976562 153 597.000976562 173 c 0
 617.000976562 193 627.000976562 218 627.000976562 248 c 2
 627.000976562 462 l 2
 627.000976562 476.666992188 624.333984375 490.5 619.000976562 503.5 c 0
 613.66796875 516.5 606.16796875 528 596.500976562 538 c 0
 586.833984375 548 575.666992188 555.833007812 563 561.5 c 0
 550.333007812 567.166992188 536.666015625 570 521.999023438 570 c 2
 307.999023438 570 l 2
 292.666015625 570 278.833007812 567 266.5 561 c 0
 254.166992188 555 243 547 233 537 c 0
EndSplineSet
EndChar

StartChar: Ugrave
Encoding: 217 217 125
Width: 800
GlyphClass: 2
Flags: W
LayerCount: 2
Fore
SplineSet
509 0 m 2
 296 0 l 2
 264 -0 233 6.3330078125 203 19 c 0
 173 31.6669921875 146.666992188 49.1669921875 124 71.5 c 0
 101.333007812 93.8330078125 83.166015625 120.333007812 69.4990234375 151 c 0
 55.83203125 181.666992188 48.9990234375 215 48.9990234375 251 c 2
 48.9990234375 711 l 1
 190.999023438 711 l 1
 190.999023438 251 l 2
 190.999023438 235 193.83203125 220.333007812 199.499023438 207 c 0
 205.166015625 193.666992188 212.833007812 182.166992188 222.5 172.5 c 0
 232.166992188 162.833007812 243.333984375 155.333007812 256.000976562 150 c 0
 268.66796875 144.666992188 282.000976562 142 296.000976562 142 c 2
 509.000976562 142 l 2
 522.333984375 142 535.500976562 144.666992188 548.500976562 150 c 0
 561.500976562 155.333007812 573.000976562 162.833007812 583.000976562 172.5 c 0
 593.000976562 182.166992188 601.16796875 193.666992188 607.500976562 207 c 0
 613.833984375 220.333007812 617.000976562 235 617.000976562 251 c 2
 617.000976562 711 l 1
 756.000976562 711 l 1
 756.000976562 251 l 2
 756.000976562 215 749.16796875 181.666992188 735.500976562 151 c 0
 721.833984375 120.333007812 703.666992188 93.8330078125 681 71.5 c 0
 658.333007812 49.1669921875 632 31.6669921875 602 19 c 0
 572 6.3330078125 541 0 509 0 c 2
291 826 m 1
 341 876 l 1
 436 780 l 1
 402 745 l 1
 291 826 l 1
EndSplineSet
EndChar

StartChar: Uacute
Encoding: 218 218 126
Width: 800
GlyphClass: 2
Flags: W
LayerCount: 2
Fore
SplineSet
505 0 m 2
 292 0 l 2
 260 -0 229 6.3330078125 199 19 c 0
 169 31.6669921875 142.666992188 49.1669921875 120 71.5 c 0
 97.3330078125 93.8330078125 79.166015625 120.333007812 65.4990234375 151 c 0
 51.83203125 181.666992188 44.9990234375 215 44.9990234375 251 c 2
 44.9990234375 711 l 1
 186.999023438 711 l 1
 186.999023438 251 l 2
 186.999023438 235 189.83203125 220.333007812 195.499023438 207 c 0
 201.166015625 193.666992188 208.833007812 182.166992188 218.5 172.5 c 0
 228.166992188 162.833007812 239.333984375 155.333007812 252.000976562 150 c 0
 264.66796875 144.666992188 278.000976562 142 292.000976562 142 c 2
 505.000976562 142 l 2
 518.333984375 142 531.500976562 144.666992188 544.500976562 150 c 0
 557.500976562 155.333007812 569.000976562 162.833007812 579.000976562 172.5 c 0
 589.000976562 182.166992188 597.16796875 193.666992188 603.500976562 207 c 0
 609.833984375 220.333007812 613.000976562 235 613.000976562 251 c 2
 613.000976562 711 l 1
 752.000976562 711 l 1
 752.000976562 251 l 2
 752.000976562 215 745.16796875 181.666992188 731.500976562 151 c 0
 717.833984375 120.333007812 699.666992188 93.8330078125 677 71.5 c 0
 654.333007812 49.1669921875 628 31.6669921875 598 19 c 0
 568 6.3330078125 537 0 505 0 c 2
396 748 m 1
 364 783 l 1
 458 877 l 1
 506 827 l 1
 396 748 l 1
EndSplineSet
EndChar

StartChar: Ucircumflex
Encoding: 219 219 127
Width: 803
GlyphClass: 2
Flags: W
LayerCount: 2
Fore
SplineSet
508 0 m 2
 295 0 l 2
 263 -0 232 6.3330078125 202 19 c 0
 172 31.6669921875 145.666992188 49.1669921875 123 71.5 c 0
 100.333007812 93.8330078125 82.166015625 120.333007812 68.4990234375 151 c 0
 54.83203125 181.666992188 47.9990234375 215 47.9990234375 251 c 2
 47.9990234375 711 l 1
 189.999023438 711 l 1
 189.999023438 251 l 2
 189.999023438 235 192.83203125 220.333007812 198.499023438 207 c 0
 204.166015625 193.666992188 211.833007812 182.166992188 221.5 172.5 c 0
 231.166992188 162.833007812 242.333984375 155.333007812 255.000976562 150 c 0
 267.66796875 144.666992188 281.000976562 142 295.000976562 142 c 2
 508.000976562 142 l 2
 521.333984375 142 534.500976562 144.666992188 547.500976562 150 c 0
 560.500976562 155.333007812 572.000976562 162.833007812 582.000976562 172.5 c 0
 592.000976562 182.166992188 600.16796875 193.666992188 606.500976562 207 c 0
 612.833984375 220.333007812 616.000976562 235 616.000976562 251 c 2
 616.000976562 711 l 1
 755.000976562 711 l 1
 755.000976562 251 l 2
 755.000976562 215 748.16796875 181.666992188 734.500976562 151 c 0
 720.833984375 120.333007812 702.666992188 93.8330078125 680 71.5 c 0
 657.333007812 49.1669921875 631 31.6669921875 601 19 c 0
 571 6.3330078125 540 0 508 0 c 2
405 903 m 1
 526 782 l 1
 495 752 l 1
 405 843 l 1
 314 752 l 1
 284 782 l 1
 405 903 l 1
EndSplineSet
EndChar

StartChar: Udieresis
Encoding: 220 220 128
Width: 841
GlyphClass: 2
Flags: W
LayerCount: 2
Fore
SplineSet
204 749 m 1
 204 797 l 1
 347 797 l 1
 347 749 l 1
 204 749 l 1
490 749 m 1
 490 797 l 1
 633 797 l 1
 633 749 l 1
 490 749 l 1
315 0 m 2
 280.333007812 0 247.834960938 6.5 217.501953125 19.5 c 0
 187.168945312 32.5 160.668945312 50.3330078125 138.001953125 73 c 0
 115.334960938 95.6669921875 97.501953125 122.166992188 84.501953125 152.5 c 0
 71.501953125 182.833007812 65.001953125 215.333007812 65.001953125 250 c 2
 65.001953125 712 l 1
 205.001953125 712 l 1
 205.001953125 250 l 2
 205.001953125 234.666992188 207.834960938 220.5 213.501953125 207.5 c 0
 219.168945312 194.5 227.001953125 183.166992188 237.001953125 173.5 c 0
 247.001953125 163.833007812 258.668945312 156.333007812 272.001953125 151 c 0
 285.334960938 145.666992188 299.66796875 143 315.000976562 143 c 2
 527.000976562 143 l 2
 542.333984375 143 556.666992188 145.666992188 570 151 c 0
 583.333007812 156.333007812 595 163.833007812 605 173.5 c 0
 615 183.166992188 622.833007812 194.5 628.5 207.5 c 0
 634.166992188 220.5 637 234.666992188 637 250 c 2
 637 712 l 1
 777 712 l 1
 777 250 l 2
 777 215.333007812 770.5 182.833007812 757.5 152.5 c 0
 744.5 122.166992188 726.666992188 95.6669921875 704 73 c 0
 681.333007812 50.3330078125 654.833007812 32.5 624.5 19.5 c 0
 594.166992188 6.5 561.666992188 0 527 0 c 2
 315 0 l 2
EndSplineSet
EndChar

StartChar: agrave
Encoding: 224 224 129
Width: 752
GlyphClass: 2
Flags: W
LayerCount: 2
Fore
SplineSet
454 711 m 1
 731 0 l 1
 579 0 l 1
 536 107 l 1
 216 107 l 1
 176 0 l 1
 24 0 l 1
 301 711 l 1
 454 711 l 1
482 249 m 1
 375 515 l 1
 271 249 l 1
 482 249 l 1
266 824 m 1
 316 874 l 1
 412 780 l 1
 375 745 l 1
 266 824 l 1
EndSplineSet
EndChar

StartChar: aacute
Encoding: 225 225 130
Width: 750
GlyphClass: 2
Flags: W
LayerCount: 2
Fore
SplineSet
448 711 m 1
 727 0 l 1
 574 0 l 1
 531 108 l 1
 213 108 l 1
 173 0 l 1
 20 0 l 1
 299 711 l 1
 448 711 l 1
478 249 m 1
 371 514 l 1
 267 249 l 1
 478 249 l 1
371 748 m 1
 339 783 l 1
 433 877 l 1
 481 827 l 1
 371 748 l 1
EndSplineSet
EndChar

StartChar: acircumflex
Encoding: 226 226 131
Width: 764
GlyphClass: 2
Flags: W
LayerCount: 2
Fore
SplineSet
458 712 m 1
 738 0 l 1
 587 0 l 1
 544 105 l 1
 222 105 l 1
 179 0 l 1
 26 0 l 1
 305 712 l 1
 458 712 l 1
488 249 m 1
 383 518 l 1
 278 249 l 1
 488 249 l 1
383 903 m 1
 504 782 l 1
 473 752 l 1
 383 843 l 1
 292 752 l 1
 262 782 l 1
 383 903 l 1
EndSplineSet
EndChar

StartChar: atilde
Encoding: 227 227 132
Width: 776
GlyphClass: 2
Flags: W
LayerCount: 2
Fore
SplineSet
561 831 m 1
 551 810.333007812 537.998046875 791.66796875 521.998046875 775.000976562 c 0
 505.998046875 758.333984375 485.665039062 750.000976562 460.998046875 750.000976562 c 0
 444.998046875 750.000976562 430.331054688 752.833984375 416.998046875 758.500976562 c 0
 403.665039062 764.16796875 391.498046875 770.500976562 380.498046875 777.500976562 c 0
 369.498046875 784.500976562 359.165039062 790.833984375 349.498046875 796.500976562 c 0
 339.831054688 802.16796875 330.998046875 805.000976562 322.998046875 805.000976562 c 0
 310.331054688 805.000976562 300.331054688 801.333984375 292.998046875 794.000976562 c 0
 285.665039062 786.66796875 279.33203125 778.334960938 273.999023438 769.001953125 c 1
 206.999023438 805.001953125 l 1
 212.999023438 815.001953125 219.499023438 824.668945312 226.499023438 834.001953125 c 0
 233.499023438 843.334960938 241.166015625 851.66796875 249.499023438 859.000976562 c 0
 257.83203125 866.333984375 267.33203125 872.166992188 277.999023438 876.5 c 0
 288.666015625 880.833007812 300.333007812 883 313 883 c 0
 327 883 340.333007812 880 353 874 c 0
 365.666992188 868 377.666992188 861.5 389 854.5 c 0
 400.333007812 847.5 411.166015625 841.166992188 421.499023438 835.5 c 0
 431.83203125 829.833007812 441.999023438 827 451.999023438 827 c 0
 462.666015625 827 471.333007812 831 478 839 c 0
 484.666992188 847 490 855.333007812 494 864 c 1
 561 831 l 1
464.998046875 713.001953125 m 1
 745.998046875 0.001953125 l 1
 591.998046875 0.001953125 l 1
 549.998046875 105.001953125 l 1
 227.998046875 105.001953125 l 1
 184.998046875 0.001953125 l 1
 30.998046875 0.001953125 l 1
 309.998046875 713.001953125 l 1
 464.998046875 713.001953125 l 1
493.998046875 250.001953125 m 1
 388.998046875 519.001953125 l 1
 282.998046875 250.001953125 l 1
 493.998046875 250.001953125 l 1
EndSplineSet
EndChar

StartChar: adieresis
Encoding: 228 228 133
Width: 762
GlyphClass: 2
Flags: W
LayerCount: 2
Fore
SplineSet
426 771 m 1
 426 821 l 1
 568 821 l 1
 568 771 l 1
 426 771 l 1
186 773 m 1
 186 823 l 1
 326 823 l 1
 326 773 l 1
 186 773 l 1
457 712 m 1
 737 0 l 1
 586 0 l 1
 543 105 l 1
 221 105 l 1
 178 0 l 1
 25 0 l 1
 304 712 l 1
 457 712 l 1
487 249 m 1
 382 518 l 1
 277 249 l 1
 487 249 l 1
EndSplineSet
EndChar

StartChar: aring
Encoding: 229 229 134
Width: 776
GlyphClass: 2
Flags: W
LayerCount: 2
Fore
SplineSet
282 845 m 0
 282 859 284.666992188 872.333007812 290 885 c 0
 295.333007812 897.666992188 302.666015625 908.666992188 311.999023438 918 c 0
 321.33203125 927.333007812 332.33203125 934.666015625 344.999023438 939.999023438 c 0
 357.666015625 945.33203125 370.999023438 947.999023438 384.999023438 947.999023438 c 0
 398.999023438 947.999023438 412.33203125 945.33203125 424.999023438 939.999023438 c 0
 437.666015625 934.666015625 448.666015625 927.333007812 457.999023438 918 c 0
 467.33203125 908.666992188 474.665039062 897.666992188 479.998046875 885 c 0
 485.331054688 872.333007812 487.998046875 859 487.998046875 845 c 0
 487.998046875 831 485.331054688 817.666992188 479.998046875 805 c 0
 474.665039062 792.333007812 467.33203125 781.333007812 457.999023438 772 c 0
 448.666015625 762.666992188 437.666015625 755.333984375 424.999023438 750.000976562 c 0
 412.33203125 744.66796875 398.999023438 742.000976562 384.999023438 742.000976562 c 0
 370.999023438 742.000976562 357.666015625 744.66796875 344.999023438 750.000976562 c 0
 332.33203125 755.333984375 321.33203125 762.666992188 311.999023438 772 c 0
 302.666015625 781.333007812 295.333007812 792.333007812 290 805 c 0
 284.666992188 817.666992188 282 831 282 845 c 0
322 845 m 0
 322 827.666992188 328.166992188 812.833984375 340.5 800.500976562 c 0
 352.833007812 788.16796875 367.666015625 782.000976562 384.999023438 782.000976562 c 0
 402.33203125 782.000976562 417.165039062 788.16796875 429.498046875 800.500976562 c 0
 441.831054688 812.833984375 447.998046875 827.666992188 447.998046875 845 c 0
 447.998046875 862.333007812 441.831054688 877.166015625 429.498046875 889.499023438 c 0
 417.165039062 901.83203125 402.33203125 907.999023438 384.999023438 907.999023438 c 0
 367.666015625 907.999023438 352.833007812 901.83203125 340.5 889.499023438 c 0
 328.166992188 877.166015625 322 862.333007812 322 845 c 0
465 713 m 1
 746 0 l 1
 592 0 l 1
 550 105 l 1
 228 105 l 1
 185 0 l 1
 31 0 l 1
 310 713 l 1
 465 713 l 1
494 250 m 1
 389 519 l 1
 283 250 l 1
 494 250 l 1
EndSplineSet
EndChar

StartChar: ae
Encoding: 230 230 135
Width: 1262
GlyphClass: 2
Flags: W
LayerCount: 2
Fore
SplineSet
1192 711 m 1
 1192 570 l 1
 622 570 l 1
 622 430 l 1
 916 430 l 1
 916 286 l 1
 622 286 l 1
 622 143 l 1
 1192 143 l 1
 1192 0 l 1
 479 0 l 1
 479 106 l 1
 240 106 l 1
 197 0 l 1
 44 0 l 1
 323 711 l 1
 1192 711 l 1
421 570 m 1
 295 249 l 1
 479 249 l 1
 479 570 l 1
 421 570 l 1
EndSplineSet
EndChar

StartChar: ccedilla
Encoding: 231 231 136
Width: 830
GlyphClass: 2
Flags: W
LayerCount: 2
Fore
SplineSet
452 -135 m 1
 380.999023438 -134.995117188 l 1
 401.999023438 -0.9951171875 l 1
 310.999023438 -0.9951171875 l 2
 276.999023438 -0.9951171875 244.83203125 5.5048828125 214.499023438 18.5048828125 c 0
 184.166015625 31.5048828125 157.499023438 49.337890625 134.499023438 72.0048828125 c 0
 111.499023438 94.671875 93.33203125 121.171875 79.9990234375 151.504882812 c 0
 66.666015625 181.837890625 59.9990234375 214.337890625 59.9990234375 249.004882812 c 2
 59.9990234375 463.004882812 l 2
 59.9990234375 497.671875 66.4990234375 530.171875 79.4990234375 560.504882812 c 0
 92.4990234375 590.837890625 110.33203125 617.170898438 132.999023438 639.50390625 c 0
 155.666015625 661.836914062 182.333007812 679.50390625 213 692.50390625 c 0
 243.666992188 705.50390625 276.333984375 712.00390625 311.000976562 712.00390625 c 2
 526.000976562 712.00390625 l 2
 558.000976562 712.00390625 589.000976562 705.670898438 619.000976562 693.00390625 c 0
 649.000976562 680.336914062 675.500976562 663.00390625 698.500976562 641.00390625 c 0
 721.500976562 619.00390625 739.833984375 593.00390625 753.500976562 563.00390625 c 0
 767.16796875 533.00390625 774.000976562 500.670898438 774.000976562 466.00390625 c 1
 629.000976562 466.00390625 l 1
 629.000976562 479.336914062 626.16796875 492.336914062 620.500976562 505.00390625 c 0
 614.833984375 517.670898438 607.166992188 529.00390625 597.5 539.00390625 c 0
 587.833007812 549.00390625 576.833007812 557.170898438 564.5 563.50390625 c 0
 552.166992188 569.836914062 539.333984375 573.00390625 526.000976562 573.00390625 c 2
 311.000976562 573.00390625 l 2
 295.000976562 573.00390625 280.500976562 569.836914062 267.500976562 563.50390625 c 0
 254.500976562 557.170898438 243.333984375 549.00390625 234.000976562 539.00390625 c 0
 224.66796875 529.00390625 217.500976562 517.336914062 212.500976562 504.00390625 c 0
 207.500976562 490.670898438 205.000976562 477.00390625 205.000976562 463.00390625 c 2
 205.000976562 249.00390625 l 2
 205.000976562 235.00390625 207.500976562 221.670898438 212.500976562 209.00390625 c 0
 217.500976562 196.336914062 224.500976562 185.169921875 233.500976562 175.502929688 c 0
 242.500976562 165.8359375 253.500976562 158.168945312 266.500976562 152.501953125 c 0
 279.500976562 146.834960938 294.333984375 144.001953125 311.000976562 144.001953125 c 2
 526.000976562 144.001953125 l 2
 540.000976562 144.001953125 553.333984375 146.668945312 566.000976562 152.001953125 c 0
 578.66796875 157.334960938 589.66796875 164.66796875 599.000976562 174.000976562 c 0
 608.333984375 183.333984375 615.666992188 194.166992188 621 206.5 c 0
 626.333007812 218.833007812 629 232 629 246 c 1
 774 246 l 1
 774 211.333007812 767 179 753 149 c 0
 739 119 720.333007812 92.8330078125 697 70.5 c 0
 673.666992188 48.1669921875 647.166992188 30.6669921875 617.5 18 c 0
 587.833007812 5.3330078125 557.333007812 -1 526 -1 c 2
 452 -1 l 1
 452 -135 l 1
EndSplineSet
EndChar

StartChar: egrave
Encoding: 232 232 137
Width: 788
GlyphClass: 2
Flags: W
LayerCount: 2
Fore
SplineSet
298 826 m 1
 347 876 l 1
 443 780 l 1
 407 745 l 1
 298 826 l 1
195 568 m 1
 195 427 l 1
 488 427 l 1
 488 288 l 1
 195 288 l 1
 195 142 l 1
 760 142 l 1
 760 0 l 1
 53 0 l 1
 53 568 l 1
 53 711 l 1
 760 711 l 1
 760 568 l 1
 195 568 l 1
EndSplineSet
EndChar

StartChar: eacute
Encoding: 233 233 138
Width: 791
GlyphClass: 2
Flags: W
LayerCount: 2
Fore
SplineSet
192 567 m 1
 192 427 l 1
 483 427 l 1
 483 288 l 1
 192 288 l 1
 192 144 l 1
 756 144 l 1
 756 0 l 1
 49 0 l 1
 49 567 l 1
 49 711 l 1
 756 711 l 1
 756 567 l 1
 192 567 l 1
403 743 m 1
 369 780 l 1
 463 877 l 1
 513 827 l 1
 403 743 l 1
EndSplineSet
EndChar

StartChar: ecircumflex
Encoding: 234 234 139
Width: 796
GlyphClass: 2
Flags: W
LayerCount: 2
Fore
SplineSet
195 568 m 1
 195 427 l 1
 488 427 l 1
 488 288 l 1
 195 288 l 1
 195 142 l 1
 760 142 l 1
 760 0 l 1
 53 0 l 1
 53 568 l 1
 53 711 l 1
 760 711 l 1
 760 568 l 1
 195 568 l 1
407 897 m 1
 528 778 l 1
 498 748 l 1
 407 837 l 1
 317 748 l 1
 285 778 l 1
 407 897 l 1
EndSplineSet
EndChar

StartChar: edieresis
Encoding: 235 235 140
Width: 819
GlyphClass: 2
Flags: W
LayerCount: 2
Fore
SplineSet
773 569 m 1
 207 569 l 1
 207 428 l 1
 500 428 l 1
 500 288 l 1
 207 288 l 1
 207 143 l 1
 773 143 l 1
 773 0 l 1
 64 0 l 1
 64 569 l 1
 64 712 l 1
 773 712 l 1
 773 569 l 1
204 749 m 1
 204 797 l 1
 347 797 l 1
 347 749 l 1
 204 749 l 1
490 749 m 1
 490 797 l 1
 633 797 l 1
 633 749 l 1
 490 749 l 1
EndSplineSet
EndChar

StartChar: igrave
Encoding: 236 236 141
Width: 258
GlyphClass: 2
Flags: W
LayerCount: 2
Fore
SplineSet
65 0 m 1
 65 711 l 1
 207 711 l 1
 207 0 l 1
 65 0 l 1
25 827 m 1
 75 874 l 1
 169 779 l 1
 134 746 l 1
 25 827 l 1
EndSplineSet
EndChar

StartChar: iacute
Encoding: 237 237 142
Width: 260
GlyphClass: 2
Flags: W
LayerCount: 2
Fore
SplineSet
54 0 m 1
 54 712 l 1
 197 712 l 1
 197 0 l 1
 54 0 l 1
126 746 m 1
 88 780 l 1
 186 876 l 1
 234 829 l 1
 126 746 l 1
EndSplineSet
EndChar

StartChar: icircumflex
Encoding: 238 238 143
Width: 299
GlyphClass: 2
Flags: W
LayerCount: 2
Fore
SplineSet
79 0 m 1
 79 711 l 1
 220 711 l 1
 220 0 l 1
 79 0 l 1
150 899 m 1
 270 778 l 1
 240 748 l 1
 150 839 l 1
 59 748 l 1
 29 778 l 1
 150 899 l 1
EndSplineSet
EndChar

StartChar: idieresis
Encoding: 239 239 144
Width: 411
GlyphClass: 2
Flags: W
LayerCount: 2
Fore
SplineSet
277 711 m 1
 277 0 l 1
 134 0 l 1
 134 711 l 1
 277 711 l 1
14 769 m 1
 14 818 l 1
 155 818 l 1
 155 769 l 1
 14 769 l 1
256 766 m 1
 256 815 l 1
 397 815 l 1
 397 766 l 1
 256 766 l 1
EndSplineSet
EndChar

StartChar: ntilde
Encoding: 241 241 145
Width: 859
GlyphClass: 2
Flags: W
LayerCount: 2
Fore
SplineSet
604 831 m 1
 594 810.333007812 580.998046875 791.66796875 564.998046875 775.000976562 c 0
 548.998046875 758.333984375 528.665039062 750.000976562 503.998046875 750.000976562 c 0
 487.998046875 750.000976562 473.331054688 752.833984375 459.998046875 758.500976562 c 0
 446.665039062 764.16796875 434.498046875 770.500976562 423.498046875 777.500976562 c 0
 412.498046875 784.500976562 402.165039062 790.833984375 392.498046875 796.500976562 c 0
 382.831054688 802.16796875 373.998046875 805.000976562 365.998046875 805.000976562 c 0
 353.331054688 805.000976562 343.331054688 801.333984375 335.998046875 794.000976562 c 0
 328.665039062 786.66796875 322.33203125 778.334960938 316.999023438 769.001953125 c 1
 249.999023438 805.001953125 l 1
 255.999023438 815.001953125 262.499023438 824.668945312 269.499023438 834.001953125 c 0
 276.499023438 843.334960938 284.166015625 851.66796875 292.499023438 859.000976562 c 0
 300.83203125 866.333984375 310.33203125 872.166992188 320.999023438 876.5 c 0
 331.666015625 880.833007812 343.333007812 883 356 883 c 0
 370 883 383.333007812 880 396 874 c 0
 408.666992188 868 420.666992188 861.5 432 854.5 c 0
 443.333007812 847.5 454.166015625 841.166992188 464.499023438 835.5 c 0
 474.83203125 829.833007812 484.999023438 827 494.999023438 827 c 0
 505.666015625 827 514.333007812 831 521 839 c 0
 527.666992188 847 533 855.333007812 537 864 c 1
 604 831 l 1
217.998046875 711.001953125 m 1
 645.998046875 465.001953125 l 1
 645.998046875 711.001953125 l 1
 788.998046875 711.001953125 l 1
 788.998046875 0.001953125 l 1
 645.998046875 0.001953125 l 1
 645.998046875 302.001953125 l 1
 217.998046875 548.001953125 l 1
 217.998046875 0.001953125 l 1
 74.998046875 0.001953125 l 1
 74.998046875 711.001953125 l 1
 169.998046875 711.001953125 l 1
 217.998046875 711.001953125 l 1
EndSplineSet
EndChar

StartChar: ograve
Encoding: 242 242 146
Width: 830
GlyphClass: 2
Flags: W
LayerCount: 2
Fore
SplineSet
291 826 m 1
 341 876 l 1
 436 780 l 1
 402 745 l 1
 291 826 l 1
308 0 m 2
 274 0 241.833007812 6.5 211.5 19.5 c 0
 181.166992188 32.5 154.833984375 50.1669921875 132.500976562 72.5 c 0
 110.16796875 94.8330078125 92.5009765625 121.166015625 79.5009765625 151.499023438 c 0
 66.5009765625 181.83203125 60.0009765625 213.999023438 60.0009765625 247.999023438 c 2
 60.0009765625 461.999023438 l 2
 60.0009765625 495.999023438 66.5009765625 528.166015625 79.5009765625 558.499023438 c 0
 92.5009765625 588.83203125 110.16796875 615.165039062 132.500976562 637.498046875 c 0
 154.833984375 659.831054688 181.166992188 677.498046875 211.5 690.498046875 c 0
 241.833007812 703.498046875 274 709.998046875 308 709.998046875 c 2
 522 709.998046875 l 2
 556 709.998046875 588.166992188 703.498046875 618.5 690.498046875 c 0
 648.833007812 677.498046875 675.166015625 659.831054688 697.499023438 637.498046875 c 0
 719.83203125 615.165039062 737.499023438 588.83203125 750.499023438 558.499023438 c 0
 763.499023438 528.166015625 769.999023438 495.999023438 769.999023438 461.999023438 c 2
 769.999023438 247.999023438 l 2
 769.999023438 213.999023438 763.499023438 181.83203125 750.499023438 151.499023438 c 0
 737.499023438 121.166015625 719.83203125 94.8330078125 697.499023438 72.5 c 0
 675.166015625 50.1669921875 648.833007812 32.5 618.5 19.5 c 0
 588.166992188 6.5 556 0 522 0 c 2
 308 0 l 2
233 537 m 0
 223 527 215.000976562 515.833984375 209.000976562 503.500976562 c 0
 203.000976562 491.16796875 200.000976562 477.334960938 200.000976562 462.001953125 c 2
 200.000976562 248.001953125 l 2
 200.000976562 233.334960938 202.833984375 219.66796875 208.500976562 207.000976562 c 0
 214.16796875 194.333984375 222.000976562 183.166992188 232.000976562 173.5 c 0
 242.000976562 163.833007812 253.500976562 156.333007812 266.500976562 151 c 0
 279.500976562 145.666992188 293.333984375 143 308.000976562 143 c 2
 522.000976562 143 l 2
 552.000976562 143 577.000976562 153 597.000976562 173 c 0
 617.000976562 193 627.000976562 218 627.000976562 248 c 2
 627.000976562 462 l 2
 627.000976562 476.666992188 624.333984375 490.5 619.000976562 503.5 c 0
 613.66796875 516.5 606.16796875 528 596.500976562 538 c 0
 586.833984375 548 575.666992188 555.833007812 563 561.5 c 0
 550.333007812 567.166992188 536.666015625 570 521.999023438 570 c 2
 307.999023438 570 l 2
 292.666015625 570 278.833007812 567 266.5 561 c 0
 254.166992188 555 243 547 233 537 c 0
EndSplineSet
EndChar

StartChar: oacute
Encoding: 243 243 147
Width: 830
GlyphClass: 2
Flags: W
LayerCount: 2
Fore
SplineSet
339 783 m 1
 433 877 l 1
 481 827 l 1
 371 748 l 1
 339 783 l 1
308 0 m 2
 274 0 241.833007812 6.5 211.5 19.5 c 0
 181.166992188 32.5 154.833984375 50.1669921875 132.500976562 72.5 c 0
 110.16796875 94.8330078125 92.5009765625 121.166015625 79.5009765625 151.499023438 c 0
 66.5009765625 181.83203125 60.0009765625 213.999023438 60.0009765625 247.999023438 c 2
 60.0009765625 461.999023438 l 2
 60.0009765625 495.999023438 66.5009765625 528.166015625 79.5009765625 558.499023438 c 0
 92.5009765625 588.83203125 110.16796875 615.165039062 132.500976562 637.498046875 c 0
 154.833984375 659.831054688 181.166992188 677.498046875 211.5 690.498046875 c 0
 241.833007812 703.498046875 274 709.998046875 308 709.998046875 c 2
 522 709.998046875 l 2
 556 709.998046875 588.166992188 703.498046875 618.5 690.498046875 c 0
 648.833007812 677.498046875 675.166015625 659.831054688 697.499023438 637.498046875 c 0
 719.83203125 615.165039062 737.499023438 588.83203125 750.499023438 558.499023438 c 0
 763.499023438 528.166015625 769.999023438 495.999023438 769.999023438 461.999023438 c 2
 769.999023438 247.999023438 l 2
 769.999023438 213.999023438 763.499023438 181.83203125 750.499023438 151.499023438 c 0
 737.499023438 121.166015625 719.83203125 94.8330078125 697.499023438 72.5 c 0
 675.166015625 50.1669921875 648.833007812 32.5 618.5 19.5 c 0
 588.166992188 6.5 556 0 522 0 c 2
 308 0 l 2
233 537 m 0
 223 527 215.000976562 515.833984375 209.000976562 503.500976562 c 0
 203.000976562 491.16796875 200.000976562 477.334960938 200.000976562 462.001953125 c 2
 200.000976562 248.001953125 l 2
 200.000976562 233.334960938 202.833984375 219.66796875 208.500976562 207.000976562 c 0
 214.16796875 194.333984375 222.000976562 183.166992188 232.000976562 173.5 c 0
 242.000976562 163.833007812 253.500976562 156.333007812 266.500976562 151 c 0
 279.500976562 145.666992188 293.333984375 143 308.000976562 143 c 2
 522.000976562 143 l 2
 552.000976562 143 577.000976562 153 597.000976562 173 c 0
 617.000976562 193 627.000976562 218 627.000976562 248 c 2
 627.000976562 462 l 2
 627.000976562 476.666992188 624.333984375 490.5 619.000976562 503.5 c 0
 613.66796875 516.5 606.16796875 528 596.500976562 538 c 0
 586.833984375 548 575.666992188 555.833007812 563 561.5 c 0
 550.333007812 567.166992188 536.666015625 570 521.999023438 570 c 2
 307.999023438 570 l 2
 292.666015625 570 278.833007812 567 266.5 561 c 0
 254.166992188 555 243 547 233 537 c 0
EndSplineSet
EndChar

StartChar: ocircumflex
Encoding: 244 244 148
Width: 830
GlyphClass: 2
Flags: W
LayerCount: 2
Fore
SplineSet
308 0 m 2
 274 0 241.833007812 6.5 211.5 19.5 c 0
 181.166992188 32.5 154.833984375 50.1669921875 132.500976562 72.5 c 0
 110.16796875 94.8330078125 92.5009765625 121.166015625 79.5009765625 151.499023438 c 0
 66.5009765625 181.83203125 60.0009765625 213.999023438 60.0009765625 247.999023438 c 2
 60.0009765625 461.999023438 l 2
 60.0009765625 495.999023438 66.5009765625 528.166015625 79.5009765625 558.499023438 c 0
 92.5009765625 588.83203125 110.16796875 615.165039062 132.500976562 637.498046875 c 0
 154.833984375 659.831054688 181.166992188 677.498046875 211.5 690.498046875 c 0
 241.833007812 703.498046875 274 709.998046875 308 709.998046875 c 2
 522 709.998046875 l 2
 556 709.998046875 588.166992188 703.498046875 618.5 690.498046875 c 0
 648.833007812 677.498046875 675.166015625 659.831054688 697.499023438 637.498046875 c 0
 719.83203125 615.165039062 737.499023438 588.83203125 750.499023438 558.499023438 c 0
 763.499023438 528.166015625 769.999023438 495.999023438 769.999023438 461.999023438 c 2
 769.999023438 247.999023438 l 2
 769.999023438 213.999023438 763.499023438 181.83203125 750.499023438 151.499023438 c 0
 737.499023438 121.166015625 719.83203125 94.8330078125 697.499023438 72.5 c 0
 675.166015625 50.1669921875 648.833007812 32.5 618.5 19.5 c 0
 588.166992188 6.5 556 0 522 0 c 2
 308 0 l 2
233 537 m 0
 223 527 215.000976562 515.833984375 209.000976562 503.500976562 c 0
 203.000976562 491.16796875 200.000976562 477.334960938 200.000976562 462.001953125 c 2
 200.000976562 248.001953125 l 2
 200.000976562 233.334960938 202.833984375 219.66796875 208.500976562 207.000976562 c 0
 214.16796875 194.333984375 222.000976562 183.166992188 232.000976562 173.5 c 0
 242.000976562 163.833007812 253.500976562 156.333007812 266.500976562 151 c 0
 279.500976562 145.666992188 293.333984375 143 308.000976562 143 c 2
 522.000976562 143 l 2
 552.000976562 143 577.000976562 153 597.000976562 173 c 0
 617.000976562 193 627.000976562 218 627.000976562 248 c 2
 627.000976562 462 l 2
 627.000976562 476.666992188 624.333984375 490.5 619.000976562 503.5 c 0
 613.66796875 516.5 606.16796875 528 596.500976562 538 c 0
 586.833984375 548 575.666992188 555.833007812 563 561.5 c 0
 550.333007812 567.166992188 536.666015625 570 521.999023438 570 c 2
 307.999023438 570 l 2
 292.666015625 570 278.833007812 567 266.5 561 c 0
 254.166992188 555 243 547 233 537 c 0
407.000976562 897.000976562 m 1
 528.000976562 778.000976562 l 1
 498.000976562 748.000976562 l 1
 407.000976562 837.000976562 l 1
 317.000976562 748.000976562 l 1
 285.000976562 778.000976562 l 1
 407.000976562 897.000976562 l 1
EndSplineSet
EndChar

StartChar: otilde
Encoding: 245 245 149
Width: 830
GlyphClass: 2
Flags: W
LayerCount: 2
Fore
SplineSet
587 831 m 1
 577 810.333007812 563.998046875 791.66796875 547.998046875 775.000976562 c 0
 531.998046875 758.333984375 511.665039062 750.000976562 486.998046875 750.000976562 c 0
 470.998046875 750.000976562 456.331054688 752.833984375 442.998046875 758.500976562 c 0
 429.665039062 764.16796875 417.498046875 770.500976562 406.498046875 777.500976562 c 0
 395.498046875 784.500976562 385.165039062 790.833984375 375.498046875 796.500976562 c 0
 365.831054688 802.16796875 356.998046875 805.000976562 348.998046875 805.000976562 c 0
 336.331054688 805.000976562 326.331054688 801.333984375 318.998046875 794.000976562 c 0
 311.665039062 786.66796875 305.33203125 778.334960938 299.999023438 769.001953125 c 1
 232.999023438 805.001953125 l 1
 238.999023438 815.001953125 245.499023438 824.668945312 252.499023438 834.001953125 c 0
 259.499023438 843.334960938 267.166015625 851.66796875 275.499023438 859.000976562 c 0
 283.83203125 866.333984375 293.33203125 872.166992188 303.999023438 876.5 c 0
 314.666015625 880.833007812 326.333007812 883 339 883 c 0
 353 883 366.333007812 880 379 874 c 0
 391.666992188 868 403.666992188 861.5 415 854.5 c 0
 426.333007812 847.5 437.166015625 841.166992188 447.499023438 835.5 c 0
 457.83203125 829.833007812 467.999023438 827 477.999023438 827 c 0
 488.666015625 827 497.333007812 831 504 839 c 0
 510.666992188 847 516 855.333007812 520 864 c 1
 587 831 l 1
307.998046875 0.001953125 m 2
 273.998046875 0.001953125 241.831054688 6.501953125 211.498046875 19.501953125 c 0
 181.165039062 32.501953125 154.83203125 50.1689453125 132.499023438 72.501953125 c 0
 110.166015625 94.8349609375 92.4990234375 121.16796875 79.4990234375 151.500976562 c 0
 66.4990234375 181.833984375 59.9990234375 214.000976562 59.9990234375 248.000976562 c 2
 59.9990234375 462.000976562 l 2
 59.9990234375 496.000976562 66.4990234375 528.16796875 79.4990234375 558.500976562 c 0
 92.4990234375 588.833984375 110.166015625 615.166992188 132.499023438 637.5 c 0
 154.83203125 659.833007812 181.165039062 677.5 211.498046875 690.5 c 0
 241.831054688 703.5 273.998046875 710 307.998046875 710 c 2
 521.998046875 710 l 2
 555.998046875 710 588.165039062 703.5 618.498046875 690.5 c 0
 648.831054688 677.5 675.1640625 659.833007812 697.497070312 637.5 c 0
 719.830078125 615.166992188 737.497070312 588.833984375 750.497070312 558.500976562 c 0
 763.497070312 528.16796875 769.997070312 496.000976562 769.997070312 462.000976562 c 2
 769.997070312 248.000976562 l 2
 769.997070312 214.000976562 763.497070312 181.833984375 750.497070312 151.500976562 c 0
 737.497070312 121.16796875 719.830078125 94.8349609375 697.497070312 72.501953125 c 0
 675.1640625 50.1689453125 648.831054688 32.501953125 618.498046875 19.501953125 c 0
 588.165039062 6.501953125 555.998046875 0.001953125 521.998046875 0.001953125 c 2
 307.998046875 0.001953125 l 2
232.998046875 537.001953125 m 0
 222.998046875 527.001953125 214.999023438 515.8359375 208.999023438 503.502929688 c 0
 202.999023438 491.169921875 199.999023438 477.336914062 199.999023438 462.00390625 c 2
 199.999023438 248.00390625 l 2
 199.999023438 233.336914062 202.83203125 219.669921875 208.499023438 207.002929688 c 0
 214.166015625 194.3359375 221.999023438 183.168945312 231.999023438 173.501953125 c 0
 241.999023438 163.834960938 253.499023438 156.334960938 266.499023438 151.001953125 c 0
 279.499023438 145.668945312 293.33203125 143.001953125 307.999023438 143.001953125 c 2
 521.999023438 143.001953125 l 2
 551.999023438 143.001953125 576.999023438 153.001953125 596.999023438 173.001953125 c 0
 616.999023438 193.001953125 626.999023438 218.001953125 626.999023438 248.001953125 c 2
 626.999023438 462.001953125 l 2
 626.999023438 476.668945312 624.33203125 490.501953125 618.999023438 503.501953125 c 0
 613.666015625 516.501953125 606.166015625 528.001953125 596.499023438 538.001953125 c 0
 586.83203125 548.001953125 575.665039062 555.834960938 562.998046875 561.501953125 c 0
 550.331054688 567.168945312 536.6640625 570.001953125 521.997070312 570.001953125 c 2
 307.997070312 570.001953125 l 2
 292.6640625 570.001953125 278.831054688 567.001953125 266.498046875 561.001953125 c 0
 254.165039062 555.001953125 242.998046875 547.001953125 232.998046875 537.001953125 c 0
EndSplineSet
EndChar

StartChar: odieresis
Encoding: 246 246 150
Width: 830
GlyphClass: 2
Flags: W
LayerCount: 2
Fore
SplineSet
204 749 m 1
 204 797 l 1
 347 797 l 1
 347 749 l 1
 204 749 l 1
490 749 m 1
 490 797 l 1
 633 797 l 1
 633 749 l 1
 490 749 l 1
308 0 m 2
 274 0 241.833007812 6.5 211.5 19.5 c 0
 181.166992188 32.5 154.833984375 50.1669921875 132.500976562 72.5 c 0
 110.16796875 94.8330078125 92.5009765625 121.166015625 79.5009765625 151.499023438 c 0
 66.5009765625 181.83203125 60.0009765625 213.999023438 60.0009765625 247.999023438 c 2
 60.0009765625 461.999023438 l 2
 60.0009765625 495.999023438 66.5009765625 528.166015625 79.5009765625 558.499023438 c 0
 92.5009765625 588.83203125 110.16796875 615.165039062 132.500976562 637.498046875 c 0
 154.833984375 659.831054688 181.166992188 677.498046875 211.5 690.498046875 c 0
 241.833007812 703.498046875 274 709.998046875 308 709.998046875 c 2
 522 709.998046875 l 2
 556 709.998046875 588.166992188 703.498046875 618.5 690.498046875 c 0
 648.833007812 677.498046875 675.166015625 659.831054688 697.499023438 637.498046875 c 0
 719.83203125 615.165039062 737.499023438 588.83203125 750.499023438 558.499023438 c 0
 763.499023438 528.166015625 769.999023438 495.999023438 769.999023438 461.999023438 c 2
 769.999023438 247.999023438 l 2
 769.999023438 213.999023438 763.499023438 181.83203125 750.499023438 151.499023438 c 0
 737.499023438 121.166015625 719.83203125 94.8330078125 697.499023438 72.5 c 0
 675.166015625 50.1669921875 648.833007812 32.5 618.5 19.5 c 0
 588.166992188 6.5 556 0 522 0 c 2
 308 0 l 2
233 537 m 0
 223 527 215.000976562 515.833984375 209.000976562 503.500976562 c 0
 203.000976562 491.16796875 200.000976562 477.334960938 200.000976562 462.001953125 c 2
 200.000976562 248.001953125 l 2
 200.000976562 233.334960938 202.833984375 219.66796875 208.500976562 207.000976562 c 0
 214.16796875 194.333984375 222.000976562 183.166992188 232.000976562 173.5 c 0
 242.000976562 163.833007812 253.500976562 156.333007812 266.500976562 151 c 0
 279.500976562 145.666992188 293.333984375 143 308.000976562 143 c 2
 522.000976562 143 l 2
 552.000976562 143 577.000976562 153 597.000976562 173 c 0
 617.000976562 193 627.000976562 218 627.000976562 248 c 2
 627.000976562 462 l 2
 627.000976562 476.666992188 624.333984375 490.5 619.000976562 503.5 c 0
 613.66796875 516.5 606.16796875 528 596.500976562 538 c 0
 586.833984375 548 575.666992188 555.833007812 563 561.5 c 0
 550.333007812 567.166992188 536.666015625 570 521.999023438 570 c 2
 307.999023438 570 l 2
 292.666015625 570 278.833007812 567 266.5 561 c 0
 254.166992188 555 243 547 233 537 c 0
EndSplineSet
EndChar

StartChar: ugrave
Encoding: 249 249 151
Width: 800
GlyphClass: 2
Flags: W
LayerCount: 2
Fore
SplineSet
509 0 m 2
 296 0 l 2
 264 -0 233 6.3330078125 203 19 c 0
 173 31.6669921875 146.666992188 49.1669921875 124 71.5 c 0
 101.333007812 93.8330078125 83.166015625 120.333007812 69.4990234375 151 c 0
 55.83203125 181.666992188 48.9990234375 215 48.9990234375 251 c 2
 48.9990234375 711 l 1
 190.999023438 711 l 1
 190.999023438 251 l 2
 190.999023438 235 193.83203125 220.333007812 199.499023438 207 c 0
 205.166015625 193.666992188 212.833007812 182.166992188 222.5 172.5 c 0
 232.166992188 162.833007812 243.333984375 155.333007812 256.000976562 150 c 0
 268.66796875 144.666992188 282.000976562 142 296.000976562 142 c 2
 509.000976562 142 l 2
 522.333984375 142 535.500976562 144.666992188 548.500976562 150 c 0
 561.500976562 155.333007812 573.000976562 162.833007812 583.000976562 172.5 c 0
 593.000976562 182.166992188 601.16796875 193.666992188 607.500976562 207 c 0
 613.833984375 220.333007812 617.000976562 235 617.000976562 251 c 2
 617.000976562 711 l 1
 756.000976562 711 l 1
 756.000976562 251 l 2
 756.000976562 215 749.16796875 181.666992188 735.500976562 151 c 0
 721.833984375 120.333007812 703.666992188 93.8330078125 681 71.5 c 0
 658.333007812 49.1669921875 632 31.6669921875 602 19 c 0
 572 6.3330078125 541 0 509 0 c 2
291 826 m 1
 341 876 l 1
 436 780 l 1
 402 745 l 1
 291 826 l 1
EndSplineSet
EndChar

StartChar: uacute
Encoding: 250 250 152
Width: 841
GlyphClass: 2
Flags: W
LayerCount: 2
Fore
SplineSet
505 0 m 2
 292 0 l 2
 260 -0 229 6.3330078125 199 19 c 0
 169 31.6669921875 142.666992188 49.1669921875 120 71.5 c 0
 97.3330078125 93.8330078125 79.166015625 120.333007812 65.4990234375 151 c 0
 51.83203125 181.666992188 44.9990234375 215 44.9990234375 251 c 2
 44.9990234375 711 l 1
 186.999023438 711 l 1
 186.999023438 251 l 2
 186.999023438 235 189.83203125 220.333007812 195.499023438 207 c 0
 201.166015625 193.666992188 208.833007812 182.166992188 218.5 172.5 c 0
 228.166992188 162.833007812 239.333984375 155.333007812 252.000976562 150 c 0
 264.66796875 144.666992188 278.000976562 142 292.000976562 142 c 2
 505.000976562 142 l 2
 518.333984375 142 531.500976562 144.666992188 544.500976562 150 c 0
 557.500976562 155.333007812 569.000976562 162.833007812 579.000976562 172.5 c 0
 589.000976562 182.166992188 597.16796875 193.666992188 603.500976562 207 c 0
 609.833984375 220.333007812 613.000976562 235 613.000976562 251 c 2
 613.000976562 711 l 1
 752.000976562 711 l 1
 752.000976562 251 l 2
 752.000976562 215 745.16796875 181.666992188 731.500976562 151 c 0
 717.833984375 120.333007812 699.666992188 93.8330078125 677 71.5 c 0
 654.333007812 49.1669921875 628 31.6669921875 598 19 c 0
 568 6.3330078125 537 0 505 0 c 2
396 748 m 1
 364 783 l 1
 458 877 l 1
 506 827 l 1
 396 748 l 1
EndSplineSet
EndChar

StartChar: ucircumflex
Encoding: 251 251 153
Width: 841
GlyphClass: 2
Flags: W
LayerCount: 2
Fore
SplineSet
421 903 m 1
 542 782 l 1
 511 752 l 1
 421 843 l 1
 330 752 l 1
 300 782 l 1
 421 903 l 1
315 0 m 2
 280.333007812 0 247.834960938 6.5 217.501953125 19.5 c 0
 187.168945312 32.5 160.668945312 50.3330078125 138.001953125 73 c 0
 115.334960938 95.6669921875 97.501953125 122.166992188 84.501953125 152.5 c 0
 71.501953125 182.833007812 65.001953125 215.333007812 65.001953125 250 c 2
 65.001953125 712 l 1
 205.001953125 712 l 1
 205.001953125 250 l 2
 205.001953125 234.666992188 207.834960938 220.5 213.501953125 207.5 c 0
 219.168945312 194.5 227.001953125 183.166992188 237.001953125 173.5 c 0
 247.001953125 163.833007812 258.668945312 156.333007812 272.001953125 151 c 0
 285.334960938 145.666992188 299.66796875 143 315.000976562 143 c 2
 527.000976562 143 l 2
 542.333984375 143 556.666992188 145.666992188 570 151 c 0
 583.333007812 156.333007812 595 163.833007812 605 173.5 c 0
 615 183.166992188 622.833007812 194.5 628.5 207.5 c 0
 634.166992188 220.5 637 234.666992188 637 250 c 2
 637 712 l 1
 777 712 l 1
 777 250 l 2
 777 215.333007812 770.5 182.833007812 757.5 152.5 c 0
 744.5 122.166992188 726.666992188 95.6669921875 704 73 c 0
 681.333007812 50.3330078125 654.833007812 32.5 624.5 19.5 c 0
 594.166992188 6.5 561.666992188 0 527 0 c 2
 315 0 l 2
EndSplineSet
EndChar

StartChar: udieresis
Encoding: 252 252 154
Width: 825
GlyphClass: 2
Flags: W
LayerCount: 2
Fore
SplineSet
305 0 m 2
 271.666992188 0 239.997070312 6.5 209.997070312 19.5 c 0
 179.997070312 32.5 153.830078125 50.3330078125 131.497070312 73 c 0
 109.1640625 95.6669921875 91.3310546875 122.166992188 77.998046875 152.5 c 0
 64.6650390625 182.833007812 57.998046875 215.666015625 57.998046875 250.999023438 c 2
 57.998046875 710.999023438 l 1
 199.998046875 710.999023438 l 1
 199.998046875 250.999023438 l 2
 199.998046875 234.999023438 202.998046875 220.33203125 208.998046875 206.999023438 c 0
 214.998046875 193.666015625 222.831054688 182.166015625 232.498046875 172.499023438 c 0
 242.165039062 162.83203125 253.33203125 155.33203125 265.999023438 149.999023438 c 0
 278.666015625 144.666015625 291.666015625 141.999023438 304.999023438 141.999023438 c 2
 519.999023438 141.999023438 l 2
 532.666015625 141.999023438 545.499023438 144.666015625 558.499023438 149.999023438 c 0
 571.499023438 155.33203125 582.999023438 162.83203125 592.999023438 172.499023438 c 0
 602.999023438 182.166015625 611.166015625 193.666015625 617.499023438 206.999023438 c 0
 623.83203125 220.33203125 626.999023438 234.999023438 626.999023438 250.999023438 c 2
 626.999023438 710.999023438 l 1
 766.999023438 710.999023438 l 1
 766.999023438 250.999023438 l 2
 766.999023438 215.666015625 760.33203125 182.833007812 746.999023438 152.5 c 0
 733.666015625 122.166992188 715.833007812 95.6669921875 693.5 73 c 0
 671.166992188 50.3330078125 645 32.5 615 19.5 c 0
 585 6.5 553.333007812 0 520 0 c 2
 305 0 l 2
220.997070312 746 m 1
 220.997070312 796 l 1
 361.997070312 796 l 1
 361.997070312 746 l 1
 220.997070312 746 l 1
462.997070312 746 m 1
 462.997070312 796 l 1
 603.997070312 796 l 1
 603.997070312 746 l 1
 462.997070312 746 l 1
EndSplineSet
EndChar

StartChar: ydieresis
Encoding: 255 255 155
Width: 756
GlyphClass: 2
Flags: W
LayerCount: 2
Fore
SplineSet
553 712 m 1
 733 712 l 1
 449 337 l 1
 449 0 l 1
 307 0 l 1
 307 337 l 1
 25 712 l 1
 204 712 l 1
 381 480 l 1
 553 712 l 1
307 751 m 1
 164 751 l 1
 164 799 l 1
 307 799 l 1
 307 751 l 1
593 751 m 1
 450 751 l 1
 450 799 l 1
 593 799 l 1
 593 751 l 1
EndSplineSet
EndChar

StartChar: dotlessi
Encoding: 305 305 156
Width: 279
GlyphClass: 2
Flags: W
LayerCount: 2
Fore
SplineSet
70 712 m 1
 211 712 l 1
 211 0 l 1
 70 0 l 1
 70 712 l 1
EndSplineSet
EndChar

StartChar: ij
Encoding: 307 307 157
Width: 847
GlyphClass: 3
Flags: W
LayerCount: 2
Fore
SplineSet
213 713 m 1
 213 0 l 1
 70 0 l 1
 70 713 l 1
 213 713 l 1
532 3 m 0
 496.666992188 3 463.829101562 9.6689453125 433.49609375 23.001953125 c 0
 403.163085938 36.3349609375 376.830078125 54.3349609375 354.497070312 77.001953125 c 0
 332.1640625 99.6689453125 314.6640625 126.001953125 301.997070312 156.001953125 c 0
 289.330078125 186.001953125 282.997070312 217.668945312 282.997070312 251.001953125 c 1
 425.997070312 251.001953125 l 1
 425.997070312 236.334960938 428.830078125 222.501953125 434.497070312 209.501953125 c 0
 440.1640625 196.501953125 447.831054688 185.168945312 457.498046875 175.501953125 c 0
 467.165039062 165.834960938 478.33203125 158.16796875 490.999023438 152.500976562 c 0
 503.666015625 146.833984375 517.333007812 144.000976562 532 144.000976562 c 0
 548 144.000976562 562.5 147.000976562 575.5 153.000976562 c 0
 588.5 159.000976562 599.833007812 166.833984375 609.5 176.500976562 c 0
 619.166992188 186.16796875 626.5 197.500976562 631.5 210.500976562 c 0
 636.5 223.500976562 639 237.000976562 639 251.000976562 c 2
 639 713.000976562 l 1
 783 713.000976562 l 1
 783 251.000976562 l 2
 783 218.333984375 776.666992188 187.166992188 764 157.5 c 0
 751.333007812 127.833007812 733.833007812 101.5 711.5 78.5 c 0
 689.166992188 55.5 662.666992188 37.1669921875 632 23.5 c 0
 601.333007812 9.8330078125 568 3 532 3 c 0
EndSplineSet
Ligature2: "'clig' Contextual Ligatures in Latin lookup 0 subtable" I J
EndChar

StartChar: OE
Encoding: 338 338 158
Width: 1400
GlyphClass: 2
Flags: W
LayerCount: 2
Fore
SplineSet
243 536 m 0
 233 526 225.000976562 514.833984375 219.000976562 502.500976562 c 0
 213.000976562 490.16796875 210.000976562 476.334960938 210.000976562 461.001953125 c 2
 210.000976562 247.001953125 l 2
 210.000976562 232.334960938 212.833984375 218.66796875 218.500976562 206.000976562 c 0
 224.16796875 193.333984375 232.000976562 182.166992188 242.000976562 172.5 c 0
 252.000976562 162.833007812 263.500976562 155.333007812 276.500976562 150 c 0
 289.500976562 144.666992188 303.333984375 142 318.000976562 142 c 2
 532.000976562 142 l 2
 562.000976562 142 587.000976562 152 607.000976562 172 c 0
 627.000976562 192 637.000976562 217 637.000976562 247 c 2
 637.000976562 461 l 2
 637.000976562 475.666992188 634.333984375 489.5 629.000976562 502.5 c 0
 623.66796875 515.5 616.16796875 527 606.500976562 537 c 0
 596.833984375 547 585.666992188 554.833007812 573 560.5 c 0
 560.333007812 566.166992188 546.666015625 569 531.999023438 569 c 2
 317.999023438 569 l 2
 302.666015625 569 288.833007812 566 276.5 560 c 0
 264.166992188 554 253 546 243 536 c 0
651.000976562 64.0009765625 m 1
 628.333984375 43.333984375 602.500976562 27.3369140625 573.500976562 16.00390625 c 0
 544.500976562 4.6708984375 514.000976562 -0.99609375 482.000976562 -0.99609375 c 2
 318.000976562 -0.99609375 l 2
 284.000976562 -0.99609375 251.833984375 5.50390625 221.500976562 18.50390625 c 0
 191.16796875 31.50390625 164.834960938 49.1708984375 142.501953125 71.50390625 c 0
 120.168945312 93.8369140625 102.501953125 120.169921875 89.501953125 150.502929688 c 0
 76.501953125 180.8359375 70.001953125 213.002929688 70.001953125 247.002929688 c 2
 70.001953125 461.002929688 l 2
 70.001953125 495.002929688 76.501953125 527.169921875 89.501953125 557.502929688 c 0
 102.501953125 587.8359375 120.168945312 614.168945312 142.501953125 636.501953125 c 0
 164.834960938 658.834960938 191.16796875 676.501953125 221.500976562 689.501953125 c 0
 251.833984375 702.501953125 284.000976562 709.001953125 318.000976562 709.001953125 c 2
 482.000976562 709.001953125 l 2
 514.000976562 709.001953125 544.500976562 703.168945312 573.500976562 691.501953125 c 0
 602.500976562 679.834960938 628.333984375 663.66796875 651.000976562 643.000976562 c 1
 651.000976562 709.000976562 l 1
 1362.00097656 709.000976562 l 1
 1362.00097656 569.000976562 l 1
 791.000976562 569.000976562 l 1
 791.000976562 428.000976562 l 1
 1088.00097656 428.000976562 l 1
 1088.00097656 285.000976562 l 1
 791.000976562 285.000976562 l 1
 791.000976562 141.000976562 l 1
 1362.00097656 141.000976562 l 1
 1362.00097656 -1.9990234375 l 1
 651.000976562 -1.9990234375 l 1
 651.000976562 64.0009765625 l 1
EndSplineSet
EndChar

StartChar: oe
Encoding: 339 339 159
Width: 1430
GlyphClass: 2
Flags: W
LayerCount: 2
Fore
SplineSet
243 536 m 0
 233 526 225.000976562 514.833984375 219.000976562 502.500976562 c 0
 213.000976562 490.16796875 210.000976562 476.334960938 210.000976562 461.001953125 c 2
 210.000976562 247.001953125 l 2
 210.000976562 232.334960938 212.833984375 218.66796875 218.500976562 206.000976562 c 0
 224.16796875 193.333984375 232.000976562 182.166992188 242.000976562 172.5 c 0
 252.000976562 162.833007812 263.500976562 155.333007812 276.500976562 150 c 0
 289.500976562 144.666992188 303.333984375 142 318.000976562 142 c 2
 532.000976562 142 l 2
 562.000976562 142 587.000976562 152 607.000976562 172 c 0
 627.000976562 192 637.000976562 217 637.000976562 247 c 2
 637.000976562 461 l 2
 637.000976562 475.666992188 634.333984375 489.5 629.000976562 502.5 c 0
 623.66796875 515.5 616.16796875 527 606.500976562 537 c 0
 596.833984375 547 585.666992188 554.833007812 573 560.5 c 0
 560.333007812 566.166992188 546.666015625 569 531.999023438 569 c 2
 317.999023438 569 l 2
 302.666015625 569 288.833007812 566 276.5 560 c 0
 264.166992188 554 253 546 243 536 c 0
651.000976562 64.0009765625 m 1
 628.333984375 43.333984375 602.500976562 27.3369140625 573.500976562 16.00390625 c 0
 544.500976562 4.6708984375 514.000976562 -0.99609375 482.000976562 -0.99609375 c 2
 318.000976562 -0.99609375 l 2
 284.000976562 -0.99609375 251.833984375 5.50390625 221.500976562 18.50390625 c 0
 191.16796875 31.50390625 164.834960938 49.1708984375 142.501953125 71.50390625 c 0
 120.168945312 93.8369140625 102.501953125 120.169921875 89.501953125 150.502929688 c 0
 76.501953125 180.8359375 70.001953125 213.002929688 70.001953125 247.002929688 c 2
 70.001953125 461.002929688 l 2
 70.001953125 495.002929688 76.501953125 527.169921875 89.501953125 557.502929688 c 0
 102.501953125 587.8359375 120.168945312 614.168945312 142.501953125 636.501953125 c 0
 164.834960938 658.834960938 191.16796875 676.501953125 221.500976562 689.501953125 c 0
 251.833984375 702.501953125 284.000976562 709.001953125 318.000976562 709.001953125 c 2
 482.000976562 709.001953125 l 2
 514.000976562 709.001953125 544.500976562 703.168945312 573.500976562 691.501953125 c 0
 602.500976562 679.834960938 628.333984375 663.66796875 651.000976562 643.000976562 c 1
 651.000976562 709.000976562 l 1
 1362.00097656 709.000976562 l 1
 1362.00097656 569.000976562 l 1
 791.000976562 569.000976562 l 1
 791.000976562 428.000976562 l 1
 1088.00097656 428.000976562 l 1
 1088.00097656 285.000976562 l 1
 791.000976562 285.000976562 l 1
 791.000976562 141.000976562 l 1
 1362.00097656 141.000976562 l 1
 1362.00097656 -1.9990234375 l 1
 651.000976562 -1.9990234375 l 1
 651.000976562 64.0009765625 l 1
EndSplineSet
EndChar

StartChar: Ydieresis
Encoding: 376 376 160
Width: 756
GlyphClass: 2
Flags: W
LayerCount: 2
Fore
SplineSet
733 712 m 1
 449 337 l 1
 449 0 l 1
 307 0 l 1
 307 337 l 1
 25 712 l 1
 204 712 l 1
 381 480 l 1
 553 712 l 1
 733 712 l 1
164 751 m 1
 164 799 l 1
 307 799 l 1
 307 751 l 1
 164 751 l 1
450 751 m 1
 450 799 l 1
 593 799 l 1
 593 751 l 1
 450 751 l 1
EndSplineSet
EndChar

StartChar: circumflex
Encoding: 710 710 161
Width: 833
GlyphClass: 2
Flags: W
LayerCount: 2
Fore
SplineSet
405 903 m 1
 526 782 l 1
 495 752 l 1
 405 843 l 1
 314 752 l 1
 284 782 l 1
 405 903 l 1
405 903 m 1
 526 782 l 1
 495 752 l 1
 405 843 l 1
 314 752 l 1
 284 782 l 1
 405 903 l 1
EndSplineSet
EndChar

StartChar: endash
Encoding: 8211 8211 164
Width: 833
GlyphClass: 2
Flags: W
LayerCount: 2
Fore
SplineSet
70 256 m 1
 70 375 l 1
 545 375 l 1
 545 256 l 1
 70 256 l 1
EndSplineSet
EndChar

StartChar: emdash
Encoding: 8212 8212 165
Width: 833
GlyphClass: 2
Flags: W
LayerCount: 2
Fore
SplineSet
70 256 m 1
 70 375 l 1
 781 375 l 1
 781 256 l 1
 70 256 l 1
EndSplineSet
EndChar

StartChar: quoteleft
Encoding: 8216 8216 166
Width: 261
GlyphClass: 2
Flags: W
LayerCount: 2
Fore
SplineSet
190 712 m 1
 190 534 l 1
 71 534 l 1
 71 652 l 1
 190 712 l 1
EndSplineSet
EndChar

StartChar: quoteright
Encoding: 8217 8217 167
Width: 261
GlyphClass: 2
Flags: W
LayerCount: 2
Fore
SplineSet
71 534 m 1
 71 712 l 1
 190 712 l 1
 190 594 l 1
 71 534 l 1
EndSplineSet
EndChar

StartChar: quotedblleft
Encoding: 8220 8220 169
Width: 440
GlyphClass: 2
Flags: W
LayerCount: 2
Fore
SplineSet
368 712 m 1
 368 534 l 1
 249 534 l 1
 249 652 l 1
 368 712 l 1
190 712 m 1
 190 534 l 1
 71 534 l 1
 71 652 l 1
 190 712 l 1
EndSplineSet
EndChar

StartChar: quotedblright
Encoding: 8221 8221 170
Width: 440
GlyphClass: 2
Flags: W
LayerCount: 2
Fore
SplineSet
71 534 m 1
 71 712 l 1
 190 712 l 1
 190 594 l 1
 71 534 l 1
249 534 m 1
 249 712 l 1
 368 712 l 1
 368 594 l 1
 249 534 l 1
EndSplineSet
EndChar

